<svg width="27" height="27" viewBox="0 0 27 27" fill="none" xmlns="http://www.w3.org/2000/svg">
<path fill-rule="evenodd" clip-rule="evenodd" d="M4.57764e-05 13.4998C4.57764e-05 17.4017 1.65194 20.9049 4.30067 23.3827C5.55383 24.5504 7.06333 25.4903 8.71522 26.1169C10.1962 26.6865 11.8196 26.9998 13.5 26.9998C14.0981 26.9998 14.6962 26.9713 15.2658 26.8859C17.8576 26.5441 20.25 25.4618 22.1582 23.8384C23.5538 22.6707 24.7215 21.2182 25.5475 19.5947C26.0601 18.5694 26.4589 17.4587 26.7152 16.291C26.9146 15.3796 27 14.4682 27 13.4998C27 10.8226 26.231 8.34476 24.8924 6.26565C24.3228 5.38274 23.6677 4.55679 22.8987 3.84477C20.4779 1.48085 17.1456 0.0283203 13.5 0.0283203C13.2152 0.0283203 12.9019 0.028321 12.6171 0.0568019C11.0791 0.142245 9.62661 0.512497 8.25953 1.08212C8.03168 1.16756 7.80383 1.28148 7.57598 1.39541C6.26586 2.02199 5.06966 2.87642 4.04434 3.90173C1.53802 6.32262 4.57764e-05 9.74033 4.57764e-05 13.4998Z" fill="url(#paint0_radial_37_2513)"/>
<path fill-rule="evenodd" clip-rule="evenodd" d="M20.6203 22.4433C21.7596 22.4433 23.8387 20.7914 24.8355 18.6838C26.0602 16.0351 26.0887 13.2439 25.4906 12.7313C25.3197 12.5889 25.0918 12.5034 24.807 12.5034C24.6361 12.5034 24.4083 12.5319 24.2089 12.5889C22.7849 13.0161 20.7912 14.9813 19.9368 16.9749C19.1108 18.9116 19.3387 20.4496 19.595 21.3895C19.7659 22.2724 20.2501 22.4433 20.6203 22.4433Z" fill="url(#paint1_linear_37_2513)"/>
<path fill-rule="evenodd" clip-rule="evenodd" d="M19.766 21.3324C19.9084 21.8735 20.1647 22.2153 20.6204 22.2153C21.5888 22.2153 23.6394 20.6773 24.6078 18.5697C25.8609 15.921 25.7755 13.3007 25.3198 12.902C25.0919 12.7026 24.6932 12.6741 24.2375 12.8165C22.785 13.2438 20.592 15.095 20.1363 17.0317C19.709 18.6551 19.5097 20.364 19.766 21.3324Z" fill="url(#paint2_linear_37_2513)"/>
<path fill-rule="evenodd" clip-rule="evenodd" d="M24.4368 11.6205C24.5792 11.6205 24.7216 11.5635 24.8071 11.4496C25.1773 11.0224 24.6362 9.51288 24.4083 8.97175C24.0381 8.11732 23.6393 7.66162 23.2976 7.66162C23.1552 7.66162 23.0412 7.71858 22.9273 7.80403L22.8704 7.86099C22.4716 8.25972 22.2723 9.19959 22.6425 9.9401C22.9273 10.4812 23.7533 11.4211 24.3229 11.5635C24.3229 11.6205 24.3799 11.6205 24.4368 11.6205Z" fill="url(#paint3_linear_37_2513)"/>
<path fill-rule="evenodd" clip-rule="evenodd" d="M22.7278 9.88291C22.9841 10.3956 23.8385 11.3354 24.3512 11.4778C24.4936 11.5063 24.6075 11.5063 24.6645 11.4209C25.0347 10.9652 23.9525 7.86076 23.212 7.83228C23.098 7.83228 22.9841 7.88924 22.8987 7.97468C22.5854 8.28797 22.386 9.17088 22.7278 9.88291Z" fill="url(#paint4_linear_37_2513)"/>
<path fill-rule="evenodd" clip-rule="evenodd" d="M5.35439 22.1014C5.81009 22.1014 6.15186 21.9306 6.29427 21.5888C6.57908 20.9622 6.43667 18.6552 5.52528 16.6331C4.18667 13.6141 2.30693 12.8167 1.53794 12.8167C1.48098 12.8167 1.42402 12.8167 1.39554 12.8167C1.36706 12.8167 1.33857 12.8167 1.31009 12.8451C1.11073 12.9021 0.911362 13.073 0.797439 13.3293C0.2563 14.4401 0.569587 17.1742 1.4525 19.0825C2.22148 20.8768 4.12971 22.1014 5.35439 22.1014Z" fill="url(#paint5_linear_37_2513)"/>
<path fill-rule="evenodd" clip-rule="evenodd" d="M1.6233 19.0253C2.70557 21.3608 5.58215 22.5285 6.06633 21.5032C6.32266 20.9905 6.20873 18.7975 5.29734 16.7469C3.93025 13.6994 2.05051 12.9874 1.39545 13.0728H1.36697C0.427097 13.3291 0.5695 16.7184 1.6233 19.0253Z" fill="url(#paint6_linear_37_2513)"/>
<path fill-rule="evenodd" clip-rule="evenodd" d="M1.8227 12.6458C1.93663 12.6458 2.02207 12.6173 2.10751 12.5604C2.67713 12.2186 3.04739 10.0256 2.64865 9.34202C2.53473 9.14266 2.39232 9.08569 2.30688 9.08569C2.2784 9.08569 2.22144 9.08569 2.16447 9.08569C1.53789 9.08569 0.911313 9.8262 0.683465 10.7946C0.54106 11.4781 0.825869 12.0477 1.16764 12.3325C1.36701 12.5319 1.59486 12.6458 1.8227 12.6458Z" fill="url(#paint7_linear_37_2513)"/>
<path fill-rule="evenodd" clip-rule="evenodd" d="M1.30997 12.1613C1.53782 12.3892 1.79415 12.4746 1.96503 12.3607C2.42073 12.1044 2.7625 10.0538 2.42073 9.45565C2.36377 9.37021 2.3068 9.31325 2.24984 9.31325C1.79415 9.22781 1.13908 9.82591 0.911236 10.8512C0.797312 11.3924 1.02516 11.8765 1.30997 12.1613Z" fill="url(#paint8_linear_37_2513)"/>
<path fill-rule="evenodd" clip-rule="evenodd" d="M12.6455 26.8294C12.7309 26.8294 12.8164 26.8294 12.9018 26.8294C14.2974 26.801 15.3512 26.2029 15.5221 25.6902C15.579 25.4908 15.5505 25.2915 15.4081 25.1775C14.9809 24.8073 13.1866 24.7788 12.8164 24.7788C11.6486 24.7788 10.2246 24.8927 10.1107 25.4339C10.0822 25.5763 10.0822 25.7756 10.31 26.032C10.6233 26.3453 11.0505 26.8294 12.6455 26.8294Z" fill="url(#paint9_linear_37_2513)"/>
<path fill-rule="evenodd" clip-rule="evenodd" d="M10.4811 25.8324C10.8229 26.2027 11.2217 26.6299 12.902 26.6014C14.5254 26.5444 15.6647 25.69 15.266 25.3482C14.7248 24.8925 10.5096 24.8641 10.3672 25.4906C10.3103 25.5761 10.3387 25.7185 10.4811 25.8324Z" fill="url(#paint10_linear_37_2513)"/>
<path fill-rule="evenodd" clip-rule="evenodd" d="M6.09488 13.6992C7.00627 13.6992 7.68981 13.272 8.06006 12.503C8.91449 10.6233 8.91449 6.9777 8.28791 5.52517C8.11703 5.15491 7.94614 4.92707 7.71829 4.84162C7.49044 4.75618 7.2626 4.69922 7.00627 4.69922C6.2088 4.69922 5.38285 5.24036 4.61387 6.23719C3.3607 7.88909 2.47779 10.5663 2.81956 11.7625C2.93349 12.1328 3.24678 12.56 3.75944 12.9017C4.47146 13.3859 5.32589 13.6992 6.09488 13.6992Z" fill="url(#paint11_linear_37_2513)"/>
<path fill-rule="evenodd" clip-rule="evenodd" d="M3.04731 11.6772C3.13275 12.019 3.44604 12.3892 3.90173 12.7025C5.06945 13.557 7.12008 14.0127 7.86059 12.4177C8.68654 10.5949 8.68654 7.03482 8.08844 5.61077C7.97451 5.32596 7.80363 5.12659 7.63274 5.04115C5.09793 3.98736 2.56313 9.91139 3.04731 11.6772Z" fill="url(#paint12_linear_37_2513)"/>
<path fill-rule="evenodd" clip-rule="evenodd" d="M19.7658 21.3325C21.076 21.8166 23.1266 20.1647 24.1804 17.459C25.1203 15.0951 24.4082 13.2154 24.2089 12.8167C22.7563 13.2439 20.5633 15.0951 20.1076 17.0318C19.7089 18.6553 19.5095 20.3641 19.7658 21.3325Z" fill="#FFFF45"/>
<path fill-rule="evenodd" clip-rule="evenodd" d="M10.4811 25.8326C13.2722 26.687 15.2659 25.3199 15.2659 25.3199C14.7247 24.8642 10.5095 24.8357 10.3671 25.4623C10.3102 25.5762 10.3387 25.7186 10.4811 25.8326Z" fill="#FFFF45"/>
<path fill-rule="evenodd" clip-rule="evenodd" d="M2.07908 18.7975C3.9873 21.9019 6.09489 21.5032 6.09489 21.5032C6.35122 20.9905 6.2373 18.7975 5.32591 16.7469C3.95882 13.6994 2.07908 12.9874 1.42401 13.0728H1.39553C0.996798 14.2405 0.71199 16.576 2.07908 18.7975Z" fill="#FFFF45"/>
<path fill-rule="evenodd" clip-rule="evenodd" d="M3.90173 12.7026C5.06945 13.557 7.12008 14.0127 7.86059 12.4178C8.68654 10.595 8.68654 7.03486 8.08844 5.61081C7.57578 5.55385 6.57895 5.72473 5.46819 7.37663C3.87325 9.65511 3.3606 11.3924 3.90173 12.7026Z" fill="#FFFF45"/>
<path fill-rule="evenodd" clip-rule="evenodd" d="M1.30997 12.1615C1.53782 12.3894 1.79415 12.4748 1.96503 12.3609C2.42073 12.1045 2.7625 10.0539 2.42073 9.45581C2.07896 9.65518 1.53782 10.0824 1.39541 10.8514C1.33845 11.3356 1.30997 11.7913 1.30997 12.1615Z" fill="#FFFF45"/>
<path fill-rule="evenodd" clip-rule="evenodd" d="M22.7279 9.88308C22.9842 10.3957 23.8387 11.3356 24.3513 11.478C24.3228 11.2786 23.9241 8.85776 22.9273 7.97485C22.5855 8.28814 22.3861 9.17106 22.7279 9.88308Z" fill="#FFFF45"/>
<path opacity="0.3" fill-rule="evenodd" clip-rule="evenodd" d="M6.49385 16.6898C6.63626 17.0031 6.77867 17.2879 6.97803 17.5728C7.14892 17.7721 7.34829 17.943 7.46221 18.1709C7.88942 18.9683 7.80398 19.8797 8.03183 20.7057C8.17423 21.1614 8.516 21.5316 8.65841 21.9873C8.71537 22.1867 8.68689 22.386 8.68689 22.6139C8.68689 22.8702 8.8293 23.0411 8.9717 23.2405C9.14259 23.4683 9.37043 23.6107 9.62676 23.7246C9.82613 23.8101 10.054 23.7816 10.2818 23.7816C10.766 23.7816 11.2217 23.7246 11.7059 23.5822C12.1331 23.4683 12.5318 23.2689 12.959 23.1265C13.2438 23.0411 13.4717 23.0696 13.7565 23.1265C14.0128 23.1835 14.2976 23.155 14.554 23.155C15.0097 23.155 15.4369 23.4114 15.8356 23.6107C16.1204 23.7531 16.3198 23.924 16.4337 24.2373C16.5761 24.6076 16.5761 24.9493 17.0033 25.0917C17.2597 25.1772 17.573 25.0917 17.8293 25.0348C18.0571 24.9778 18.3135 25.0063 18.5413 25.0063C18.997 25.0063 19.4242 24.8639 19.8514 24.6645C20.3356 24.4082 20.7628 24.0379 21.1331 23.6677C21.3324 23.4683 21.6173 23.3544 21.8166 23.155C22.1014 22.8987 22.4147 22.6424 22.671 22.386C23.0983 21.9588 23.554 21.5316 24.0097 21.1329C24.3514 20.8765 24.6362 20.5348 24.921 20.2215C25.1489 19.9652 25.2913 19.5949 25.4622 19.2816C25.804 18.6835 26.0888 18 26.2596 17.3164C26.459 16.5474 26.6869 15.7215 26.6584 14.924C26.6584 14.2405 26.7438 13.6139 26.7438 12.9304C26.8008 14.212 26.7438 15.2658 26.6014 16.2626C26.8008 15.3512 26.8862 14.4398 26.8862 13.4715C26.8862 10.7943 26.1172 8.31644 24.7786 6.23733C24.209 5.35442 23.554 4.52847 22.785 3.81645C20.3641 1.45253 17.0318 0 13.3863 0C13.1014 0 12.7881 -4.35009e-07 12.5033 0.0284805C10.9654 0.113923 9.51284 0.484177 8.14575 1.0538C7.80398 1.42405 7.46221 1.85126 7.20588 2.27848C7.09195 2.44936 7.03499 2.64873 6.92107 2.81961C6.83562 2.9905 6.7217 3.04746 6.75019 3.24683C6.77867 3.36075 6.83563 3.50316 6.89259 3.61708C7.03499 3.98734 7.46221 4.24366 7.7755 4.44303C8.23119 4.72784 8.74385 4.84176 9.22803 5.09809C9.54132 5.26898 9.62676 5.41138 9.85461 5.66771C9.96853 5.81012 10.1109 5.89556 10.1964 6.03796C10.4527 6.4367 10.5951 7.00632 10.5666 7.46201C10.5382 8.3734 9.82613 9.02847 9.65524 9.8829C9.51284 10.6234 9.62676 11.4209 9.37043 12.1329C9.1141 12.9588 8.40208 13.6139 7.71854 14.0981C7.43373 14.2974 7.1774 14.4683 6.92107 14.6962C6.69322 14.924 6.37993 15.0379 6.20904 15.3228C6.06664 15.7785 6.32297 16.2626 6.49385 16.6898Z" fill="url(#paint13_linear_37_2513)"/>
<path fill-rule="evenodd" clip-rule="evenodd" d="M7.57614 1.36726C7.6331 1.36726 7.66158 1.36726 7.71855 1.39574C7.86095 1.42422 8.00336 1.39574 8.14576 1.36726C8.25968 1.33878 8.31665 1.28182 8.45905 1.28182C8.62994 1.25334 8.77234 1.19637 8.94323 1.16789C9.11411 1.13941 9.25652 1.08245 9.4274 1.02549C9.56981 0.968526 9.62677 0.997007 9.74069 1.02549C9.85462 1.05397 9.94006 0.997007 10.054 0.968526C10.1679 0.911564 10.3103 0.911564 10.4242 0.883083C10.766 0.826121 11.1078 0.712198 11.4496 0.626755C11.6489 0.569793 11.8483 0.569793 12.0761 0.569793C12.247 0.569793 12.3894 0.626755 12.5603 0.626755C12.6742 0.626755 12.7597 0.598273 12.8736 0.598273C12.9875 0.569792 13.1014 0.598273 13.2154 0.598273C13.3863 0.569792 13.4717 0.541311 13.6426 0.598273C13.785 0.626754 13.8704 0.626754 14.0128 0.655235C14.1552 0.655235 14.3261 0.712197 14.4685 0.740678C14.7249 0.79764 15.0097 0.854602 15.266 0.854602C15.4369 0.854602 15.6647 0.79764 15.8071 0.854602C15.8926 0.883083 15.9495 0.997007 16.035 1.05397C16.1774 1.19637 16.3198 1.3103 16.4337 1.4527C16.5476 1.59511 16.6616 1.76599 16.6616 1.96536C16.6616 2.13625 16.5761 2.33561 16.4907 2.47802C16.4052 2.6489 16.3768 2.79131 16.5476 2.90523C16.747 3.04764 17.0033 3.16156 17.2312 3.247C17.4021 3.30397 17.5445 3.33245 17.6584 3.21852C17.7154 3.19004 17.7438 3.1046 17.8008 3.04764C17.8578 3.01916 17.9432 3.04764 18.0002 3.07612C18.1711 3.13308 18.3419 3.19004 18.5128 3.21852C18.6268 3.247 18.7122 3.30397 18.8261 3.30397C18.94 3.33245 19.0255 3.247 19.1679 3.27548C19.3388 3.30396 19.5381 3.38941 19.709 3.38941C19.8514 3.38941 20.0223 3.33245 20.1362 3.27548C20.1932 3.247 20.2217 3.19004 20.3071 3.21852C20.3641 3.21852 20.4495 3.30397 20.478 3.36093C20.535 3.41789 20.535 3.50333 20.5919 3.56029C20.6489 3.64574 20.6774 3.7027 20.7343 3.78814C20.8198 3.93055 20.9052 4.07295 20.9907 4.21536C21.0476 4.3008 21.1046 4.4432 21.19 4.52865C21.2185 4.58561 21.304 4.61409 21.3609 4.64257C21.5033 4.72801 21.6457 4.84194 21.7881 4.92738C22.0445 5.12675 22.3008 5.35459 22.5571 5.55396C22.7565 5.69637 23.0413 5.78181 23.2692 5.89573C23.4116 5.9527 23.554 6.00966 23.6964 6.06662C23.7533 6.0951 23.8388 6.0951 23.8673 6.15206C23.9242 6.20903 23.9527 6.26599 23.9812 6.35143C24.0951 6.49383 24.2375 6.66472 24.3229 6.83561C24.3799 6.94953 24.4084 7.03497 24.4654 7.1489C24.5223 7.2913 24.6078 7.43371 24.6362 7.60459C24.7502 7.91788 24.7502 8.25965 24.8926 8.57295C24.9495 8.74383 25.0635 8.91472 25.1489 9.0856C25.2913 9.37041 25.3198 9.71218 25.3483 10.0255C25.3767 10.1964 25.3483 10.4242 25.3198 10.5951C25.2913 10.7945 25.2913 10.9938 25.2913 11.1932C25.2913 11.3926 25.4337 11.6204 25.5476 11.7628C25.6616 11.9052 25.8609 11.9622 26.0033 12.1046C26.1173 12.2185 26.2597 12.3324 26.3166 12.5033C26.3451 12.5603 26.3166 12.6457 26.3166 12.7312C26.3451 12.9021 26.4021 13.0445 26.4021 13.2153C26.4305 13.4147 26.4305 13.6141 26.4305 13.8419C26.4305 13.9558 26.4305 14.0413 26.4305 14.1552C26.4305 14.2691 26.4021 14.3546 26.3736 14.44C26.3736 14.497 26.3736 14.5824 26.3736 14.6394C26.3736 14.7248 26.3166 14.8103 26.3166 14.8672C26.2597 15.0666 26.2312 15.2375 26.2027 15.4369C26.1742 15.6077 26.0888 15.7786 26.0603 15.9495C25.9748 16.1774 25.9464 16.4052 25.8894 16.6615C25.8609 16.8324 25.8609 17.0318 25.8324 17.2027C25.804 17.3451 25.7755 17.4875 25.7755 17.6299C25.7755 17.8577 25.8324 18.0571 25.8324 18.285C25.8324 18.6552 25.69 19.0255 25.6046 19.3957C25.5761 19.5096 25.5476 19.5951 25.5192 19.709C26.459 17.8862 26.9717 15.8071 26.9717 13.6141C26.9717 10.9369 26.2027 8.45902 24.8641 6.37991C24.2945 5.497 23.6394 4.67105 22.8704 3.95903C20.4495 1.59511 17.1173 0.142578 13.4717 0.142578C13.1869 0.142578 12.8736 0.142578 12.5888 0.171059C10.823 0.171059 9.11411 0.626754 7.57614 1.36726Z" fill="url(#paint14_linear_37_2513)"/>
<path opacity="0.3" fill-rule="evenodd" clip-rule="evenodd" d="M8.74349 23.7818C8.48716 23.6109 8.23083 23.4685 7.94602 23.2976C7.66121 23.1267 7.3764 23.0413 7.06311 22.8989C6.83526 22.8134 6.80678 22.8134 6.63589 22.9558C6.46501 23.0983 6.26564 23.1267 6.06627 23.1267C5.78146 23.1267 5.46817 23.1552 5.43969 23.5255C5.41121 24.0381 6.15172 24.4653 6.52197 24.6647C6.80678 24.8356 7.12007 24.9495 7.43336 25.0919C7.68969 25.2058 7.9745 25.3483 8.25931 25.3767C8.51564 25.4052 8.65804 25.2913 8.82893 25.1204C9.0283 24.8926 8.99981 24.6932 8.99981 24.4369C8.99981 24.0951 8.99981 23.8672 8.74349 23.7818Z" fill="url(#paint15_linear_37_2513)"/>
<path opacity="0.3" fill-rule="evenodd" clip-rule="evenodd" d="M4.72762 4.89865C4.52825 5.29739 4.38585 5.83852 4.07256 6.1803C3.90168 6.35118 3.78775 6.37966 3.5599 6.37966C3.44598 6.37966 3.24661 6.40814 3.13269 6.37966C2.99029 6.3227 2.99029 6.15182 2.99029 6.00941C3.01877 5.46827 3.36054 4.9841 3.70231 4.61384C3.93016 4.35751 4.27193 4.0727 4.64218 4.12966C4.75611 4.38599 4.78458 4.64232 4.72762 4.89865Z" fill="url(#paint16_linear_37_2513)"/>
<path fill-rule="evenodd" clip-rule="evenodd" d="M12.1614 26.1458C12.1898 26.2027 12.2468 26.2312 12.2183 26.2882C12.1898 26.3166 12.1329 26.3451 12.1044 26.3451C12.0474 26.3736 11.9335 26.3451 11.8765 26.3167C11.8196 26.2882 11.8481 26.2312 11.8765 26.1742C11.9335 26.0888 12.0189 26.0603 12.1044 26.1173L12.1614 26.1458Z" fill="#FFFF45"/>
<path fill-rule="evenodd" clip-rule="evenodd" d="M20.9905 3.50317C21.1329 3.56014 21.1899 3.56014 21.3323 3.67406C21.4462 3.7595 21.5601 3.84495 21.674 3.95887C21.8165 4.10127 21.8734 4.24368 21.9019 4.38608C21.9589 4.52849 21.9873 4.69937 21.9304 4.78482C21.9019 4.8133 21.8165 4.8133 21.731 4.8133C21.6171 4.78482 21.5032 4.69937 21.3892 4.64241C21.2468 4.55697 21.1329 4.41456 21.019 4.27216C20.9335 4.15824 20.9051 4.04431 20.8481 3.93039C20.8196 3.84495 20.7911 3.78798 20.7627 3.73102C20.7342 3.67406 20.7342 3.6171 20.7627 3.58862C20.7911 3.50317 20.8196 3.50317 20.9905 3.50317Z" fill="#FFFF45"/>
<path fill-rule="evenodd" clip-rule="evenodd" d="M19.3956 3.24684C19.4525 3.3038 19.5664 3.38924 19.481 3.44621C19.4525 3.47469 19.424 3.44621 19.3956 3.47469C19.3671 3.47469 19.3671 3.50317 19.3386 3.47469C19.2531 3.47469 19.2816 3.21836 19.3956 3.24684Z" fill="#FFFF45"/>
<path fill-rule="evenodd" clip-rule="evenodd" d="M18.9685 4.10123C18.94 4.07275 18.8831 4.07275 18.8546 4.07275C18.8546 4.12972 18.7976 4.21516 18.8831 4.27212C18.94 4.3006 18.9115 4.18668 18.94 4.18668L18.9685 4.10123Z" fill="#FFFF45"/>
<path fill-rule="evenodd" clip-rule="evenodd" d="M18.1423 4.10117C18.0569 4.12965 17.9999 4.15813 17.9145 4.18661C17.886 4.15813 17.8575 4.15813 17.829 4.15813C17.8006 4.12965 17.7721 4.07269 17.7436 4.04421C17.7151 3.98725 17.7436 3.93028 17.7721 3.87332C17.8006 3.84484 17.8006 3.78788 17.829 3.7594C17.8575 3.73092 17.943 3.73092 17.9714 3.7594C18.0284 3.78788 18.0569 3.81636 18.0854 3.87332C18.1139 3.9018 18.1423 3.98725 18.1423 4.01573C18.1423 4.07269 18.1139 4.12965 18.0569 4.15813L18.1423 4.10117Z" fill="#FFFF45"/>
<path fill-rule="evenodd" clip-rule="evenodd" d="M17.459 19.7088C17.3735 19.7373 17.3166 19.7658 17.2311 19.7943C17.2027 19.7658 17.1742 19.7658 17.1457 19.7658C17.1172 19.7373 17.0887 19.6804 17.0603 19.6519C17.0318 19.5949 17.0603 19.538 17.0887 19.481C17.1172 19.4525 17.1172 19.3955 17.1457 19.3671C17.1742 19.3386 17.2596 19.3386 17.2881 19.3671C17.3451 19.3955 17.3735 19.424 17.402 19.481C17.4305 19.5095 17.459 19.5949 17.459 19.6234C17.459 19.6804 17.4305 19.7373 17.3735 19.7658L17.459 19.7088Z" fill="#FFFF45"/>
<path fill-rule="evenodd" clip-rule="evenodd" d="M20.3355 4.84196C20.3639 4.87044 20.3924 4.89892 20.4209 4.9274C20.3924 4.95588 20.3639 5.01284 20.307 5.01284C20.2785 5.01284 20.25 5.01284 20.25 5.01284C20.2215 4.98436 20.25 4.95588 20.2215 4.95588C20.1931 4.89892 20.1931 4.89892 20.2215 4.84196C20.25 4.81348 20.25 4.81348 20.2785 4.81348C20.307 4.81348 20.3355 4.81348 20.3639 4.84196H20.3355Z" fill="#FFFF45"/>
<path fill-rule="evenodd" clip-rule="evenodd" d="M20.1646 6.06665C20.1646 6.06665 20.2216 6.23754 20.1646 6.18057C20.1077 6.15209 20.1077 6.09513 20.1646 6.06665C20.1361 6.06665 20.1361 6.06665 20.1646 6.06665Z" fill="#FFFF45"/>
<path fill-rule="evenodd" clip-rule="evenodd" d="M21.2754 8.11713C21.3324 8.17409 21.3324 8.20257 21.3608 8.28802C21.3324 8.3165 21.3039 8.3165 21.2754 8.3165C21.2184 8.3165 21.2184 8.28802 21.2184 8.25953C21.2184 8.23105 21.19 8.20257 21.2184 8.17409C21.2184 8.11713 21.2469 8.08865 21.2754 8.11713Z" fill="#FFFF45"/>
<path fill-rule="evenodd" clip-rule="evenodd" d="M19.5664 4.98421C19.5379 5.01269 19.5094 5.04117 19.5094 5.06965C19.5379 5.06965 19.5664 5.04117 19.5664 5.01269C19.5664 4.95573 19.5664 4.98421 19.5379 4.92725L19.5664 4.98421Z" fill="#FFFF45"/>
<path fill-rule="evenodd" clip-rule="evenodd" d="M19.9651 3.38928C19.9936 3.41776 20.0221 3.44624 20.0505 3.47472C20.0221 3.5032 20.0505 3.53168 19.9936 3.53168C19.9651 3.53168 19.9366 3.5032 19.9081 3.47472C19.8797 3.44624 19.8797 3.41776 19.8797 3.38928C19.8797 3.3608 19.8797 3.30384 19.9081 3.3608L19.9651 3.38928Z" fill="#FFFF45"/>
<path fill-rule="evenodd" clip-rule="evenodd" d="M14.7817 2.56322C14.7817 2.53474 14.7533 2.47778 14.7533 2.4493L14.7248 2.42082C14.6963 2.39233 14.6963 2.39233 14.6678 2.39233C14.6393 2.39233 14.6109 2.39233 14.5539 2.42082C14.44 2.50626 14.7248 2.5917 14.7533 2.50626L14.7817 2.56322Z" fill="#FFFF45"/>
<path fill-rule="evenodd" clip-rule="evenodd" d="M13.8132 2.93366C13.8416 2.99062 13.8701 3.07606 13.8132 3.13302C13.7562 3.1615 13.6423 3.10454 13.6138 3.07606C13.5284 3.0191 13.4429 2.8767 13.5284 2.79125C13.5568 2.73429 13.6992 2.70581 13.7562 2.70581C13.8986 2.70581 13.9271 2.8767 13.9556 3.0191L13.8132 2.93366Z" fill="#FFFF45"/>
<path fill-rule="evenodd" clip-rule="evenodd" d="M13.3861 1.59504C13.4146 1.48112 13.4145 1.36719 13.3291 1.31023C13.2721 1.28175 13.1867 1.25327 13.1297 1.31023C13.1013 1.33871 13.0728 1.39567 13.0443 1.42416C13.0158 1.48112 13.0158 1.48112 13.0443 1.53808C13.0728 1.652 13.1013 1.73745 13.2437 1.73745C13.4146 1.73745 13.4146 1.62352 13.4146 1.45264V1.59504H13.3861Z" fill="#FFFF45"/>
<path fill-rule="evenodd" clip-rule="evenodd" d="M11.9336 3.58865C11.8482 3.56017 11.7627 3.53169 11.7057 3.44625C11.7627 3.41777 11.9051 3.33232 11.9336 3.44625V3.58865Z" fill="#FFFF45"/>
<path fill-rule="evenodd" clip-rule="evenodd" d="M16.9463 21.5318C16.8608 21.5033 16.7754 21.4748 16.7184 21.3894C16.7754 21.3609 16.9178 21.2754 16.9463 21.3894V21.5318Z" fill="#FFC445"/>
<path fill-rule="evenodd" clip-rule="evenodd" d="M7.68994 23.4683C7.6045 23.4398 7.51905 23.4113 7.46209 23.3259C7.51905 23.2974 7.66146 23.212 7.68994 23.3259V23.4683Z" fill="#FFC445"/>
<path fill-rule="evenodd" clip-rule="evenodd" d="M10.8227 5.32598C10.7372 5.21205 10.6233 5.04117 10.4524 5.12661C10.367 5.18357 10.3385 5.35446 10.4239 5.41142C10.5094 5.46838 10.5663 5.49686 10.6802 5.52534C10.7372 5.55382 10.8511 5.49686 10.8227 5.38294V5.32598Z" fill="#FFFF45"/>
<path fill-rule="evenodd" clip-rule="evenodd" d="M16.8322 7.80376C16.7467 7.68983 16.6328 7.51895 16.4619 7.60439C16.3765 7.66135 16.348 7.83224 16.4334 7.8892C16.5189 7.94616 16.5758 7.97464 16.6898 8.00313C16.7467 8.03161 16.8607 7.97464 16.8322 7.86072V7.80376Z" fill="#FFC445"/>
<path fill-rule="evenodd" clip-rule="evenodd" d="M6.86391 3.38921C6.77847 3.27528 6.66454 3.1044 6.49366 3.18984C6.40822 3.2468 6.37974 3.41769 6.46518 3.47465C6.55062 3.53161 6.60758 3.56009 6.72151 3.58857C6.77847 3.61706 6.89239 3.56009 6.86391 3.44617V3.38921Z" fill="#FFC445"/>
<path fill-rule="evenodd" clip-rule="evenodd" d="M12.4462 12.5884C12.3607 12.4745 12.2468 12.3036 12.0759 12.3891C11.9905 12.446 11.962 12.6169 12.0475 12.6739C12.1329 12.7308 12.1899 12.7593 12.3038 12.7878C12.3607 12.8163 12.4747 12.7593 12.4462 12.6454V12.5884Z" fill="#FFC445"/>
<path fill-rule="evenodd" clip-rule="evenodd" d="M17.3166 4.07284C17.4305 4.12981 17.6014 4.21525 17.6299 4.38613C17.6299 4.47158 17.6014 4.52854 17.516 4.55702C17.459 4.5855 17.3451 4.5855 17.2596 4.55702C17.1457 4.50006 17.0318 4.41462 17.0033 4.32917C16.9748 4.24373 16.9748 4.18677 17.0033 4.12981C17.0318 4.10132 17.0603 4.04436 17.1172 4.01588C17.2596 3.95892 17.3451 4.10133 17.459 4.15829L17.3166 4.07284Z" fill="#FFFF45"/>
<path fill-rule="evenodd" clip-rule="evenodd" d="M16.9747 3.67394C16.9177 3.70242 16.8608 3.7309 16.8323 3.78786C16.8893 3.81634 16.9462 3.84482 17.0032 3.84482C17.0886 3.81634 17.0886 3.7309 17.0886 3.67394C17.0886 3.64546 17.0032 3.56002 16.9747 3.5885C16.9462 3.5885 16.9462 3.61698 16.9462 3.64546C16.9177 3.67394 16.9177 3.67394 16.9462 3.7309H16.9747V3.67394Z" fill="#FFFF45"/>
<path fill-rule="evenodd" clip-rule="evenodd" d="M22.9842 6.1805C23.0981 6.29442 23.2121 6.40835 23.269 6.55075C23.2975 6.63619 23.2406 6.63619 23.1836 6.60771C23.0412 6.57923 22.9273 6.55075 22.7849 6.52227C22.6994 6.49379 22.5855 6.46531 22.557 6.40835C22.5285 6.35138 22.5001 6.26594 22.5001 6.20898C22.5001 6.12354 22.5855 6.09506 22.6425 6.06658C22.8133 6.00961 23.0697 6.12354 23.1266 6.29442L22.9842 6.1805Z" fill="#FFFF45"/>
<path fill-rule="evenodd" clip-rule="evenodd" d="M22.8988 6.7785C22.8133 6.7785 22.7279 6.80698 22.6424 6.83546C22.6709 6.86394 22.6709 6.89243 22.6709 6.92091C22.6994 6.97787 22.7279 7.00635 22.7848 7.03483C22.8703 7.09179 22.9842 7.09179 23.0696 7.06331C23.326 6.97787 22.9272 6.69306 22.8703 6.7785H22.8988Z" fill="#FFFF45"/>
<path fill-rule="evenodd" clip-rule="evenodd" d="M15.1803 1.36701C15.0948 1.31005 15.0094 1.28157 14.924 1.25309C14.81 1.22461 14.6961 1.22461 14.5822 1.22461C14.5252 1.22461 14.3828 1.22461 14.4398 1.31005C14.4683 1.42398 14.6961 1.50942 14.7816 1.5379C14.924 1.59486 15.0664 1.68031 15.2373 1.70879C15.3227 1.70879 15.4651 1.73727 15.5221 1.65182C15.5505 1.56638 15.5505 1.50942 15.4936 1.45246C15.4651 1.39549 15.4081 1.36701 15.3227 1.33853C15.2942 1.33853 15.0948 1.28157 15.0948 1.33853L15.1803 1.36701Z" fill="#FFFF45"/>
<path fill-rule="evenodd" clip-rule="evenodd" d="M16.69 1.39575C16.7184 1.42423 17.0317 1.59512 16.8893 1.68056C16.8039 1.70904 16.6615 1.70904 16.576 1.68056C16.5191 1.65208 16.4336 1.59512 16.4906 1.50968C16.576 1.33879 16.8039 1.45271 16.9178 1.50968L16.69 1.39575Z" fill="#FFFF45"/>
<path fill-rule="evenodd" clip-rule="evenodd" d="M20.9336 12.5601C20.9051 12.674 20.8766 12.8164 20.7627 12.9018C20.6488 12.9873 20.5064 12.9588 20.4209 12.8734C20.3355 12.8164 20.25 12.7594 20.1931 12.731C20.1361 12.7025 20.1076 12.7025 20.1076 12.617C20.1076 12.5316 20.1646 12.4461 20.2216 12.3892C20.2785 12.3322 20.364 12.2468 20.4494 12.2183C20.6203 12.1613 20.9336 12.2183 20.9336 12.4461V12.5601Z" fill="#FFD32F"/>
<path fill-rule="evenodd" clip-rule="evenodd" d="M11.25 12.7024C11.2215 12.8163 11.193 12.9587 11.0791 13.0442C10.9652 13.1296 10.8228 13.1011 10.7373 13.0157C10.6519 12.9587 10.5665 12.9018 10.5095 12.8733C10.4525 12.8448 10.4241 12.8448 10.4241 12.7594C10.4241 12.6739 10.481 12.5885 10.538 12.5315C10.5949 12.4746 10.6804 12.3891 10.7658 12.3606C10.9367 12.3037 11.25 12.3606 11.25 12.5885V12.7024Z" fill="#FFBA00"/>
<path fill-rule="evenodd" clip-rule="evenodd" d="M25.0348 17.573C25.0348 17.573 25.1487 18.0572 24.8069 18.6838C24.4651 19.3103 24.2088 19.2534 24.2088 19.2534C24.2088 19.2534 24.5221 18.1141 25.0348 17.573Z" fill="#FFFF59"/>
<path fill-rule="evenodd" clip-rule="evenodd" d="M3.01891 10.9368C3.01891 10.9368 3.41765 12.076 3.47461 12.2469C3.47461 12.2184 2.84803 12.0475 3.01891 10.9368Z" fill="#FFFF59"/>
<path fill-rule="evenodd" clip-rule="evenodd" d="M0.882844 11.2783C0.882844 11.2783 1.16765 11.4777 1.31006 12.0188C1.31006 12.0188 0.968287 12.1897 0.882844 11.2783Z" fill="#FFFF59"/>
<path fill-rule="evenodd" clip-rule="evenodd" d="M5.24023 21.8736C5.24023 21.8736 3.95859 21.0477 3.21809 20.9907C3.21809 20.9907 4.07251 22.016 5.24023 21.8736Z" fill="#FFFF59"/>
<defs>
<radialGradient id="paint0_radial_37_2513" cx="0" cy="0" r="1" gradientUnits="userSpaceOnUse" gradientTransform="translate(21.8415 7.19846) rotate(180) scale(21.6746 21.6746)">
<stop offset="0.00558659" stop-color="#FFB80B"/>
<stop offset="0.258" stop-color="#FFB60C"/>
<stop offset="0.384" stop-color="#FEAE10"/>
<stop offset="0.4821" stop-color="#FCA117"/>
<stop offset="0.5656" stop-color="#FA8E21"/>
<stop offset="0.6392" stop-color="#F7762E"/>
<stop offset="0.662" stop-color="#F66D33"/>
<stop offset="0.7209" stop-color="#EF6836"/>
<stop offset="0.8061" stop-color="#DC593D"/>
<stop offset="0.9068" stop-color="#BD4049"/>
<stop offset="0.9832" stop-color="#A02A54"/>
</radialGradient>
<linearGradient id="paint1_linear_37_2513" x1="25.8479" y1="17.4791" x2="19.3147" y2="17.4791" gradientUnits="userSpaceOnUse">
<stop offset="0.0111732" stop-color="#FFA90B"/>
<stop offset="0.3713" stop-color="#FFA60E"/>
<stop offset="0.6354" stop-color="#FF9D16"/>
<stop offset="0.868" stop-color="#FF8D25"/>
<stop offset="1" stop-color="#FF8031"/>
</linearGradient>
<linearGradient id="paint2_linear_37_2513" x1="25.6176" y1="17.479" x2="19.6599" y2="17.479" gradientUnits="userSpaceOnUse">
<stop offset="0.0111732" stop-color="#FFE00B"/>
<stop offset="0.3061" stop-color="#FFDD0D"/>
<stop offset="0.5224" stop-color="#FFD412"/>
<stop offset="0.7136" stop-color="#FFC41B"/>
<stop offset="0.8891" stop-color="#FFAD27"/>
<stop offset="1" stop-color="#FF9B31"/>
</linearGradient>
<linearGradient id="paint3_linear_37_2513" x1="24.9627" y1="9.68244" x2="22.3615" y2="9.59994" gradientUnits="userSpaceOnUse">
<stop offset="0.0111732" stop-color="#FFA90B"/>
<stop offset="0.3713" stop-color="#FFA60E"/>
<stop offset="0.6354" stop-color="#FF9D16"/>
<stop offset="0.868" stop-color="#FF8D25"/>
<stop offset="1" stop-color="#FF8031"/>
</linearGradient>
<linearGradient id="paint4_linear_37_2513" x1="24.8023" y1="9.67712" x2="22.5272" y2="9.60497" gradientUnits="userSpaceOnUse">
<stop offset="0.0111732" stop-color="#FFE00B"/>
<stop offset="0.3061" stop-color="#FFDD0D"/>
<stop offset="0.5224" stop-color="#FFD412"/>
<stop offset="0.7136" stop-color="#FFC41B"/>
<stop offset="0.8891" stop-color="#FFAD27"/>
<stop offset="1" stop-color="#FF9B31"/>
</linearGradient>
<linearGradient id="paint5_linear_37_2513" x1="3.46685" y1="22.1066" x2="3.46685" y2="12.8504" gradientUnits="userSpaceOnUse">
<stop offset="0.0111732" stop-color="#FF8E0B"/>
<stop offset="0.3475" stop-color="#FD8B0D"/>
<stop offset="0.5941" stop-color="#F98215"/>
<stop offset="0.8113" stop-color="#F17221"/>
<stop offset="1" stop-color="#E65D31"/>
</linearGradient>
<linearGradient id="paint6_linear_37_2513" x1="6.19347" y1="17.4783" x2="0.745599" y2="17.4783" gradientUnits="userSpaceOnUse">
<stop offset="0.0111732" stop-color="#FFE00B"/>
<stop offset="0.3061" stop-color="#FFDD0D"/>
<stop offset="0.5224" stop-color="#FFD412"/>
<stop offset="0.7136" stop-color="#FFC41B"/>
<stop offset="0.8891" stop-color="#FFAD27"/>
<stop offset="1" stop-color="#FF9B31"/>
</linearGradient>
<linearGradient id="paint7_linear_37_2513" x1="1.72467" y1="12.6348" x2="1.72467" y2="9.06245" gradientUnits="userSpaceOnUse">
<stop offset="0.0111732" stop-color="#FFA90B"/>
<stop offset="0.3713" stop-color="#FFA60E"/>
<stop offset="0.6354" stop-color="#FF9D16"/>
<stop offset="0.868" stop-color="#FF8D25"/>
<stop offset="1" stop-color="#FF8031"/>
</linearGradient>
<linearGradient id="paint8_linear_37_2513" x1="1.7265" y1="12.4004" x2="1.7265" y2="9.2963" gradientUnits="userSpaceOnUse">
<stop offset="0.0111732" stop-color="#FFE00B"/>
<stop offset="0.3061" stop-color="#FFDD0D"/>
<stop offset="0.5224" stop-color="#FFD412"/>
<stop offset="0.7136" stop-color="#FFC41B"/>
<stop offset="0.8891" stop-color="#FFAD27"/>
<stop offset="1" stop-color="#FF9B31"/>
</linearGradient>
<linearGradient id="paint9_linear_37_2513" x1="12.8236" y1="26.8304" x2="12.8236" y2="24.7494" gradientUnits="userSpaceOnUse">
<stop offset="0.0111732" stop-color="#FFA90B"/>
<stop offset="0.3713" stop-color="#FFA60E"/>
<stop offset="0.6354" stop-color="#FF9D16"/>
<stop offset="0.868" stop-color="#FF8D25"/>
<stop offset="1" stop-color="#FF8031"/>
</linearGradient>
<linearGradient id="paint10_linear_37_2513" x1="12.8241" y1="26.5962" x2="12.8241" y2="24.9832" gradientUnits="userSpaceOnUse">
<stop offset="0.0111732" stop-color="#FFE00B"/>
<stop offset="0.3061" stop-color="#FFDD0D"/>
<stop offset="0.5224" stop-color="#FFD412"/>
<stop offset="0.7136" stop-color="#FFC41B"/>
<stop offset="0.8891" stop-color="#FFAD27"/>
<stop offset="1" stop-color="#FF9B31"/>
</linearGradient>
<linearGradient id="paint11_linear_37_2513" x1="6.29948" y1="13.7021" x2="5.13211" y2="4.90918" gradientUnits="userSpaceOnUse">
<stop offset="0.0111732" stop-color="#FFA90B"/>
<stop offset="0.3713" stop-color="#FFA60E"/>
<stop offset="0.6354" stop-color="#FF9D16"/>
<stop offset="0.868" stop-color="#FF8D25"/>
<stop offset="1" stop-color="#FF8031"/>
</linearGradient>
<linearGradient id="paint12_linear_37_2513" x1="6.26919" y1="13.4704" x2="5.16338" y2="5.1412" gradientUnits="userSpaceOnUse">
<stop offset="0.0111732" stop-color="#FFE00B"/>
<stop offset="0.3061" stop-color="#FFDD0D"/>
<stop offset="0.5224" stop-color="#FFD412"/>
<stop offset="0.7136" stop-color="#FFC41B"/>
<stop offset="0.8891" stop-color="#FFAD27"/>
<stop offset="1" stop-color="#FF9B31"/>
</linearGradient>
<linearGradient id="paint13_linear_37_2513" x1="26.9778" y1="12.5701" x2="6.22533" y2="12.5701" gradientUnits="userSpaceOnUse">
<stop offset="0.0111732" stop-color="#FFE00B"/>
<stop offset="0.3061" stop-color="#FFDD0D"/>
<stop offset="0.5224" stop-color="#FFD412"/>
<stop offset="0.7136" stop-color="#F67C27"/>
<stop offset="0.8891" stop-color="#ED6930"/>
<stop offset="1" stop-color="#E76332"/>
</linearGradient>
<linearGradient id="paint14_linear_37_2513" x1="26.9778" y1="9.80754" x2="7.56811" y2="9.80754" gradientUnits="userSpaceOnUse">
<stop offset="0.0111732" stop-color="#FFE00B"/>
<stop offset="0.3061" stop-color="#FFDD0D"/>
<stop offset="0.5224" stop-color="#FFD412"/>
<stop offset="0.7136" stop-color="#FFC41B"/>
<stop offset="0.8891" stop-color="#FFAD27"/>
<stop offset="1" stop-color="#FF9B31"/>
</linearGradient>
<linearGradient id="paint15_linear_37_2513" x1="8.99033" y1="24.1081" x2="5.43115" y2="24.1081" gradientUnits="userSpaceOnUse">
<stop offset="0.0111732" stop-color="#FFE00B"/>
<stop offset="0.3061" stop-color="#FFDD0D"/>
<stop offset="0.5224" stop-color="#FFD412"/>
<stop offset="0.7136" stop-color="#FFC41B"/>
<stop offset="0.8891" stop-color="#FFAD27"/>
<stop offset="1" stop-color="#FF9B31"/>
</linearGradient>
<linearGradient id="paint16_linear_37_2513" x1="4.76428" y1="5.26945" x2="3.01256" y2="5.26945" gradientUnits="userSpaceOnUse">
<stop offset="0.0111732" stop-color="#FFE00B"/>
<stop offset="0.3061" stop-color="#FFDD0D"/>
<stop offset="0.5224" stop-color="#FFD412"/>
<stop offset="0.7136" stop-color="#FFC41B"/>
<stop offset="0.8891" stop-color="#FFAD27"/>
<stop offset="1" stop-color="#FF9B31"/>
</linearGradient>
</defs>
</svg>
