<svg width="57" height="57" viewBox="0 0 57 57" fill="none" xmlns="http://www.w3.org/2000/svg">
<g clip-path="url(#clip0_37_2630)">
<path d="M28.5 57C44.2401 57 57 44.2401 57 28.5C57 12.7599 44.2401 0 28.5 0C12.7599 0 0 12.7599 0 28.5C0 44.2401 12.7599 57 28.5 57Z" fill="url(#paint0_linear_37_2630)"/>
<g style="mix-blend-mode:multiply">
<path d="M18.0876 27.7113C18.1226 27.7463 18.1576 27.7797 18.1939 27.8117C18.7225 28.1893 19.3189 28.3763 19.9215 28.3534C20.3035 28.4376 20.6962 28.3495 21.0347 28.1038C21.2326 27.8525 21.3725 27.534 21.4385 27.1844C21.5046 26.8348 21.4942 26.4681 21.4085 26.1258C21.2283 25.4428 21.119 24.7315 21.0837 24.0108C21.252 22.9178 21.6986 21.9308 22.3511 21.2095C22.9291 20.4527 23.2955 19.4653 23.3919 18.4052C23.4269 17.5288 22.8078 16.4986 23.0239 15.6755C23.1536 15.184 23.6197 14.9588 23.8883 14.5586C24.435 13.7415 23.9678 12.439 23.2155 11.9111C22.4114 11.484 21.5525 11.2589 20.6842 11.2477C20.3472 11.2514 20.0139 11.1566 19.7089 10.9701C19.4038 10.7837 19.1348 10.5103 18.9216 10.1704C18.8305 9.87704 18.7195 9.59493 18.5898 9.32739C18.1401 8.6442 17.2115 9.02307 16.6777 9.61193C14.9851 11.4728 12.441 12.2397 10.8746 9.53129C10.6585 9.15698 10.4622 8.7142 10.1305 8.54531C9.64575 8.30033 9.13176 8.7492 8.72176 9.17525C6.39842 11.59 4.07743 12.5867 3.30882 16.8091C3.00286 18.4244 3.02825 20.1161 3.38241 21.7147C3.65226 22.6051 3.87051 23.5206 4.03537 24.4535C4.13816 25.3665 4.02252 26.316 4.18956 27.2137C4.3566 28.1114 4.97452 28.9864 5.65202 28.7809C6.61453 28.4873 6.83529 26.6872 7.65529 26.0573C8.30359 25.5582 10.1013 25.1717 10.5755 26.1836C10.7331 26.7432 10.7702 27.3483 10.683 27.9334C10.6835 28.4676 10.7901 28.9925 10.9923 29.4572C11.1945 29.9219 11.4855 30.3106 11.8371 30.5856C12.0847 30.7712 12.3791 30.9188 12.5076 31.2581C12.5589 31.4589 12.5728 31.6728 12.5483 31.8821C12.5237 32.0913 12.4613 32.29 12.3662 32.4617C11.8009 33.7824 10.7075 34.2313 10.1305 35.4531C9.19603 37.4312 9.9471 40.0924 11.065 41.9016C12.1828 43.7108 13.6581 45.1776 14.4232 47.285C14.7141 48.3657 15.0691 49.4152 15.485 50.424C15.6977 50.9164 16.0368 51.2954 16.4426 51.4946C16.8484 51.6939 17.2952 51.7005 17.7044 51.5135C18.7557 50.7862 18.5221 48.7549 18.6179 47.1815C18.8316 43.7717 21.2916 41.1332 21.3956 37.7157C21.4578 37.0562 21.355 36.3882 21.1025 35.8109C20.8499 35.2336 20.4612 34.7778 19.9939 34.5112C19.5267 34.3439 18.9344 34.4002 18.6915 33.8493C18.5384 33.5055 18.6039 33.0673 18.5268 32.6823C18.3048 31.5776 16.2338 30.8655 15.4558 30.7423C15.0762 30.6814 14.6382 30.6205 14.4314 30.1884C14.3146 29.9313 14.3076 29.595 14.1768 29.347C13.935 28.8905 13.3673 28.9118 13.1407 28.4431C13.0497 28.212 13.0123 27.9513 13.0332 27.693C13.0519 26.357 13.7061 25.1535 14.7982 25.7149C15.1358 25.95 15.4944 26.1299 15.8658 26.2505C16.1298 26.2962 16.402 26.2277 16.6636 26.2977C17.2547 26.4529 17.6063 27.2274 18.0876 27.7113Z" fill="#FFD885"/>
</g>
<g style="mix-blend-mode:multiply">
<path d="M42.2579 8.27886C41.5753 8.1097 40.877 8.07635 40.1868 8.17995C39.7937 8.27442 39.3951 8.32533 38.9954 8.33212C38.6241 8.27931 38.2558 8.19543 37.8927 8.08105C35.9852 7.64587 35.3427 8.85401 34.0286 10.018C32.8267 11.0831 31.3046 10.3589 30.0244 11.1668C29.4816 11.501 29.0491 12.0783 28.8061 12.7934C28.5035 13.7764 28.9532 14.5296 28.6647 15.4379C28.4547 15.8955 28.315 16.402 28.2536 16.9291C28.2805 17.1524 28.2805 17.3798 28.2536 17.6032C28.1876 17.8046 28.0764 17.9754 27.9347 18.0931C27.1824 18.8387 26.1755 19.5478 26.1498 20.7787C26.1393 21.3098 26.3309 21.8149 26.3566 22.3445C26.3986 23.2315 25.9816 24.1704 26.2807 24.9707C26.4041 25.233 26.5742 25.4527 26.7764 25.6116C26.9787 25.7705 27.2072 25.8638 27.4429 25.8837C28.277 25.9595 29.1142 25.8098 29.9018 25.4439C30.6213 25.1792 31.4436 24.7927 31.6761 23.8676C31.891 23.0185 31.5149 21.9747 31.9097 21.2428C32.4389 20.266 34.6162 19.7943 34.5531 21.6263C34.5403 22.0006 34.4024 22.3871 34.5122 22.734C34.6049 22.9451 34.7278 23.131 34.8743 23.2817C35.1023 23.5977 35.2463 24.0008 35.285 24.4315C35.3237 24.8622 35.255 25.2976 35.0892 25.6737C34.0228 27.9713 31.3712 28.1828 30.4846 30.9079C29.3574 34.3726 30.1541 41.3293 32.8068 43.4717C32.958 43.5707 33.0926 43.7077 33.2028 43.875C33.327 44.1873 33.3558 44.5494 33.2834 44.8883C33.1191 46.3085 32.9548 47.7251 32.7905 49.1381C32.711 49.8168 32.6806 50.6491 33.1163 51.0355C33.3161 51.1554 33.5347 51.2123 33.7545 51.2017C33.9742 51.1912 34.189 51.1134 34.3814 50.9747C36.5616 50.0161 38.5125 48.3344 40.042 46.095C41.6633 43.7943 41.7719 41.8847 42.7707 39.225C43.1316 38.2648 43.8675 37.6029 44.2004 36.6261C44.4672 35.5562 44.4819 34.4066 44.2424 33.3258L43.8605 30.6295C43.8251 29.9006 43.5813 29.2155 43.1772 28.7093C42.773 28.3258 42.1527 28.268 41.9402 27.6791C41.856 27.4479 41.8572 27.1755 41.7661 26.9488C41.6084 26.5547 41.2358 26.4223 40.9309 26.2245C40.2487 25.7847 40.4427 24.919 40.6517 24.1734C40.7752 23.6664 41.0112 23.2184 41.3299 22.8859C41.6485 22.5534 42.0357 22.3512 42.4424 22.3049C43.8698 22.2927 44.5695 24.5873 45.7925 25.5474C46.3715 25.9388 47.0021 26.184 47.651 26.2701C50.1332 26.8042 53.3221 27.7126 55.6174 25.6874C55.9396 25.3582 56.1683 24.8984 56.2671 24.3807C56.3659 23.8631 56.3292 23.3173 56.1629 22.8298C55.4503 20.1275 53.2952 18.6713 52.2988 16.1972C51.7521 14.84 51.7767 14.1218 50.7803 13.2469C49.534 12.2903 48.247 11.4267 46.9256 10.6602C45.4666 9.57561 43.8942 8.77343 42.2579 8.27886Z" fill="#FFD885"/>
</g>
<g style="mix-blend-mode:multiply" opacity="0.2">
<path d="M32.3745 54.0574C26.6084 54.063 20.9769 52.314 16.2275 49.0425C11.4781 45.7709 7.83528 41.1315 5.78257 35.74C3.72986 30.3486 3.36431 24.46 4.73444 18.8558C6.10456 13.2516 9.1456 8.19681 13.4539 4.3623C10.0988 6.44341 7.21348 9.20064 4.98161 12.4585C2.74973 15.7164 1.22015 19.4035 0.490291 23.2852C-0.239571 27.1668 -0.153742 31.158 0.742287 35.0047C1.63832 38.8514 3.32492 42.4693 5.69476 45.6281C8.0646 48.7869 11.0658 51.4174 14.5072 53.3522C17.9487 55.287 21.755 56.4837 25.6839 56.8661C29.6128 57.2485 33.5783 56.8083 37.3279 55.5734C41.0775 54.3386 44.529 52.3361 47.4629 49.6935C42.9463 52.5448 37.7149 54.0578 32.3745 54.0574Z" fill="#222226"/>
</g>
<g style="mix-blend-mode:overlay" opacity="0.2">
<path d="M28.544 3.79347e-05C25.7064 -0.00104239 22.8848 0.422596 20.1725 1.25688C17.1309 3.34836 14.5662 6.06048 12.6472 9.21484C10.7282 12.3692 9.4984 15.8943 9.03864 19.5584C8.57887 23.2224 8.89956 26.9423 9.97965 30.4734C11.0597 34.0046 12.8748 37.2669 15.3053 40.0458C17.7358 42.8247 20.7268 45.0573 24.0815 46.5967C27.4362 48.136 31.0786 48.9473 34.7691 48.9772C38.4596 49.007 42.1146 48.2548 45.4938 46.7698C48.8729 45.2849 51.8996 43.101 54.3747 40.3618C56.3789 36.0268 57.2592 31.2564 56.9343 26.4912C56.6093 21.7259 55.0895 17.1194 52.5153 13.097C49.9411 9.07469 46.3954 5.76622 42.2058 3.47716C38.0161 1.18809 33.3175 -0.00776428 28.544 3.79347e-05Z" fill="white"/>
</g>
</g>
<defs>
<linearGradient id="paint0_linear_37_2630" x1="12.027" y1="8.493" x2="47.88" y2="51.984" gradientUnits="userSpaceOnUse">
<stop stop-color="#7FC8EF"/>
<stop offset="0.891" stop-color="#5895FF"/>
</linearGradient>
<clipPath id="clip0_37_2630">
<rect width="57" height="57" fill="white"/>
</clipPath>
</defs>
</svg>
