<svg width="69" height="69" viewBox="0 0 69 69" fill="none" xmlns="http://www.w3.org/2000/svg">
<g clip-path="url(#clip0_37_2645)">
<path d="M34.4973 68.9946C53.5497 68.9946 68.9946 53.5497 68.9946 34.4973C68.9946 15.445 53.5497 0 34.4973 0C15.445 0 0 15.445 0 34.4973C0 53.5497 15.445 68.9946 34.4973 68.9946Z" fill="url(#paint0_linear_37_2645)"/>
<g style="mix-blend-mode:multiply" opacity="0.2">
<path d="M39.3249 66.8611C31.6521 66.8598 24.1986 64.3015 18.1424 59.5904C12.0862 54.8793 7.77287 48.2842 5.88407 40.8476C3.99527 33.4109 4.63878 25.5568 7.71289 18.5268C10.787 11.4968 16.1164 5.69175 22.8586 2.0293C18.3843 3.63415 14.2898 6.14608 10.8319 9.40757C7.37388 12.6691 4.62701 16.6098 2.76347 20.9827C0.899933 25.3556 -0.0400834 30.0663 0.00235184 34.8195C0.0447871 39.5727 1.06876 44.266 3.01008 48.6049C4.9514 52.9438 7.7682 56.8349 11.2838 60.0341C14.7995 63.2333 18.9382 65.6717 23.4404 67.1965C27.9427 68.7212 32.7114 69.2993 37.4475 68.8946C42.1837 68.4899 46.7851 67.111 50.9634 64.8446C47.229 66.182 43.2916 66.8642 39.3249 66.8611Z" fill="#222226"/>
</g>
<g style="mix-blend-mode:overlay" opacity="0.2">
<path d="M34.4981 0.0108393C29.9486 0.00565488 25.4432 0.903322 21.2431 2.65183C15.832 8.4023 12.5569 15.8347 11.9645 23.7085C11.3721 31.5823 13.4981 39.4211 17.9878 45.9165C22.4776 52.4119 29.0593 57.1709 36.6344 59.3992C44.2095 61.6275 52.3197 61.1902 59.6114 58.1604C64.2305 53.2578 67.3133 47.1102 68.4792 40.4761C69.6452 33.842 68.8433 27.0116 66.1725 20.8279C63.5018 14.6442 59.0791 9.37775 53.4501 5.67836C47.8211 1.97897 41.2321 0.00855425 34.4963 0.010255L34.4981 0.0108393Z" fill="white"/>
</g>
<g style="mix-blend-mode:multiply" opacity="0.8">
<path d="M34.8164 0.0754395C28.3361 0.0754396 23.6232 1.25366 18.6158 3.90467C15.0811 5.37745 10.9573 9.20668 10.1387 10.155C10.3984 11.106 10.9321 11.9287 11.653 12.4897C12.5572 13.2352 13.6187 13.6929 14.7288 13.8159C15.839 13.9388 16.9578 13.7227 17.9706 13.1895C19.3651 12.4317 20.9741 11.0651 22.2446 12.0677C23.0914 12.7356 23.2145 14.1389 23.9374 14.9755C25.0718 16.2883 27.1277 15.5758 28.1973 14.1953C29.267 12.8148 29.7536 10.9714 30.6615 9.44672C32.8903 5.70341 37.2206 4.48792 41.1781 4.21811C42.374 4.13668 43.6189 4.12445 44.7123 4.6827C45.8058 5.24095 46.7048 6.52029 46.5669 7.87893C46.3618 9.90864 44.1102 11.0528 43.9046 13.0831C43.7564 14.5476 44.8051 15.8866 46.0131 16.4092C47.2212 16.9317 48.5551 16.8349 49.8457 16.7849C52.0801 16.6949 54.4179 16.779 56.3899 17.9817C58.3619 19.1844 59.831 21.8198 59.2377 24.2811C58.6816 26.5896 56.5913 27.9642 54.5689 28.5981C52.5466 29.2319 50.3864 29.3931 48.5137 30.4692C46.1148 31.8459 44.4206 34.5957 41.8954 35.6446C40.4794 36.2326 38.9185 36.23 37.4914 36.7829C36.0643 37.3358 34.6856 38.7844 34.8748 40.4922C35.0818 42.3643 37.0486 43.3409 38.6939 43.153C40.3391 42.9652 41.8431 42.0206 43.4618 41.6385C45.9922 41.0398 48.6125 41.8545 51.0212 42.9242C52.4795 43.5713 53.9491 44.3499 55.0001 45.6729C56.0511 46.9959 56.595 48.9883 55.9527 50.6184C55.18 52.5816 53.0658 53.325 51.182 53.4352C49.2981 53.5453 47.3312 53.2638 45.589 54.0897C43.8468 54.9157 42.5376 57.4776 43.6105 59.2486C44.4224 60.5887 46.1008 60.7515 47.5149 60.5259C48.9289 60.3002 50.4017 59.8314 51.7478 60.3753C52.9563 60.8633 54.0148 62.1463 55.2788 61.9015C55.9528 61.6895 56.5581 61.2577 57.0205 60.6589C60.0207 57.4478 63.0674 54.1254 64.8907 49.9175C67.4015 44.1232 67.3041 37.364 67.1526 30.9013C67.0505 26.5268 66.6524 22.2531 64.9405 18.3379C63.4425 14.9091 60.8907 12.2595 58.3809 9.71624C57.1737 8.49224 55.7709 7.40114 54.2571 6.762C52.0166 5.81526 49.8322 5.91042 47.6551 4.78806C45.2138 3.52894 43.1236 1.98859 40.7075 0.664538C38.351 0.0754394 36.2891 0.0754394 34.8164 0.0754395Z" fill="#BA98D3"/>
</g>
<g style="mix-blend-mode:multiply" opacity="0.8">
<path d="M26.7173 22.1744C25.9466 22.4616 25.1461 22.6653 24.33 22.7818C22.7104 22.9985 21.0217 22.7842 19.4655 23.2741C18.3183 23.6354 17.3295 24.354 16.2525 24.8824C11.2618 27.3282 9.72902 21.4672 5.4078 21.1857C3.7935 21.0817 2.53923 21.8811 1.82617 23.3005C1.7362 23.9347 1.23706 25.1129 0.942505 26.5857L0.677959 28.6626C0.615606 29.1499 0.650626 29.6444 0.781085 30.1187C0.973171 30.6692 1.40909 31.0991 1.7362 31.5852C2.9961 33.4573 2.54743 35.9187 2.10514 38.1184C1.66285 40.3181 1.35097 42.8396 2.79055 44.5834C3.43698 45.3665 4.35807 45.8765 5.25648 46.3685C6.33103 46.9578 7.57214 47.5631 8.74025 47.1814C9.51001 46.9294 10.0771 46.2918 10.7869 45.906C11.6019 45.5046 12.5453 45.4319 13.4145 45.7034C14.2837 45.9748 15.0095 46.5688 15.436 47.3579C15.7717 48.1291 15.8971 48.9723 15.7999 49.8051C15.6837 51.3392 15.1734 52.8185 14.9597 54.3422C14.7459 55.8659 14.8753 57.5459 15.8736 58.7343C17.1017 60.197 19.384 60.4951 21.1929 59.825C23.0017 59.1549 24.3956 57.6988 25.4772 56.1297C26.2594 54.995 27.0795 53.6599 28.4542 53.4016C29.4405 53.2165 30.6263 53.6124 31.3632 52.9444C31.8278 52.5235 31.8997 51.8367 31.8948 51.2168C31.877 49.2518 31.434 47.0913 32.5635 45.466C33.8748 43.578 32.2831 40.2207 34.2273 38.9571C34.682 38.6613 37.1612 36.2827 36.5838 35.1278C35.7001 33.3605 33.2198 33.8173 32.1655 33.6551C28.0417 33.6551 28.6308 39.128 26.0712 39.8948C24.2638 40.4363 22.4467 41.1883 20.5635 41.0351C20.0715 40.9949 19.5226 40.8493 19.2908 40.4228C19.1539 40.1054 19.1389 39.7503 19.2486 39.423C19.4252 38.7328 19.7606 38.0912 20.229 37.547C20.6975 37.0028 21.2868 36.5704 21.952 36.2827C22.833 35.9104 23.8303 35.8005 24.643 35.2995C25.4556 34.7986 25.9943 33.6483 25.3897 32.9189C24.9013 32.3295 24.0008 32.3565 23.2314 32.264C22.462 32.1714 21.548 31.6424 21.7163 30.9025C21.7871 30.664 21.9263 30.4503 22.1175 30.2868C23.825 28.646 26.5918 29.063 28.9536 28.6841C31.3674 28.2972 34.1168 26.2681 35.9767 24.8331C36.9336 24.094 39.1664 22.4636 39.1813 21.167C39.2032 19.0213 36.1688 18.7367 34.6375 19.0175C31.8306 19.5278 29.3753 21.2141 26.7173 22.1744Z" fill="#BA98D3"/>
</g>
</g>
<defs>
<linearGradient id="paint0_linear_37_2645" x1="0" y1="34.4973" x2="68.9946" y2="34.4973" gradientUnits="userSpaceOnUse">
<stop stop-color="#BA98D3"/>
<stop offset="1" stop-color="#BA5970"/>
</linearGradient>
<clipPath id="clip0_37_2645">
<rect width="69" height="69" fill="white"/>
</clipPath>
</defs>
</svg>
