<svg width="49" height="48" viewBox="0 0 49 48" fill="none" xmlns="http://www.w3.org/2000/svg">
<g clip-path="url(#clip0_37_2636)">
<path d="M24.6494 48C38.0979 48 49 37.3204 49 24.1464C49 10.9724 38.0979 0.292725 24.6494 0.292725C11.201 0.292725 0.298828 10.9724 0.298828 24.1464C0.298828 37.3204 11.201 48 24.6494 48Z" fill="url(#paint0_linear_37_2636)"/>
<g style="mix-blend-mode:multiply" opacity="0.5">
<path d="M13.2415 9.24272C13.0234 10.317 13.1345 11.7651 14.0661 12.0882C14.3293 12.1432 14.5998 12.1352 14.8601 12.0646C15.1205 11.994 15.3649 11.8626 15.5776 11.6786C16.7894 10.8293 17.7608 9.59005 18.9849 8.76617C20.2089 7.94228 21.8958 7.62496 22.9874 8.66116C24.1972 9.81505 24.0596 11.9994 23.4104 13.631C22.7875 14.806 22.3163 16.0758 22.0109 17.4019C21.9415 17.9587 21.9803 18.5259 22.1245 19.064C22.2686 19.6021 22.5148 20.0981 22.8457 20.5174C23.1832 20.9304 23.6073 21.2404 24.0787 21.4187C24.55 21.597 25.0536 21.6378 25.5426 21.5375C26.273 21.3162 26.9457 20.8991 27.5036 20.3213C28.6464 19.2671 29.663 18.0487 30.5276 16.6969C32.1023 14.2333 33.4436 11.0993 36.0477 10.3505C36.8922 10.1355 37.7726 10.1879 38.5924 10.502C39.4122 10.816 40.1398 11.3796 40.6954 12.1309C41.2355 12.896 41.6062 13.7963 41.7764 14.7566C41.9466 15.7169 41.9115 16.7094 41.6739 17.6512C41.5476 18.2625 41.2734 18.8219 40.882 19.2666C40.4137 19.6845 39.8634 19.9687 39.2777 20.0951C37.0745 20.5433 34.9159 21.2367 32.8331 22.1652C32.4441 22.3295 32.0905 22.5857 31.7957 22.9167C31.501 23.2478 31.272 23.6462 31.1239 24.0853C31.0198 24.9851 31.207 25.8971 31.6508 26.6527C31.9691 27.5208 32.4889 28.2751 33.1552 28.8359C34.4904 29.7671 36.2129 29.0159 37.6245 28.2532L45.443 24.0472C45.9799 23.8252 46.4495 23.4341 46.7965 22.9199C47.0127 22.4456 47.1233 21.9188 47.1186 21.3852C47.303 19.1858 47.2 16.9676 46.8128 14.8022C46.4169 12.6245 45.417 10.6468 43.959 9.15734C42.2251 7.67314 40.1476 6.79122 37.9792 6.61877C35.8388 6.32453 33.6577 6.35106 31.5306 5.92643C30.7329 5.81555 29.967 5.50536 29.2882 5.01831C28.7411 4.50022 28.2422 3.92027 27.7991 3.28747C23.1769 -2.3297 14.5492 2.79475 13.2415 9.24272Z" fill="#D16111"/>
</g>
<g style="mix-blend-mode:multiply" opacity="0.5">
<path d="M32.2724 17.4148C32.3214 17.6759 32.4449 17.9131 32.6249 18.092C32.8049 18.2709 33.0321 18.3822 33.2735 18.4098C33.4457 18.4455 33.6222 18.4485 33.7954 18.4187C34.9149 18.2447 35.9393 17.6315 36.6793 16.6924C36.9194 16.3265 37.0486 15.8869 37.0486 15.4359C37.0486 14.9849 36.9194 14.5453 36.6793 14.1793C36.5318 13.967 36.3214 13.8178 36.0845 13.7575C35.849 13.7459 35.615 13.8056 35.4083 13.93C35.2015 14.0544 35.0299 14.2389 34.912 14.4632C34.6819 14.9139 34.3943 15.3262 34.0578 15.6874C33.7158 15.9197 33.3497 16.1066 32.9675 16.2439C32.7485 16.3246 32.5607 16.4841 32.4346 16.6966C32.3084 16.9091 32.2512 17.1621 32.2724 17.4148Z" fill="#D16111"/>
</g>
<g style="mix-blend-mode:multiply" opacity="0.5">
<path d="M15.7063 16.1519C15.3124 17.0006 15.1609 17.9772 15.2746 18.9359C15.358 19.3999 15.5415 19.8314 15.6111 20.2966C15.7142 20.9822 15.6004 21.8046 16.037 22.2686C16.1836 22.4077 16.3596 22.4967 16.5459 22.5259C16.7322 22.5552 16.9217 22.5235 17.0939 22.4345C17.4369 22.2491 17.7265 21.9491 17.927 21.5715C18.3736 20.8017 18.5911 19.8782 18.5452 18.9464C18.4224 18.2468 18.4041 17.5271 18.4912 16.8201C18.771 16.1059 19.1982 15.4864 19.7336 15.0186C20.6639 13.9444 21.3253 10.8912 19.2204 11.4921C17.6915 11.9353 16.3177 14.6102 15.7063 16.1519Z" fill="#D16111"/>
</g>
<g style="mix-blend-mode:multiply" opacity="0.5">
<path d="M12.507 15.5155C12.9962 16.5027 13.2033 17.6376 13.0997 18.7637C12.9083 20.1258 12.0436 21.4637 12.451 22.7635C12.6475 23.3879 13.112 23.8624 13.3319 24.4765C13.8065 25.7958 13.0457 27.2226 12.4296 28.4635C11.3524 30.3022 10.9627 32.5501 11.346 34.7141C11.8837 36.8081 14.0581 38.4276 15.7925 37.4845C17.4393 36.5876 17.7957 34.0054 17.2183 32.0407C16.5807 29.8671 15.2293 26.7839 17.919 25.5396C19.7858 24.6762 21.7708 26.0937 22.6476 27.9129C22.9164 28.7053 23.3917 29.3862 24.0103 29.8648C25.3811 30.6267 26.9566 28.9056 28.4538 29.2461C30.9642 29.8163 31.0834 34.1531 31.4836 36.3221C31.6144 36.9032 31.677 37.5012 31.67 38.1009C31.5518 40.4153 29.5058 41.9101 27.637 42.859C25.5959 43.8882 23.4842 44.7267 21.3226 45.3662C19.3095 46.2383 17.1235 46.466 15.0038 46.0242C12.8842 45.5824 10.9127 44.4882 9.30501 42.8613C7.47181 41.3076 5.66002 39.4399 5.0184 36.9454C4.58238 34.8032 4.74795 32.56 5.49197 30.5297C5.95679 29.3412 6.27942 28.0877 6.45133 26.8024C6.45735 25.3197 6.19678 23.8512 5.68548 22.4864C4.76888 19.5036 4.56519 16.477 6.72123 14.0691C8.69599 11.8678 11.3663 12.931 12.507 15.5155Z" fill="#D16111"/>
</g>
<g style="mix-blend-mode:multiply" opacity="0.5">
<path d="M28.3829 25.2757C28.4472 23.8062 25.9151 23.3912 25.1204 23.9389C23.4289 25.1056 24.2756 27.2399 26.0121 27.2182C26.5462 27.2352 27.0746 27.0858 27.5443 26.785C27.7767 26.6319 27.9743 26.4146 28.1203 26.1518C28.2663 25.8891 28.3564 25.5885 28.3829 25.2757Z" fill="#D16111"/>
</g>
<g style="mix-blend-mode:multiply" opacity="0.2">
<path d="M27.8147 44.9601C23.0963 44.9657 18.4765 43.6431 14.5104 41.1513C10.5442 38.6594 7.40031 35.1042 5.45628 30.9127C3.51226 26.7213 2.85081 22.0718 3.55137 17.5227C4.25192 12.9736 6.2847 8.71845 9.40553 5.26831C6.7149 7.32197 4.49422 9.9012 2.88591 12.8406C1.27761 15.7799 0.31718 19.0145 0.0662247 22.337C-0.18473 25.6594 0.279293 28.9963 1.4286 32.1336C2.57791 35.271 4.38713 38.1395 6.74017 40.5553C9.09321 42.971 11.9381 44.8807 15.0925 46.1617C18.2469 47.4428 21.6411 48.067 25.0574 47.9943C28.4738 47.9216 31.8368 47.1537 34.9309 45.7397C38.0249 44.3256 40.7817 42.2968 43.0244 39.7833C38.7011 43.1365 33.3393 44.9614 27.8147 44.9601Z" fill="#222226"/>
</g>
<g style="mix-blend-mode:overlay" opacity="0.39">
<path d="M24.5834 3.10919e-06C20.7199 0.000472066 16.9122 0.90907 13.4767 2.65035C9.858 6.89952 7.84191 12.2507 7.77006 17.7969C7.6982 23.3431 9.57501 28.7432 13.0825 33.082C16.5899 37.4208 21.5122 40.4313 27.0151 41.6034C32.518 42.7755 38.2631 42.037 43.2765 39.5131C46.2675 36.0076 48.1801 31.7335 48.7893 27.1935C49.3985 22.6536 48.6789 18.0366 46.7152 13.8858C44.7516 9.73505 41.6255 6.22311 37.7048 3.76318C33.784 1.30325 29.2317 -0.00232538 24.5834 3.10919e-06Z" fill="white"/>
</g>
</g>
<defs>
<linearGradient id="paint0_linear_37_2636" x1="0.298828" y1="24.1464" x2="49" y2="24.1464" gradientUnits="userSpaceOnUse">
<stop stop-color="#FFA000"/>
<stop offset="1" stop-color="#FF3D00"/>
</linearGradient>
<clipPath id="clip0_37_2636">
<rect width="49" height="48" fill="white"/>
</clipPath>
</defs>
</svg>
