<svg width="35" height="35" viewBox="0 0 35 35" fill="none" xmlns="http://www.w3.org/2000/svg">
<g clip-path="url(#clip0_37_2613)">
<path d="M17.5 35.0002C27.165 35.0002 35 27.1652 35 17.5003C35 7.83544 27.165 0.000488281 17.5 0.000488281C7.83502 0.000488281 0 7.83544 0 17.5003C0 27.1652 7.83502 35.0002 17.5 35.0002Z" fill="url(#paint0_linear_37_2613)"/>
<g style="mix-blend-mode:multiply" opacity="0.11">
<path d="M6.6532 13.0321C7.4965 13.4485 8.25681 14.1298 9.24082 14.3629C10.4857 14.6336 11.7612 14.6842 13.0203 14.5128C15.4061 14.2259 17.7135 13.4047 20.0854 13.0011C21.396 12.7781 22.7411 12.6782 23.982 12.1595C25.3491 11.5869 26.5075 10.5378 27.8064 9.79214C29.1052 9.04645 30.7091 8.62126 32.007 9.36802C28.9706 10.3829 26.7521 13.2407 23.9625 14.9147C22.4084 15.8474 20.6929 16.4008 19.1206 17.2918C18.0649 17.89 17.0544 18.6482 15.8948 18.9225C14.8738 19.1629 13.8159 19.0083 12.773 19.0174C10.1487 19.0471 7.61703 20.0984 5.61916 21.9881C8.17231 21.5819 10.7254 21.1763 13.2784 20.771C14.2436 20.5794 15.2241 20.4995 16.2042 20.5328C16.9888 20.5891 17.7676 20.7902 18.552 20.7376C21.3866 20.5493 23.4896 17.1841 26.3288 17.1929C26.4349 18.0973 25.7612 18.8582 25.144 19.4615C23.3616 21.2074 21.5261 22.987 19.3017 23.9193C15.8222 25.3747 11.9239 24.551 8.25416 25.2144C6.23058 25.5795 3.88397 26.3094 2.33352 24.8199C-0.0222363 22.5578 1.49599 18.4634 2.42347 15.9091C3.05102 14.1821 4.31428 12.1889 6.2099 12.8435C6.3607 12.8972 6.5087 12.9602 6.6532 13.0321Z" fill="black"/>
<path d="M12.9426 4.31494C11.4851 4.67822 9.96173 5.1627 8.44634 5.27615C7.04981 5.38077 5.85593 5.44318 4.52703 5.96157C4.3287 6.03859 4.10775 6.14844 4.07674 6.33097C4.0438 6.52559 4.24902 6.69172 4.45274 6.79038C5.65717 7.37695 7.16093 6.93739 8.54303 6.79038C9.72571 6.66412 10.9248 6.76784 12.1158 6.71823C15.0553 6.5972 17.8111 5.5606 20.6237 4.83406C21.073 4.71808 21.5523 4.61003 22.0067 4.71122C22.4611 4.81241 22.8537 5.20869 22.7193 5.58585C22.603 5.81369 22.3965 6.00099 22.1346 6.11615C18.2211 8.29018 13.2447 8.68484 8.57081 8.30065C7.83863 8.24004 6.88938 8.26782 6.63614 8.84646C10.6791 10.2 15.192 10.1835 19.2208 8.80064C20.4052 8.38795 21.6936 7.84989 22.906 8.20018C22.9381 8.66392 22.2718 8.90616 21.7358 9.02466C19.1756 9.59213 16.7005 10.401 14.358 11.4357C14.8734 12.1426 16.1159 12.0455 17.0744 11.8423C20.9291 11.0246 24.8376 9.85168 27.6479 7.49763C28.2459 6.99673 28.8233 6.33656 28.6508 5.64285C28.4949 5.01822 27.7924 4.61473 27.1468 4.27599C25.8404 3.59165 24.5339 2.90701 23.2275 2.22208C21.1399 1.12848 20.8137 1.67537 18.9852 2.52132C17.1496 3.37105 14.9433 3.81585 12.9426 4.31494Z" fill="black"/>
<path d="M33.3905 13.6029C33.3082 13.0786 32.8023 12.1249 32.1638 12.3629C31.9122 12.4821 31.6938 12.6655 31.5289 12.896C30.355 14.2754 28.9166 15.1193 27.2902 15.8686C26.1594 15.8686 23.7587 17.1968 22.7326 17.7517C21.5859 18.3704 20.5559 19.1722 19.3907 19.8063C19.0507 19.9749 18.7303 20.1833 18.4359 20.4276C18.1727 20.663 17.9585 20.957 17.6804 21.174C16.9077 21.7825 15.8359 21.6865 14.8737 21.5613C14.8085 21.6503 14.7798 21.7624 14.7939 21.8733C14.808 21.9842 14.8637 22.0849 14.9489 22.1533C15.1251 22.2832 15.3344 22.3562 15.5504 22.363C17.5016 22.5835 19.4734 22.2361 21.2455 21.3595C23.6773 20.2033 26.2119 19.2964 28.8132 18.6516C27.0221 21.1837 24.6263 23.1865 21.8624 24.4624C19.0767 25.7418 15.9293 25.6272 13.06 24.6695C12.6879 24.5198 12.3037 24.4048 11.912 24.3256C11.56 24.2758 11.1996 24.3142 10.8477 24.2643C9.84487 24.1236 9.04499 23.3048 8.06452 23.0459C8.02758 24.0943 8.97752 24.8755 9.8818 25.342C10.3696 25.6194 10.9037 25.7981 11.4556 25.8687C11.8041 25.861 12.1521 25.8957 12.4928 25.9721C13.5005 26.3136 14.0482 27.2761 15.1505 27.565C16.6812 27.9664 18.4505 27.7862 19.9874 27.5242C22.7352 27.0517 25.3614 26.0025 27.706 24.4405C27.3684 25.6596 26.7076 26.7553 25.7989 27.6024C24.8902 28.4496 23.7705 29.0139 22.5676 29.2309C21.9486 29.3333 21.3176 29.3397 20.7047 29.4764C19.5911 29.7246 18.5809 30.3944 17.449 30.5248C16.056 30.6847 14.4799 30.0479 13.3371 30.8905C15.2473 32.0085 17.3849 32.6415 19.5754 32.7379C24.79 32.9616 29.9848 29.8525 32.4924 25.0965C32.5876 24.9551 32.6329 24.784 32.6207 24.6119C32.5957 24.5259 32.5535 24.4464 32.4969 24.3785C32.4403 24.3107 32.3705 24.256 32.292 24.2182C31.2202 23.5814 29.3883 24.0367 29.04 22.8055C28.8678 22.197 29.2811 21.5514 29.8096 21.2329C30.338 20.9143 30.9601 20.8264 31.5494 20.66C32.9165 20.2765 34.2096 19.379 34.8027 18.0431C35.008 17.5777 35.1129 16.991 34.8138 16.5832C34.5911 16.2777 34.2035 16.1567 33.9364 15.8941C33.3733 15.3389 33.5147 14.3967 33.3905 13.6029Z" fill="black"/>
</g>
<g style="mix-blend-mode:multiply" opacity="0.2">
<path d="M20.0733 32.6852C16.6684 32.6884 13.3376 31.6837 10.4953 29.7962C7.65293 27.9086 5.42435 25.2215 4.08667 22.069C2.74899 18.9165 2.36122 15.4376 2.97159 12.065C3.58195 8.69234 5.16352 5.57474 7.51962 3.09985C5.5168 4.48849 3.82583 6.28499 2.55613 8.37313C1.28643 10.4613 0.466279 12.7945 0.148745 15.2219C-0.168789 17.6493 0.0233642 20.1168 0.712776 22.4648C1.40219 24.8127 2.5735 26.9887 4.15093 28.8521C5.72835 30.7155 7.67675 32.2247 9.87006 33.2821C12.0634 34.3395 14.4527 34.9215 16.8835 34.9905C19.3144 35.0594 21.7325 34.6138 23.9815 33.6825C26.2304 32.7512 28.2602 31.3548 29.9393 29.5838C27.0416 31.6061 23.5991 32.6883 20.0733 32.6852Z" fill="#222226"/>
</g>
<g style="mix-blend-mode:overlay" opacity="0.3">
<path d="M17.5995 0C15.1438 0.000926472 12.7165 0.528708 10.4793 1.54819C7.95307 4.58383 6.52509 8.3929 6.42901 12.352C6.33294 16.3112 7.57447 20.1859 9.95043 23.3422C12.3264 26.4984 15.696 28.7492 19.508 29.7262C23.3199 30.7032 27.3483 30.3485 30.934 28.7202C33.0545 26.1669 34.4077 23.0576 34.8347 19.7572C35.2618 16.4568 34.745 13.1023 33.3451 10.0872C31.9451 7.07207 29.72 4.52155 26.931 2.73491C24.1419 0.948275 20.9045 -0.00036168 17.5988 0.000332078L17.5995 0Z" fill="white"/>
</g>
</g>
<defs>
<linearGradient id="paint0_linear_37_2613" x1="0" y1="17.5003" x2="35" y2="17.5003" gradientUnits="userSpaceOnUse">
<stop stop-color="#6F88A3"/>
<stop offset="0.994" stop-color="#49568B"/>
</linearGradient>
<clipPath id="clip0_37_2613">
<rect width="35" height="35" fill="white"/>
</clipPath>
</defs>
</svg>
