<svg width="109" height="64" viewBox="0 0 109 64" fill="none" xmlns="http://www.w3.org/2000/svg">
<path d="M55.5 63C72.897 63 87 48.897 87 31.5C87 14.103 72.897 0 55.5 0C38.103 0 24 14.103 24 31.5C24 48.897 38.103 63 55.5 63Z" fill="url(#paint0_linear_37_2651)"/>
<g style="mix-blend-mode:multiply" opacity="0.2">
<path d="M43.8661 55.0918C39.6983 52.5993 36.1713 49.1647 33.5672 45.0631C30.9632 40.9614 29.3544 36.3065 28.8697 31.4708C28.3851 26.6352 29.0379 21.7531 30.776 17.2153C32.5141 12.6775 35.2893 8.61004 38.8793 5.33838C35.1825 7.59884 31.9983 10.6076 29.5308 14.1718C27.0634 17.736 25.3671 21.777 24.5508 26.0357C23.7344 30.2944 23.816 34.6769 24.7903 38.9022C25.7646 43.1275 27.6101 47.1024 30.2086 50.5721C32.807 54.0418 36.101 56.9297 39.8793 59.0507C43.6577 61.1717 47.8372 62.479 52.1497 62.8887C56.4622 63.2985 60.8127 62.8017 64.9223 61.4302C69.0318 60.0587 72.8097 57.8427 76.0139 54.9244C71.1796 57.883 65.6294 59.4624 59.9633 59.4919C54.2972 59.5214 48.7308 57.9999 43.8661 55.0918Z" fill="#222226"/>
</g>
<g style="mix-blend-mode:overlay" opacity="0.3">
<path d="M71.7951 4.40265C67.9681 2.11183 63.6927 0.673935 59.2604 0.187007C54.828 -0.299922 50.3428 0.175564 46.1107 1.58104C40.8659 6.39148 37.4276 12.8569 36.3697 19.8985C35.3118 26.9401 36.6982 34.1319 40.2975 40.2739C43.8968 46.4158 49.4914 51.1364 56.1477 53.6479C62.8039 56.1593 70.1193 56.3098 76.873 54.0742C80.4435 50.7962 83.1995 46.7283 84.9212 42.195C86.6429 37.6618 87.2827 32.7885 86.7895 27.9639C86.2963 23.1392 84.6838 18.4967 82.0806 14.4064C79.4774 10.3162 75.9555 6.89138 71.7957 4.40517L71.7951 4.40265Z" fill="#CCBEBE"/>
</g>
<mask id="mask0_37_2651" style="mask-type:alpha" maskUnits="userSpaceOnUse" x="24" y="0" width="63" height="63">
<path d="M87 31.5C87 48.897 72.897 63 55.5 63C38.103 63 24 48.897 24 31.5C24 14.103 38.103 0 55.5 0C72.897 0 87 14.103 87 31.5Z" fill="#C4C4C4"/>
</mask>
<g mask="url(#mask0_37_2651)">
<g style="mix-blend-mode:multiply">
<path d="M67.0318 -0.749227C71.1936 -0.695246 75.3192 -1.40883 79.4766 -1.57225C80.7166 -1.68835 81.9672 -1.55459 83.1546 -1.17885C85.3168 -0.352868 86.3311 1.72578 87.8136 3.30602C91.9851 7.7591 99.5627 8.07116 106.048 9.40664C112.968 10.7922 119.448 13.8433 124.927 18.2965C119.983 20.6236 113.772 19.2061 108.759 16.9965C103.745 14.787 99.0352 11.7951 93.4905 10.9041C89.8155 10.3125 85.9203 10.6822 82.41 9.57301C79.7677 8.73519 77.5545 7.11946 74.9676 6.17146C67.7224 3.50938 58.8824 6.42583 51.6926 3.65726C50.3076 3.12263 48.9831 2.37725 47.4724 2.23527C45.9618 2.0933 44.1704 2.85938 44.0692 4.15789C44.0801 4.53153 44.176 4.89776 44.3498 5.22865C44.5235 5.55953 44.7704 5.84634 45.0717 6.06719C49.1153 9.61221 56.3804 6.57965 61.7936 8.33885C63.7312 8.96813 65.3505 10.2023 67.3169 10.7591C70.641 11.7005 74.449 10.5757 77.7111 11.6687C79.3555 12.2188 80.683 13.2778 82.1729 14.0875C86.481 16.4286 91.8706 16.5706 96.8095 17.6695C106.388 19.7999 114.664 25.6609 124.511 26.5194C119.192 29.6392 111.925 28.4169 105.999 26.2414C100.073 24.0659 94.3275 21.0126 87.8897 20.7346C83.8793 20.5608 79.8593 21.4932 75.8666 21.1043C71.707 20.7042 67.9411 18.9147 64.1213 17.4513C55.5037 14.1831 46.38 12.4546 37.1653 12.3445C41.7509 14.2158 46.4459 15.8064 51.2243 17.1075L70.5147 22.7844C75.2808 24.1894 80.1119 25.601 85.1366 25.9212C88.5434 26.1386 91.9821 25.8472 95.3742 26.1963C98.7933 26.5329 102.109 27.56 105.12 29.2155C108.894 31.3274 112.006 34.4613 116.314 35.6031C120.558 36.7263 125.785 35.8833 128.963 38.5395C121.199 40.2972 112.741 41.4389 105.304 38.8463C101.501 37.5205 98.1983 35.2873 94.3792 33.9925C90.5424 32.6918 86.3628 32.3937 82.2719 31.922C75.4684 31.1374 68.761 29.8359 62.0655 28.5367C53.6162 26.8973 44.61 24.9872 38.7905 19.4945C37.4394 18.2196 35.097 16.7118 33.8013 18.0259C33.4789 18.3879 33.3013 18.8564 33.3027 19.3414C33.1801 21.6116 35.0283 23.6658 37.2473 24.9125C39.4664 26.1593 42.0644 26.7982 44.5073 27.6907C49.2638 29.4292 53.4729 32.1438 58.2656 33.8069C67.4299 36.9866 78.0716 36.1044 87.0217 39.7004C91.3402 41.436 95.1312 44.1698 99.7193 45.2864C107.06 47.0722 115.835 44.5935 122.009 48.4336C118.381 50.7629 113.544 51.0276 109.012 51.2029C101.958 51.4742 94.456 51.6569 88.3573 48.6147C85.2422 47.0618 82.6493 44.7207 79.2772 43.6292C75.0481 42.2612 70.3256 43.0695 65.8255 42.6916C60.6952 42.2612 55.9069 40.2883 50.8254 39.5459C47.7472 39.097 44.5258 39.0904 41.6581 38.0344C36.3099 36.066 33.0685 30.7751 27.396 29.6548C29.8411 36.9614 33.74 44.924 41.9839 47.754C49.5962 50.3665 58.4185 47.6615 66.3559 49.4303C70.1336 50.2719 73.4969 52.0821 77.0005 53.5558C84.9903 56.9153 93.7941 58.5465 102.498 60.149C106.124 60.9027 109.798 61.4055 113.493 61.6538C108.771 64.148 102.803 63.8197 97.2749 63.4078C91.5869 62.9848 85.8332 62.5508 80.4325 60.9675C76.3497 59.7696 72.5417 57.9313 68.4028 56.8805C59.4254 54.6015 49.5356 56.1669 40.6439 53.6542C43.9643 57.8655 51.1933 57.4994 56.7262 59.3385C59.0028 60.0957 61.0564 61.2752 63.2858 62.1315C65.2666 62.8477 67.299 63.4121 69.3653 63.8197C78.3682 65.7606 87.5296 66.8732 96.7349 67.1436C92.1594 71.1164 86.3497 73.3789 80.2951 73.5459C71.2978 73.8565 62.9829 69.8892 54.6459 66.9779C49.8444 65.3016 44.8648 63.9365 40.375 61.7159C35.3735 59.1204 30.8446 55.6998 26.9787 51.5977C19.8598 44.3509 14.2087 35.6896 13.0586 26.2717C12.6206 23.2444 12.8634 20.1575 13.7692 17.2361C15.8317 11.0593 21.4813 6.3164 26.9092 1.87811C31.1412 -1.5826 35.8054 -5.22078 41.6182 -5.80792C46.6089 -6.30928 50.8143 -5.4759 55.4075 -3.96591C59.1919 -2.73026 62.8721 -0.803208 67.0318 -0.749227Z" fill="#D1992A"/>
</g>
</g>
<path d="M107.686 51.8211C109.929 46.103 101.648 36.9686 86.8079 28.0425C87.0055 29.7733 87.0362 31.681 86.9424 33.4206C91.6513 37.4479 93.557 40.9449 92.516 43.5979C90.1663 49.5872 71.5324 47.8649 50.8976 39.7512C30.2628 31.6375 15.4389 20.2044 17.7899 14.215C18.9874 11.1618 24.4287 10.1248 32.1964 10.9026C33.2578 9.70539 34.4106 8.59264 35.6443 7.57441C17.3467 3.33191 3.44751 3.8844 1.08582 9.90268C-2.26657 18.4481 18.8755 34.7586 48.3158 46.3327C77.7562 57.9067 104.333 60.364 107.686 51.8211Z" fill="url(#paint1_linear_37_2651)"/>
<g style="mix-blend-mode:multiply">
<path d="M92.5703 43.4084C92.8511 43.0964 93.4655 43.0763 93.6217 42.6865C94.6627 40.0329 92.3243 36.3121 87.6154 32.2848C87.6707 31.0894 87.6577 29.8918 87.5764 28.698C87.3086 28.5344 87.079 28.3995 86.8081 28.2346C87.0057 29.9654 87.0322 31.6811 86.9384 33.4206C91.6039 37.4095 93.5415 40.7592 92.5703 43.4084Z" fill="#CCBEBE"/>
</g>
<g style="mix-blend-mode:multiply">
<path d="M18.4671 13.0795C18.4583 13.1021 18.4614 13.1267 18.4526 13.1487C20.4139 10.9286 25.4183 10.2232 32.1966 10.9028C33.258 9.70565 34.4107 8.59291 35.6445 7.57467C35.4823 7.53755 35.3302 7.50734 35.1668 7.47021C34.3619 8.19332 33.597 8.95986 32.8755 9.7664C25.1071 8.98863 19.6652 10.0275 18.4671 13.0795Z" fill="#CCBEBE"/>
</g>
<g style="mix-blend-mode:multiply">
<path d="M48.9943 45.1992C19.5571 33.6239 -1.58809 17.3146 1.76429 8.77045C1.77875 8.73206 1.80578 8.69997 1.8215 8.66284C1.51857 9.03977 1.2713 9.45832 1.08728 9.90564C-2.2651 18.451 18.8769 34.7616 48.3173 46.3356C77.6106 57.8511 104.068 60.338 107.629 51.9405C102.181 58.9385 76.8738 56.1628 48.9943 45.1992Z" fill="#CCBEBE"/>
</g>
<defs>
<linearGradient id="paint0_linear_37_2651" x1="24" y1="31.5" x2="87" y2="31.5" gradientUnits="userSpaceOnUse">
<stop offset="0.285" stop-color="#FCBE33"/>
<stop offset="0.96" stop-color="#FC8A33"/>
</linearGradient>
<linearGradient id="paint1_linear_37_2651" x1="0.736328" y1="30.8639" x2="108.035" y2="30.8639" gradientUnits="userSpaceOnUse">
<stop stop-color="#FFE1A4"/>
<stop offset="1" stop-color="#FEB86F"/>
</linearGradient>
</defs>
</svg>
