<svg width="87" height="86" viewBox="0 0 87 86" fill="none" xmlns="http://www.w3.org/2000/svg">
<g clip-path="url(#clip0_37_2609)">
<path d="M43.5 86C67.5244 86 87 66.7482 87 43C87 19.2518 67.5244 0 43.5 0C19.4756 0 0 19.2518 0 43C0 66.7482 19.4756 86 43.5 86Z" fill="url(#paint0_linear_37_2609)"/>
<g style="mix-blend-mode:multiply" opacity="0.2">
<path d="M49.1971 79.1133C39.3938 79.1144 29.9208 75.6103 22.5265 69.2477C15.1321 62.8851 10.3155 54.0934 8.96533 44.495C7.61518 34.8967 9.82271 25.1395 15.1805 17.0241C20.5383 8.90873 28.6848 2.98287 38.1166 0.340088C30.631 1.26524 23.5176 4.09898 17.4747 8.56305C11.4319 13.0271 6.66751 18.968 3.64938 25.8023C0.631247 32.6367 -0.536831 40.1294 0.259846 47.5449C1.05652 54.9603 3.79056 62.0434 8.19349 68.0987C12.5964 74.154 18.5168 78.9732 25.3734 82.0831C32.2299 85.193 39.7868 86.4866 47.3019 85.837C54.8171 85.1874 62.0322 82.6168 68.2386 78.3778C74.445 74.1387 79.4294 68.3769 82.7023 61.6581C78.9752 67.0423 73.9755 71.4462 68.1369 74.488C62.2982 77.5298 55.797 79.1174 49.1971 79.1133Z" fill="#222226"/>
</g>
<g style="mix-blend-mode:overlay" opacity="0.2">
<path d="M44.0604 0.0112305C38.5329 1.73691 33.4884 4.71236 29.3273 8.70147C25.1661 12.6906 22.0028 17.5835 20.0884 22.992C18.174 28.4004 17.5612 34.1755 18.2987 39.8589C19.0361 45.5423 21.1036 50.9776 24.3368 55.7333C27.5701 60.4891 31.8802 64.4345 36.9252 67.2563C41.9701 70.0782 47.611 71.6988 53.4001 71.9897C59.1892 72.2805 64.9672 71.2335 70.2756 68.9318C75.5839 66.6301 80.2765 63.137 83.9809 58.7298C86.557 52.2545 87.5046 45.2579 86.7422 38.3408C85.9799 31.4237 83.5305 24.793 79.6043 19.0179C75.678 13.2429 70.3924 8.49627 64.2013 5.18565C58.0102 1.87503 51.0987 0.0993892 44.0604 0.0112305Z" fill="black"/>
</g>
</g>
<defs>
<linearGradient id="paint0_linear_37_2609" x1="0.261" y1="43" x2="86.391" y2="43" gradientUnits="userSpaceOnUse">
<stop stop-color="#FFD000"/>
<stop offset="1" stop-color="#C88500"/>
</linearGradient>
<clipPath id="clip0_37_2609">
<rect width="87" height="86" fill="white"/>
</clipPath>
</defs>
</svg>
