<svg width="42" height="42" viewBox="0 0 42 42" fill="none" xmlns="http://www.w3.org/2000/svg">
<g clip-path="url(#clip0_37_2621)">
<path d="M21 42C32.598 42 42 32.598 42 21C42 9.40202 32.598 0 21 0C9.40202 0 0 9.40202 0 21C0 32.598 9.40202 42 21 42Z" fill="#FFD0A6"/>
<path d="M21 42C32.598 42 42 32.598 42 21C42 9.40202 32.598 0 21 0C9.40202 0 0 9.40202 0 21C0 32.598 9.40202 42 21 42Z" fill="url(#paint0_linear_37_2621)"/>
<g style="mix-blend-mode:multiply" opacity="0.5">
<path d="M8.6048 8.13119C9.58466 7.72971 10.8719 7.92576 11.4251 8.86489C11.8103 9.51934 11.7532 10.3757 11.4792 11.0889C11.1623 11.7906 10.7736 12.4475 10.3213 13.0461C9.43821 14.3714 8.70934 15.8784 8.63223 17.4943C8.55513 19.1102 9.25812 20.8417 10.6305 21.5736C11.0935 21.8465 11.6279 21.9203 12.1351 21.7814C12.5123 21.6269 12.8555 21.3815 13.1411 21.0621C14.9499 19.274 16.5212 17.1976 18.5581 15.7056C20.5949 14.2135 23.3096 13.3789 25.5798 14.436C25.8312 14.5387 26.0613 14.6992 26.2556 14.9073C26.616 15.3337 26.6533 15.9609 26.6106 16.5291C26.4467 18.4395 25.6364 20.2036 24.35 21.4507C23.1398 22.6366 20.9491 24.2229 22.3652 26.1918C22.6752 26.5891 23.0812 26.8746 23.5327 27.0129C23.9843 27.1512 24.4618 27.1364 24.906 26.9701C25.4007 26.7776 25.8204 26.4031 26.3265 26.2426C28.6153 25.5162 29.3067 28.7052 29.0984 30.393C28.8099 32.7376 27.5625 34.8908 25.9223 36.4723C23.9854 38.3386 21.5175 39.4952 18.9984 40.2837C17.6843 40.6946 15.9453 40.8507 15.2526 39.6087C14.761 38.7283 15.0974 37.6149 15.4464 36.6619C15.8463 35.5647 16.2461 34.467 16.646 33.3688C17.1197 32.0684 17.5456 30.449 16.6625 29.411C15.9712 28.596 14.759 28.5534 13.7561 28.8393C12.7532 29.1251 11.8212 29.673 10.7956 29.8444C6.99207 30.4775 2.8711 26.6602 4.55189 22.4896C4.73921 22.0265 5.03702 21.5895 5.05177 21.0865C5.10067 19.4967 2.75984 18.233 2.45168 16.5109C2.12567 14.6931 3.13373 12.9011 4.326 11.5394C5.47559 10.229 7.00061 8.788 8.6048 8.13119Z" fill="#FFD0A6"/>
</g>
<g style="mix-blend-mode:multiply" opacity="0.5">
<path d="M26.949 1.15767C23.4345 1.17997 20.4287 3.17269 17.0273 3.35347C16.3638 3.43689 15.7199 3.66045 15.1289 4.01262C14.751 4.17878 14.3983 4.41066 14.0833 4.69995C13.927 4.84652 13.8024 5.03196 13.7194 5.24188C13.6363 5.45181 13.597 5.6806 13.6044 5.91054C13.6429 6.34401 13.897 6.70528 14.075 7.09297C14.9519 9.00527 13.622 11.0863 13.2233 12.9279C13.1424 13.2281 13.1247 13.5456 13.1715 13.855C13.333 14.65 14.2086 15.0327 14.9074 14.8352C15.6063 14.6377 16.1517 14.0343 16.641 13.4344C18.1197 11.6202 19.439 9.58283 21.2541 8.21493C23.0691 6.84703 25.5901 6.30028 27.3937 7.68667C29.0391 8.95039 29.6127 11.4473 29.4637 13.695C29.3146 15.9428 28.5868 18.0817 28.1736 20.2857C28.0383 21.0073 27.9549 21.8294 28.3464 22.4187C29.0629 23.4957 30.5436 22.8882 31.7287 22.988C32.4352 23.0724 33.0922 23.439 33.5823 24.0224C34.0724 24.6057 34.3636 25.3678 34.4038 26.1723C34.4204 26.9271 34.2165 27.7327 34.5133 28.4083C34.9591 29.4216 36.2711 29.4806 37.154 28.9538C38.7931 27.9748 39.4969 25.7813 40.0625 23.7816C40.4873 22.2803 40.9118 20.7795 41.336 19.2791C41.6297 18.2419 41.9264 17.1578 41.7712 16.0828C41.6129 14.9878 41.0069 14.049 40.3727 13.2044C38.7013 10.9803 36.7206 9.08116 34.5089 7.58219C33.1893 6.68796 31.7145 5.85772 30.9714 4.33046C30.6453 3.65957 30.4777 2.88126 30.0414 2.29666C29.318 1.32671 28.0696 1.15063 26.949 1.15767Z" fill="#FFD0A6"/>
</g>
<g style="mix-blend-mode:multiply" opacity="0.5">
<path d="M27.0374 9.09289C26.662 8.3207 26.0319 7.70416 25.2437 7.8872C24.4794 8.0639 24.3116 8.81053 23.9948 9.63092C23.4552 11.0242 22.4548 10.647 21.6851 11.5814C21.5925 11.683 21.5281 11.8176 21.501 11.9664C21.474 12.1152 21.4857 12.2706 21.5345 12.4109C21.6748 12.7276 22.0414 12.7851 22.3197 12.6658C22.5857 12.5103 22.8424 12.3317 23.0877 12.1314C23.5841 11.8127 24.1698 11.7936 24.7307 11.8C25.2917 11.8063 25.87 11.8283 26.3917 11.5737C26.9133 11.3192 27.366 10.7097 27.3268 10.023C27.2907 9.68955 27.1916 9.37105 27.0374 9.09289Z" fill="#FFD0A6"/>
</g>
<g style="mix-blend-mode:multiply" opacity="0.5">
<path d="M13.2066 31.8471C13.6751 31.8412 14.1957 31.9877 14.4508 32.434C14.612 32.768 14.6639 33.1558 14.5975 33.529C14.5556 33.8789 14.4769 34.2219 14.3631 34.5506C14.2095 34.9894 14.0132 35.4074 13.7779 35.7967C13.3051 36.6479 12.6272 37.3275 11.8244 37.7551C8.35904 39.4288 9.29542 31.8955 13.2066 31.8471Z" fill="#FFD0A6"/>
</g>
<g style="mix-blend-mode:multiply" opacity="0.2">
<path d="M23.7833 39.5649C19.6709 39.5679 15.6483 38.3624 12.2153 36.0982C8.78236 33.834 6.09039 30.6109 4.47393 26.8296C2.85748 23.0482 2.3878 18.8751 3.12327 14.8291C3.85874 10.783 5.76693 7.04217 8.61072 4.07153C6.25814 5.78958 4.28908 7.97869 2.82894 10.4995C1.36879 13.0202 0.449551 15.8175 0.129749 18.713C-0.190053 21.6085 0.0965927 24.5389 0.971429 27.3176C1.84626 30.0962 3.29012 32.6623 5.21107 34.8523C7.13201 37.0424 9.48795 38.8084 12.1289 40.038C14.7698 41.2676 17.6378 41.9338 20.5503 41.9942C23.4628 42.0546 26.356 41.5079 29.0456 40.3888C31.7352 39.2697 34.1623 37.6029 36.1724 35.4943C32.583 38.1387 28.2416 39.5651 23.7833 39.5649Z" fill="#222226"/>
</g>
<g style="mix-blend-mode:overlay" opacity="0.2">
<path d="M20.9999 0.00123539C17.967 0.00324222 14.971 0.665956 12.2202 1.94329C9.02844 5.54969 7.17519 10.1448 6.97184 14.9564C6.76849 19.7681 8.22743 24.5032 11.1035 28.366C13.9796 32.2289 18.0976 34.9841 22.7656 36.1688C27.4336 37.3535 32.3671 36.8954 36.7372 34.8716C39.4142 31.8443 41.1598 28.1082 41.764 24.1124C42.3681 20.1167 41.8051 16.0315 40.1428 12.3481C38.4804 8.66466 35.7893 5.53988 32.3932 3.34952C28.9972 1.15915 25.0407 -0.00354546 20.9995 0.00123539H20.9999Z" fill="white"/>
</g>
</g>
<defs>
<linearGradient id="paint0_linear_37_2621" x1="-0.21" y1="19.908" x2="53.76" y2="22.68" gradientUnits="userSpaceOnUse">
<stop stop-color="#FFD0A6"/>
<stop offset="0.993" stop-color="#FF77A6"/>
</linearGradient>
<clipPath id="clip0_37_2621">
<rect width="42" height="42" fill="white"/>
</clipPath>
</defs>
</svg>
