<svg width="413" height="736" viewBox="0 0 413 736" fill="none" xmlns="http://www.w3.org/2000/svg">
<path opacity="0.7" d="M66.8595 196.307C66.8595 197.175 66.6775 197.609 66.3135 197.609C65.9496 197.609 65.7676 197.175 65.7676 196.307C65.7676 195.439 65.9496 195.005 66.3135 195.005C66.4955 195.005 66.8595 195.439 66.8595 196.307Z" fill="white"/>
<path opacity="0.7" d="M89.2438 196.307C89.2438 196.741 89.0618 197.175 88.8799 197.175C88.6979 197.175 88.5159 196.741 88.5159 196.307C88.5159 195.873 88.6979 195.439 88.8799 195.439C89.0618 195.005 89.2438 195.439 89.2438 196.307Z" fill="white"/>
<path opacity="0.7" d="M45.0214 266.17C45.0214 266.604 44.8394 267.038 44.6574 267.038C44.4754 267.038 44.2935 266.604 44.2935 266.17C44.2935 265.736 44.4754 265.302 44.6574 265.302C44.8394 265.302 45.0214 265.736 45.0214 266.17Z" fill="white"/>
<path opacity="0.7" d="M297.257 213.23C297.257 213.664 297.075 214.098 296.893 214.098C296.711 214.098 296.529 213.664 296.529 213.23C296.529 212.796 296.711 212.363 296.893 212.363C297.075 212.363 297.257 212.796 297.257 213.23Z" fill="white"/>
<path opacity="0.7" d="M93.9762 144.669C93.9762 145.103 93.7943 145.537 93.6123 145.537C93.4303 145.537 93.2483 145.103 93.2483 144.669C93.2483 144.235 93.4303 143.801 93.6123 143.801C93.7943 143.801 93.9762 144.235 93.9762 144.669Z" fill="white"/>
<path opacity="0.7" d="M93.2477 173.742C93.2477 174.176 93.0657 174.61 92.8838 174.61C92.7018 174.61 92.5198 174.176 92.5198 173.742C92.5198 173.308 92.7018 172.874 92.8838 172.874C93.0657 172.874 93.2477 173.308 93.2477 173.742Z" fill="white"/>
<path opacity="0.7" d="M109.809 22.3004C109.809 23.1683 109.627 23.6022 109.263 23.6022C108.899 23.6022 108.717 23.1683 108.717 22.3004C108.717 21.4326 108.899 20.9987 109.263 20.9987C109.627 20.9987 109.809 21.8665 109.809 22.3004Z" fill="white"/>
<path opacity="0.7" d="M111.81 226.682C111.81 227.55 111.446 228.418 111.082 228.418C110.718 228.418 110.354 227.55 110.354 226.682C110.354 225.814 110.718 224.946 111.082 224.946C111.628 224.946 111.81 225.814 111.81 226.682Z" fill="white"/>
<path opacity="0.7" d="M79.5999 9.28284C79.5999 10.1507 79.236 11.0186 78.872 11.0186C78.508 11.0186 78.144 10.1507 78.144 9.28284C78.144 8.41498 78.508 7.54712 78.872 7.54712C79.236 7.54712 79.5999 7.98105 79.5999 9.28284Z" fill="white"/>
<path opacity="0.7" d="M19.1793 153.348C19.1793 154.216 18.8153 155.084 18.4513 155.084C18.0874 155.084 17.7234 154.216 17.7234 153.348C17.7234 152.48 18.0874 151.612 18.4513 151.612C18.8153 151.612 19.1793 152.48 19.1793 153.348Z" fill="white"/>
<path opacity="0.7" d="M8.806 290.036C8.806 290.904 8.44202 291.772 8.07805 291.772C7.71407 291.772 7.3501 290.904 7.3501 290.036C7.3501 289.169 7.71407 288.301 8.07805 288.301C8.62401 288.301 8.806 289.169 8.806 290.036Z" fill="white"/>
<path opacity="0.7" d="M44.2933 162.894C44.2933 163.762 43.9293 164.63 43.5654 164.63C43.2014 164.63 42.8374 163.762 42.8374 162.894C42.8374 162.026 43.2014 161.158 43.5654 161.158C43.9293 161.158 44.2933 162.026 44.2933 162.894Z" fill="white"/>
<path opacity="0.7" d="M28.2792 279.622C28.2792 280.489 28.0972 280.923 27.7332 280.923C27.3692 280.923 27.1873 280.489 27.1873 279.622C27.1873 278.754 27.3692 278.32 27.7332 278.32C28.0972 278.32 28.2792 278.754 28.2792 279.622Z" fill="white"/>
<path opacity="0.7" d="M37.9242 106.049C37.9242 106.917 37.7422 107.351 37.3782 107.351C37.0143 107.351 36.8323 106.917 36.8323 106.049C36.8323 105.181 37.0143 104.747 37.3782 104.747C37.7422 104.747 37.9242 105.615 37.9242 106.049Z" fill="white"/>
<path opacity="0.7" d="M19.3614 1.0381C19.3614 1.47203 19.1794 1.90596 18.9974 1.90596C18.8154 1.90596 18.6334 1.47203 18.6334 1.0381C18.6334 0.604168 18.8154 0.170233 18.9974 0.170233C19.1794 -0.263699 19.3614 0.170236 19.3614 1.0381Z" fill="white"/>
<path opacity="0.7" d="M232.468 71.7686C232.468 72.2026 232.286 72.6365 232.104 72.6365C231.922 72.6365 231.74 72.2026 231.74 71.7686C231.74 71.3347 231.922 70.9008 232.104 70.9008C232.286 70.9008 232.468 70.9008 232.468 71.7686Z" fill="white"/>
<path opacity="0.7" d="M66.1325 56.1474C66.1325 56.5814 65.9505 57.0153 65.7685 57.0153C65.5865 57.0153 65.4045 56.5814 65.4045 56.1474C65.4045 55.7135 65.5865 55.2795 65.7685 55.2795C65.9505 55.2795 66.1325 55.7135 66.1325 56.1474Z" fill="white"/>
<path opacity="0.7" d="M185.516 307.399C185.516 307.833 185.334 308.267 185.152 308.267C184.97 308.267 184.788 307.833 184.788 307.399C184.788 306.965 184.97 306.531 185.152 306.531C185.334 306.531 185.516 306.965 185.516 307.399Z" fill="white"/>
<path opacity="0.7" d="M82.1471 108.219C82.1471 108.653 81.9652 109.087 81.7832 109.087C81.6012 109.087 81.4192 108.653 81.4192 108.219C81.4192 107.785 81.6012 107.351 81.7832 107.351C81.9652 107.351 82.1471 107.785 82.1471 108.219Z" fill="white"/>
<path opacity="0.7" d="M52.8464 301.319C52.8464 301.753 52.6644 302.186 52.4824 302.186C52.3004 302.186 52.1184 301.753 52.1184 301.319C52.1184 300.885 52.3004 300.451 52.4824 300.451C52.6644 300.451 52.8464 300.885 52.8464 301.319Z" fill="white"/>
<path opacity="0.7" d="M56.6683 20.1312C56.6683 20.9991 56.3043 21.867 55.9404 21.867C55.5764 21.867 55.2124 20.9991 55.2124 20.1312C55.2124 19.2634 55.5764 18.3955 55.9404 18.3955C56.3043 18.3955 56.6683 19.2634 56.6683 20.1312Z" fill="white"/>
<path opacity="0.7" d="M212.813 60.486C212.813 61.3538 212.449 62.2217 212.085 62.2217C211.721 62.2217 211.357 61.3538 211.357 60.486C211.357 59.6181 211.721 58.7502 212.085 58.7502C212.631 58.7502 212.813 59.1842 212.813 60.486Z" fill="white"/>
<path opacity="0.7" d="M9.35193 265.302C9.35193 266.17 9.16994 266.604 8.80597 266.604C8.442 266.604 8.26001 266.17 8.26001 265.302C8.26001 264.434 8.442 264 8.80597 264C9.16994 264 9.35193 264.434 9.35193 265.302Z" fill="white"/>
<path opacity="0.7" d="M93.6123 264.001C93.6123 265.302 93.0664 266.604 92.5204 266.604C91.9744 266.604 91.4285 265.302 91.4285 264.001C91.4285 262.699 91.9744 261.397 92.5204 261.397C93.0664 261.831 93.6123 262.699 93.6123 264.001Z" fill="white"/>
<path opacity="0.7" d="M61.0358 219.305C61.0358 219.739 60.8538 220.173 60.6718 220.173C60.4898 220.173 60.3079 219.739 60.3079 219.305C60.3079 218.871 60.4898 218.437 60.6718 218.437C60.8538 218.003 61.0358 218.437 61.0358 219.305Z" fill="white"/>
<path opacity="0.7" d="M83.4213 291.771C83.4213 292.205 83.2393 292.639 83.0573 292.639C82.8753 292.639 82.6934 292.205 82.6934 291.771C82.6934 291.337 82.8753 290.904 83.0573 290.904C83.2393 290.904 83.4213 291.337 83.4213 291.771Z" fill="white"/>
<path opacity="0.7" d="M259.221 193.269C259.221 193.703 259.039 194.137 258.857 194.137C258.675 194.137 258.493 193.703 258.493 193.269C258.493 192.836 258.675 192.402 258.857 192.402C259.039 192.402 259.221 192.836 259.221 193.269Z" fill="white"/>
<path opacity="0.7" d="M270.14 287.432C270.14 287.866 269.958 288.3 269.776 288.3C269.594 288.3 269.412 287.866 269.412 287.432C269.412 286.998 269.594 286.564 269.776 286.564C269.958 286.564 270.14 286.998 270.14 287.432Z" fill="white"/>
<path opacity="0.7" d="M215.179 281.792C215.179 282.226 214.997 282.66 214.815 282.66C214.633 282.66 214.451 282.226 214.451 281.792C214.451 281.358 214.633 280.924 214.815 280.924C214.997 280.924 215.179 281.358 215.179 281.792Z" fill="white"/>
<path opacity="0.7" d="M291.797 244.04C291.797 244.474 291.615 244.908 291.433 244.908C291.251 244.908 291.069 244.474 291.069 244.04C291.069 243.606 291.251 243.172 291.433 243.172C291.615 242.738 291.797 243.172 291.797 244.04Z" fill="white"/>
<path opacity="0.7" d="M260.677 251.416C260.677 252.284 260.313 253.152 259.949 253.152C259.585 253.152 259.221 252.284 259.221 251.416C259.221 250.548 259.585 249.68 259.949 249.68C260.313 249.68 260.677 250.548 260.677 251.416Z" fill="white"/>
<path opacity="0.7" d="M248.301 162.894C248.301 163.762 247.937 164.63 247.573 164.63C247.209 164.63 246.845 163.762 246.845 162.894C246.845 162.026 247.209 161.158 247.573 161.158C247.937 161.158 248.301 162.026 248.301 162.894Z" fill="white"/>
<path opacity="0.7" d="M260.495 296.979C260.495 297.413 260.313 297.847 260.131 297.847C259.949 297.847 259.767 297.413 259.767 296.979C259.767 296.545 259.949 296.111 260.131 296.111C260.313 296.111 260.495 296.545 260.495 296.979Z" fill="white"/>
<path opacity="0.7" d="M270.14 56.1474C270.14 56.5814 269.958 57.0153 269.776 57.0153C269.594 57.0153 269.412 56.5814 269.412 56.1474C269.412 55.7135 269.594 55.2795 269.776 55.2795C269.958 55.2795 270.14 55.7135 270.14 56.1474Z" fill="white"/>
<path opacity="0.7" d="M267.956 113.426C267.956 113.86 267.774 114.294 267.592 114.294C267.41 114.294 267.228 113.86 267.228 113.426C267.228 112.992 267.41 112.558 267.592 112.558C267.774 112.558 267.956 112.992 267.956 113.426Z" fill="white"/>
<path opacity="0.7" d="M249.03 35.3184C249.03 35.7523 248.848 36.1862 248.666 36.1862C248.484 36.1862 248.302 35.7523 248.302 35.3184C248.302 34.8844 248.484 34.4505 248.666 34.4505C248.848 34.0166 249.03 34.4505 249.03 35.3184Z" fill="white"/>
<path opacity="0.7" d="M260.677 20.1312C260.677 20.9991 260.313 21.867 259.949 21.867C259.585 21.867 259.221 20.9991 259.221 20.1312C259.221 19.2634 259.585 18.3955 259.949 18.3955C260.313 18.3955 260.677 19.2634 260.677 20.1312Z" fill="white"/>
<path opacity="0.7" d="M230.102 150.744C230.102 151.612 229.738 152.48 229.374 152.48C229.01 152.48 228.646 151.612 228.646 150.744C228.646 149.876 229.01 149.008 229.374 149.008C229.738 149.008 230.102 149.876 230.102 150.744Z" fill="white"/>
<path opacity="0.7" d="M220.639 218.438C220.639 218.871 220.457 219.305 220.275 219.305C220.093 219.305 219.911 218.871 219.911 218.438C219.911 218.004 220.093 217.57 220.275 217.57C220.457 217.57 220.639 218.004 220.639 218.438Z" fill="white"/>
<path opacity="0.7" d="M21.181 299.149C21.181 300.017 20.999 300.451 20.6351 300.451C20.2711 300.451 20.0891 300.017 20.0891 299.149C20.0891 298.281 20.2711 297.847 20.6351 297.847C20.999 297.847 21.181 298.281 21.181 299.149Z" fill="white"/>
<path opacity="0.7" d="M164.587 197.175C164.587 198.476 164.041 199.778 163.496 199.778C162.95 199.778 162.404 198.476 162.404 197.175C162.404 195.873 162.95 194.571 163.496 194.571C164.041 195.005 164.587 195.873 164.587 197.175Z" fill="white"/>
<path opacity="0.7" d="M151.848 193.269C151.848 193.703 151.666 194.137 151.484 194.137C151.302 194.137 151.12 193.703 151.12 193.269C151.12 192.836 151.302 192.402 151.484 192.402C151.666 192.402 151.848 192.836 151.848 193.269Z" fill="white"/>
<path opacity="0.7" d="M129.464 89.9939C129.464 90.4278 129.282 90.8618 129.1 90.8618C128.918 90.8618 128.736 90.4278 128.736 89.9939C128.736 89.56 128.918 89.126 129.1 89.126C129.282 88.6921 129.464 89.126 129.464 89.9939Z" fill="white"/>
<path opacity="0.7" d="M162.949 287.432C162.949 287.866 162.767 288.3 162.585 288.3C162.403 288.3 162.221 287.866 162.221 287.432C162.221 286.998 162.403 286.564 162.585 286.564C162.767 286.564 162.949 286.998 162.949 287.432Z" fill="white"/>
<path opacity="0.7" d="M141.839 266.17C141.839 266.604 141.657 267.038 141.475 267.038C141.293 267.038 141.111 266.604 141.111 266.17C141.111 265.736 141.293 265.302 141.475 265.302C141.657 265.302 141.839 265.736 141.839 266.17Z" fill="white"/>
<path opacity="0.7" d="M190.066 301.752C190.066 302.186 189.884 302.62 189.702 302.62C189.52 302.62 189.338 302.186 189.338 301.752C189.338 301.318 189.52 300.884 189.702 300.884C189.884 300.884 190.066 301.318 190.066 301.752Z" fill="white"/>
<path opacity="0.7" d="M132.011 245.341C132.011 245.775 131.829 246.209 131.647 246.209C131.465 246.209 131.283 245.775 131.283 245.341C131.283 244.907 131.465 244.473 131.647 244.473C131.829 244.039 132.011 244.473 132.011 245.341Z" fill="white"/>
<path opacity="0.7" d="M190.066 173.742C190.066 174.176 189.884 174.61 189.702 174.61C189.52 174.61 189.338 174.176 189.338 173.742C189.338 173.308 189.52 172.874 189.702 172.874C189.884 172.874 190.066 173.308 190.066 173.742Z" fill="white"/>
<path opacity="0.7" d="M149.118 150.744C149.118 151.178 148.936 151.612 148.754 151.612C148.572 151.612 148.39 151.178 148.39 150.744C148.39 150.31 148.572 149.876 148.754 149.876C148.936 149.876 149.118 150.31 149.118 150.744Z" fill="white"/>
<path opacity="0.7" d="M104.168 197.174C104.168 198.042 103.804 198.91 103.44 198.91C103.076 198.91 102.712 198.042 102.712 197.174C102.712 196.307 103.076 195.439 103.44 195.439C103.804 195.439 104.168 196.307 104.168 197.174Z" fill="white"/>
<path opacity="0.7" d="M111.629 173.743C111.629 174.611 111.265 175.478 110.901 175.478C110.537 175.478 110.173 174.611 110.173 173.743C110.173 172.875 110.537 172.007 110.901 172.007C111.265 172.007 111.629 172.875 111.629 173.743Z" fill="white"/>
<path opacity="0.7" d="M105.624 290.036C105.624 290.904 105.26 291.772 104.896 291.772C104.532 291.772 104.168 290.904 104.168 290.036C104.168 289.169 104.532 288.301 104.896 288.301C105.26 288.301 105.624 289.169 105.624 290.036Z" fill="white"/>
<path opacity="0.7" d="M140.928 162.894C140.928 163.762 140.564 164.63 140.2 164.63C139.836 164.63 139.472 163.762 139.472 162.894C139.472 162.026 139.836 161.158 140.2 161.158C140.564 161.158 140.928 162.026 140.928 162.894Z" fill="white"/>
<path opacity="0.7" d="M125.095 279.622C125.095 280.489 124.913 280.923 124.549 280.923C124.185 280.923 124.003 280.489 124.003 279.622C124.003 278.754 124.185 278.32 124.549 278.32C124.913 278.32 125.095 278.754 125.095 279.622Z" fill="white"/>
<path opacity="0.7" d="M178.054 229.719C178.054 231.021 177.508 232.323 176.962 232.323C176.416 232.323 175.87 231.021 175.87 229.719C175.87 228.418 176.416 227.116 176.962 227.116C177.69 227.116 178.054 227.984 178.054 229.719Z" fill="white"/>
<path opacity="0.7" d="M126.188 141.198C126.188 142.066 126.006 142.5 125.642 142.5C125.278 142.5 125.096 142.066 125.096 141.198C125.096 140.33 125.278 139.896 125.642 139.896C125.824 139.896 126.188 140.33 126.188 141.198Z" fill="white"/>
<path opacity="0.7" d="M116.179 1.0381C116.179 1.47203 115.997 1.90596 115.815 1.90596C115.633 1.90596 115.451 1.47203 115.451 1.0381C115.451 0.604168 115.633 0.170233 115.815 0.170233C115.997 -0.263699 116.179 0.170236 116.179 1.0381Z" fill="white"/>
<path opacity="0.7" d="M116.542 90.8619C116.542 91.2958 116.36 91.7298 116.178 91.7298C115.996 91.7298 115.814 91.2958 115.814 90.8619C115.814 90.428 115.996 89.994 116.178 89.994C116.36 89.994 116.542 90.428 116.542 90.8619Z" fill="white"/>
<path opacity="0.7" d="M162.949 56.1474C162.949 56.5814 162.767 57.0153 162.585 57.0153C162.403 57.0153 162.221 56.5814 162.221 56.1474C162.221 55.7135 162.403 55.2795 162.585 55.2795C162.767 55.2795 162.949 55.7135 162.949 56.1474Z" fill="white"/>
<path opacity="0.7" d="M160.766 113.426C160.766 113.86 160.584 114.294 160.402 114.294C160.22 114.294 160.038 113.86 160.038 113.426C160.038 112.992 160.22 112.558 160.402 112.558C160.584 112.558 160.766 112.992 160.766 113.426Z" fill="white"/>
<path opacity="0.7" d="M141.839 35.3184C141.839 35.7523 141.657 36.1862 141.475 36.1862C141.293 36.1862 141.111 35.7523 141.111 35.3184C141.111 34.8844 141.293 34.4505 141.475 34.4505C141.657 34.0166 141.839 34.4505 141.839 35.3184Z" fill="white"/>
<path opacity="0.7" d="M178.601 109.087C178.802 109.087 178.965 108.698 178.965 108.219C178.965 107.74 178.802 107.351 178.601 107.351C178.4 107.351 178.237 107.74 178.237 108.219C178.237 108.698 178.4 109.087 178.601 109.087Z" fill="white"/>
<path opacity="0.7" d="M132.194 14.0553C132.194 14.4893 132.012 14.9232 131.83 14.9232C131.648 14.9232 131.466 14.4893 131.466 14.0553C131.466 13.6214 131.648 13.1875 131.83 13.1875C132.012 13.1875 132.194 13.6214 132.194 14.0553Z" fill="white"/>
<path opacity="0.7" d="M10.4439 4.07526C10.4439 5.37706 9.8979 6.67885 9.35193 6.67885C8.80597 6.67885 8.26001 5.37706 8.26001 4.07526C8.26001 2.77347 8.80597 1.47168 9.35193 1.47168C10.0799 1.47168 10.4439 2.77347 10.4439 4.07526Z" fill="white"/>
<path opacity="0.7" d="M153.305 20.1312C153.305 20.9991 152.941 21.867 152.577 21.867C152.213 21.867 151.849 20.9991 151.849 20.1312C151.849 19.2634 152.213 18.3955 152.577 18.3955C152.941 18.3955 153.305 19.2634 153.305 20.1312Z" fill="white"/>
<path opacity="0.7" d="M147.117 111.69C147.117 112.558 146.753 113.426 146.389 113.426C146.025 113.426 145.661 112.558 145.661 111.69C145.661 110.822 146.025 109.954 146.389 109.954C146.935 109.954 147.117 110.822 147.117 111.69Z" fill="white"/>
<path opacity="0.7" d="M134.923 88.6918C134.923 89.5596 134.559 90.4275 134.195 90.4275C133.831 90.4275 133.467 89.5596 133.467 88.6918C133.467 87.8239 133.831 86.9561 134.195 86.9561C134.741 86.9561 134.923 87.39 134.923 88.6918Z" fill="white"/>
<path opacity="0.7" d="M105.624 59.1847C105.624 60.0526 105.26 60.9204 104.896 60.9204C104.532 60.9204 104.168 60.0526 104.168 59.1847C104.168 58.3168 104.532 57.449 104.896 57.449C105.26 57.449 105.624 57.8829 105.624 59.1847Z" fill="white"/>
<path opacity="0.7" d="M125.095 48.3362C125.095 49.2041 124.913 49.638 124.549 49.638C124.185 49.638 124.003 49.2041 124.003 48.3362C124.003 47.4684 124.185 47.0344 124.549 47.0344C124.913 47.0344 125.095 47.9023 125.095 48.3362Z" fill="white"/>
<path opacity="0.7" d="M115.814 110.389C115.814 111.257 115.632 111.69 115.268 111.69C114.904 111.69 114.722 111.257 114.722 110.389C114.722 109.521 114.904 109.087 115.268 109.087C115.45 109.087 115.814 109.521 115.814 110.389Z" fill="white"/>
<path opacity="0.7" d="M148.391 80.8808C148.391 81.7487 148.209 82.1826 147.845 82.1826C147.481 82.1826 147.299 81.7487 147.299 80.8808C147.299 80.0129 147.481 79.579 147.845 79.579C148.027 79.579 148.391 80.0129 148.391 80.8808Z" fill="white"/>
<path opacity="0.7" d="M103.439 104.747C103.439 106.049 102.893 107.351 102.347 107.351C101.801 107.351 101.255 106.049 101.255 104.747C101.255 103.445 101.801 102.144 102.347 102.144C103.075 102.144 103.439 103.445 103.439 104.747Z" fill="white"/>
<path opacity="0.7" d="M156.944 253.152C156.944 253.586 156.762 254.02 156.58 254.02C156.398 254.02 156.216 253.586 156.216 253.152C156.216 252.718 156.398 252.284 156.58 252.284C156.762 252.284 156.944 252.718 156.944 253.152Z" fill="white"/>
<path opacity="0.7" d="M117.816 299.149C117.816 300.017 117.634 300.451 117.27 300.451C116.906 300.451 116.724 300.017 116.724 299.149C116.724 298.281 116.906 297.847 117.27 297.847C117.634 297.847 117.816 298.281 117.816 299.149Z" fill="white"/>
<path opacity="0.7" d="M172.958 39.2237C172.958 39.6576 172.776 40.0915 172.594 40.0915C172.412 40.0915 172.23 39.6576 172.23 39.2237C172.23 38.7898 172.412 38.3558 172.594 38.3558C172.776 38.3558 172.958 38.7898 172.958 39.2237Z" fill="white"/>
<path opacity="0.7" d="M168.592 146.405C168.592 147.707 168.046 149.008 167.5 149.008C166.954 149.008 166.408 147.707 166.408 146.405C166.408 145.103 166.954 143.801 167.5 143.801C168.046 143.801 168.592 145.103 168.592 146.405Z" fill="white"/>
<path opacity="0.7" d="M178.783 106.483C178.783 107.351 178.419 108.219 178.055 108.219C177.691 108.219 177.327 107.351 177.327 106.483C177.327 105.615 177.691 104.747 178.055 104.747C178.601 104.747 178.783 105.615 178.783 106.483Z" fill="white"/>
<path opacity="0.7" d="M191.339 39.2236C191.339 40.0915 190.975 40.9594 190.611 40.9594C190.247 40.9594 189.883 40.0915 189.883 39.2236C189.883 38.3558 190.247 37.4879 190.611 37.4879C191.157 37.4879 191.339 38.3558 191.339 39.2236Z" fill="white"/>
<path opacity="0.7" d="M185.334 155.951C185.334 156.819 184.97 157.687 184.606 157.687C184.242 157.687 183.878 156.819 183.878 155.951C183.878 155.083 184.242 154.215 184.606 154.215C184.97 154.215 185.334 155.083 185.334 155.951Z" fill="white"/>
<path opacity="0.7" d="M197.709 164.63C197.709 165.498 197.527 165.932 197.163 165.932C196.799 165.932 196.617 165.498 196.617 164.63C196.617 163.762 196.799 163.328 197.163 163.328C197.345 163.328 197.709 164.196 197.709 164.63Z" fill="white"/>
<path opacity="0.7" d="M250.667 114.294C250.667 113.86 250.849 113.426 251.031 113.426C251.213 113.426 251.395 113.86 251.395 114.294C251.395 114.728 251.213 115.162 251.031 115.162C250.849 115.596 250.667 115.162 250.667 114.294Z" fill="white"/>
<path opacity="0.7" d="M239.749 20.1311C239.749 19.6971 239.931 19.2632 240.113 19.2632C240.294 19.2632 240.477 19.6971 240.477 20.1311C240.477 20.565 240.294 20.9989 240.113 20.9989C239.931 20.9989 239.749 20.9989 239.749 20.1311Z" fill="white"/>
<path opacity="0.7" d="M212.45 134.255C212.45 133.821 212.632 133.387 212.814 133.387C212.996 133.387 213.178 133.821 213.178 134.255C213.178 134.689 212.996 135.123 212.814 135.123C212.632 135.123 212.45 134.689 212.45 134.255Z" fill="white"/>
<path opacity="0.7" d="M217 27.0739C217 25.7721 217.546 24.4703 218.092 24.4703C218.638 24.4703 219.184 25.7721 219.184 27.0739C219.184 28.3757 218.638 29.6775 218.092 29.6775C217.546 29.6775 217 28.3757 217 27.0739Z" fill="white"/>
<path opacity="0.7" d="M249.212 56.5812C249.212 55.7133 249.576 54.8455 249.94 54.8455C250.304 54.8455 250.668 55.7133 250.668 56.5812C250.668 57.449 250.304 58.3169 249.94 58.3169C249.576 58.3169 249.212 57.449 249.212 56.5812Z" fill="white"/>
<path opacity="0.7" d="M241.932 194.571C241.932 194.137 242.114 193.703 242.296 193.703C242.478 193.703 242.66 194.137 242.66 194.571C242.66 195.005 242.478 195.439 242.296 195.439C242.114 195.439 241.932 195.005 241.932 194.571Z" fill="white"/>
<path opacity="0.7" d="M249.212 287.432C249.212 286.564 249.576 285.697 249.94 285.697C250.304 285.697 250.668 286.564 250.668 287.432C250.668 288.3 250.304 289.168 249.94 289.168C249.576 289.168 249.212 288.734 249.212 287.432Z" fill="white"/>
<path opacity="0.7" d="M80.8735 43.9971C80.8735 43.5632 81.0555 43.1293 81.2375 43.1293C81.4195 43.1293 81.6015 43.5632 81.6015 43.9971C81.6015 44.4311 81.4195 44.865 81.2375 44.865C81.0555 44.865 80.8735 44.4311 80.8735 43.9971Z" fill="white"/>
<path opacity="0.7" d="M217.91 75.2402C217.91 74.3724 218.274 73.5045 218.638 73.5045C219.002 73.5045 219.366 74.3724 219.366 75.2402C219.366 76.1081 219.002 76.9759 218.638 76.9759C218.274 76.9759 217.91 76.1081 217.91 75.2402Z" fill="white"/>
<path opacity="0.7" d="M200.257 17.527C200.257 16.6591 200.621 15.7913 200.985 15.7913C201.349 15.7913 201.713 16.6591 201.713 17.527C201.713 18.3949 201.349 19.2627 200.985 19.2627C200.621 19.2627 200.257 18.3949 200.257 17.527Z" fill="white"/>
<path opacity="0.7" d="M200.257 248.813C200.257 247.945 200.621 247.077 200.985 247.077C201.349 247.077 201.713 247.945 201.713 248.813C201.713 249.68 201.349 250.548 200.985 250.548C200.439 250.548 200.257 249.68 200.257 248.813Z" fill="white"/>
<path opacity="0.7" d="M202.441 203.25C202.441 201.948 202.987 200.646 203.533 200.646C204.079 200.646 204.625 201.948 204.625 203.25C204.625 204.552 204.079 205.854 203.533 205.854C202.805 205.42 202.441 204.552 202.441 203.25Z" fill="white"/>
<path opacity="0.7" d="M338.021 196.307C338.021 197.175 337.839 197.609 337.475 197.609C337.111 197.609 336.929 197.175 336.929 196.307C336.929 195.439 337.111 195.005 337.475 195.005C337.657 195.005 338.021 195.439 338.021 196.307Z" fill="white"/>
<path opacity="0.7" d="M326.375 193.269C326.375 193.703 326.193 194.137 326.011 194.137C325.829 194.137 325.647 193.703 325.647 193.269C325.647 192.836 325.829 192.402 326.011 192.402C326.193 192.402 326.375 192.836 326.375 193.269Z" fill="white"/>
<path opacity="0.7" d="M360.405 196.307C360.405 196.741 360.223 197.175 360.041 197.175C359.859 197.175 359.677 196.741 359.677 196.307C359.677 195.873 359.859 195.439 360.041 195.439C360.223 195.005 360.405 195.439 360.405 196.307Z" fill="white"/>
<path opacity="0.7" d="M337.294 287.432C337.294 287.866 337.112 288.3 336.93 288.3C336.748 288.3 336.566 287.866 336.566 287.432C336.566 286.998 336.748 286.564 336.93 286.564C337.112 286.564 337.294 286.998 337.294 287.432Z" fill="white"/>
<path opacity="0.7" d="M51.0263 63.5238C51.0263 63.9577 50.8443 64.3917 50.6623 64.3917C50.4803 64.3917 50.2983 63.9577 50.2983 63.5238C50.2983 63.0899 50.4803 62.656 50.6623 62.656C50.8443 62.222 51.0263 62.656 51.0263 63.5238Z" fill="white"/>
<path opacity="0.7" d="M405.175 229.72C405.175 230.154 404.993 230.588 404.811 230.588C404.629 230.588 404.447 230.154 404.447 229.72C404.447 229.286 404.629 228.852 404.811 228.852C404.993 228.418 405.175 228.852 405.175 229.72Z" fill="white"/>
<path opacity="0.7" d="M364.409 173.742C364.409 174.176 364.227 174.61 364.045 174.61C363.863 174.61 363.681 174.176 363.681 173.742C363.681 173.308 363.863 172.874 364.045 172.874C364.227 172.874 364.409 173.308 364.409 173.742Z" fill="white"/>
<path opacity="0.7" d="M323.645 150.744C323.645 151.178 323.463 151.612 323.281 151.612C323.099 151.612 322.917 151.178 322.917 150.744C322.917 150.31 323.099 149.876 323.281 149.876C323.463 149.876 323.645 150.31 323.645 150.744Z" fill="white"/>
<path opacity="0.7" d="M316.911 208.891C316.911 209.759 316.729 210.193 316.365 210.193C316.001 210.193 315.819 209.759 315.819 208.891C315.819 208.023 316.001 207.589 316.365 207.589C316.547 207.589 316.911 208.023 316.911 208.891Z" fill="white"/>
<path opacity="0.7" d="M2.4358 42.2614C2.4358 43.5632 1.88984 44.865 1.34388 44.865C0.797916 44.865 0.251953 43.5632 0.251953 42.2614C0.251953 40.9596 0.797916 39.6578 1.34388 39.6578C2.07183 40.0918 2.4358 40.9596 2.4358 42.2614Z" fill="white"/>
<path opacity="0.7" d="M286.156 173.743C286.156 174.611 285.792 175.478 285.428 175.478C285.064 175.478 284.7 174.611 284.7 173.743C284.7 172.875 285.064 172.007 285.428 172.007C285.792 172.007 286.156 172.875 286.156 173.743Z" fill="white"/>
<path opacity="0.7" d="M315.455 162.894C315.455 163.762 315.091 164.63 314.727 164.63C314.363 164.63 313.999 163.762 313.999 162.894C313.999 162.026 314.363 161.158 314.727 161.158C315.091 161.158 315.455 162.026 315.455 162.894Z" fill="white"/>
<path opacity="0.7" d="M290.523 1.0381C290.523 1.47203 290.341 1.90596 290.159 1.90596C289.977 1.90596 289.795 1.47203 289.795 1.0381C289.795 0.604168 289.977 0.170233 290.159 0.170233C290.341 -0.263699 290.523 0.170236 290.523 1.0381Z" fill="white"/>
<path opacity="0.7" d="M366.229 40.5252C366.229 40.9591 366.047 41.393 365.865 41.393C365.683 41.393 365.501 40.9591 365.501 40.5252C365.501 40.0912 365.683 39.6573 365.865 39.6573C366.047 39.2234 366.229 39.6573 366.229 40.5252Z" fill="white"/>
<path opacity="0.7" d="M337.294 56.1474C337.294 56.5814 337.112 57.0153 336.93 57.0153C336.748 57.0153 336.566 56.5814 336.566 56.1474C336.566 55.7135 336.748 55.2795 336.93 55.2795C337.112 55.2795 337.294 55.7135 337.294 56.1474Z" fill="white"/>
<path opacity="0.7" d="M335.11 113.426C335.11 113.86 334.928 114.294 334.746 114.294C334.564 114.294 334.382 113.86 334.382 113.426C334.382 112.992 334.564 112.558 334.746 112.558C334.928 112.558 335.11 112.992 335.11 113.426Z" fill="white"/>
<path opacity="0.7" d="M316.183 35.3184C316.183 35.7523 316.001 36.1862 315.819 36.1862C315.637 36.1862 315.455 35.7523 315.455 35.3184C315.455 34.8844 315.637 34.4505 315.819 34.4505C316.001 34.0166 316.183 34.4505 316.183 35.3184Z" fill="white"/>
<path opacity="0.7" d="M353.309 108.219C353.309 108.653 353.127 109.087 352.945 109.087C352.763 109.087 352.581 108.653 352.581 108.219C352.581 107.785 352.763 107.351 352.945 107.351C353.127 107.351 353.309 107.785 353.309 108.219Z" fill="white"/>
<path opacity="0.7" d="M306.538 14.0553C306.538 14.4893 306.356 14.9232 306.174 14.9232C305.992 14.9232 305.81 14.4893 305.81 14.0553C305.81 13.6214 305.992 13.1875 306.174 13.1875C306.356 13.1875 306.538 13.6214 306.538 14.0553Z" fill="white"/>
<path opacity="0.7" d="M327.83 20.1312C327.83 20.9991 327.466 21.867 327.102 21.867C326.738 21.867 326.374 20.9991 326.374 20.1312C326.374 19.2634 326.738 18.3955 327.102 18.3955C327.466 18.3955 327.83 19.2634 327.83 20.1312Z" fill="white"/>
<path opacity="0.7" d="M321.643 111.69C321.643 112.558 321.279 113.426 320.915 113.426C320.551 113.426 320.187 112.558 320.187 111.69C320.187 110.822 320.551 109.954 320.915 109.954C321.279 109.954 321.643 110.822 321.643 111.69Z" fill="white"/>
<path opacity="0.7" d="M309.45 88.6918C309.45 89.5596 309.086 90.4275 308.722 90.4275C308.358 90.4275 307.994 89.5596 307.994 88.6918C307.994 87.8239 308.358 86.9561 308.722 86.9561C309.086 86.9561 309.45 87.39 309.45 88.6918Z" fill="white"/>
<path opacity="0.7" d="M280.149 59.1847C280.149 60.0526 279.785 60.9204 279.421 60.9204C279.057 60.9204 278.693 60.0526 278.693 59.1847C278.693 58.3168 279.057 57.449 279.421 57.449C279.785 57.449 280.149 57.8829 280.149 59.1847Z" fill="white"/>
<path opacity="0.7" d="M299.441 48.3362C299.441 49.2041 299.259 49.638 298.895 49.638C298.531 49.638 298.349 49.2041 298.349 48.3362C298.349 47.4684 298.531 47.0344 298.895 47.0344C299.259 47.0344 299.441 47.9023 299.441 48.3362Z" fill="white"/>
<path opacity="0.7" d="M332.197 219.305C332.197 219.739 332.015 220.173 331.833 220.173C331.651 220.173 331.469 219.739 331.469 219.305C331.469 218.871 331.651 218.437 331.833 218.437C332.015 218.003 332.197 218.437 332.197 219.305Z" fill="white"/>
<path opacity="0.7" d="M224.461 250.983C224.461 251.85 224.097 252.718 223.733 252.718C223.369 252.718 223.005 251.85 223.005 250.983C223.005 250.115 223.369 249.247 223.733 249.247C224.097 249.247 224.461 249.681 224.461 250.983Z" fill="white"/>
<path opacity="0.7" d="M366.229 290.036C366.229 290.47 366.047 290.904 365.865 290.904C365.683 290.904 365.501 290.47 365.501 290.036C365.501 289.602 365.683 289.168 365.865 289.168C366.047 289.168 366.229 289.602 366.229 290.036Z" fill="white"/>
<path opacity="0.7" d="M292.342 299.149C292.342 300.017 292.16 300.451 291.796 300.451C291.432 300.451 291.25 300.017 291.25 299.149C291.25 298.281 291.432 297.847 291.796 297.847C292.16 297.847 292.342 298.281 292.342 299.149Z" fill="white"/>
<path opacity="0.7" d="M400.625 89.9939C400.625 90.4278 400.443 90.8618 400.261 90.8618C400.079 90.8618 399.897 90.4278 399.897 89.9939C399.897 89.56 400.079 89.126 400.261 89.126C400.443 88.6921 400.625 89.126 400.625 89.9939Z" fill="white"/>
<path opacity="0.7" d="M413 266.17C413 266.604 412.818 267.038 412.636 267.038C412.454 267.038 412.272 266.604 412.272 266.17C412.272 265.736 412.454 265.302 412.636 265.302C412.818 265.302 413 265.736 413 266.17Z" fill="white"/>
<path opacity="0.7" d="M375.329 197.174C375.329 198.042 374.965 198.91 374.601 198.91C374.237 198.91 373.873 198.042 373.873 197.174C373.873 196.307 374.237 195.439 374.601 195.439C374.965 195.439 375.329 196.307 375.329 197.174Z" fill="white"/>
<path opacity="0.7" d="M382.79 173.743C382.79 174.611 382.426 175.478 382.062 175.478C381.698 175.478 381.334 174.611 381.334 173.743C381.334 172.875 381.698 172.007 382.062 172.007C382.608 172.007 382.79 172.875 382.79 173.743Z" fill="white"/>
<path opacity="0.7" d="M376.785 290.036C376.785 290.904 376.421 291.772 376.057 291.772C375.693 291.772 375.329 290.904 375.329 290.036C375.329 289.169 375.693 288.301 376.057 288.301C376.421 288.301 376.785 289.169 376.785 290.036Z" fill="white"/>
<path opacity="0.7" d="M412.09 162.894C412.09 163.762 411.726 164.63 411.362 164.63C410.998 164.63 410.634 163.762 410.634 162.894C410.634 162.026 410.998 161.158 411.362 161.158C411.908 161.158 412.09 162.026 412.09 162.894Z" fill="white"/>
<path opacity="0.7" d="M396.257 279.622C396.257 280.489 396.075 280.923 395.711 280.923C395.347 280.923 395.165 280.489 395.165 279.622C395.165 278.754 395.347 278.32 395.711 278.32C396.075 278.32 396.257 278.754 396.257 279.622Z" fill="white"/>
<path opacity="0.7" d="M397.35 141.198C397.35 142.066 397.168 142.5 396.804 142.5C396.44 142.5 396.258 142.066 396.258 141.198C396.258 140.33 396.44 139.896 396.804 139.896C397.168 139.896 397.35 140.33 397.35 141.198Z" fill="white"/>
<path opacity="0.7" d="M405.175 460.53C405.175 460.964 404.993 461.398 404.811 461.398C404.629 461.398 404.447 460.964 404.447 460.53C404.447 460.096 404.629 459.662 404.811 459.662C404.993 459.228 405.175 459.662 405.175 460.53Z" fill="white"/>
<path opacity="0.7" d="M400.625 320.804C400.625 321.238 400.443 321.672 400.261 321.672C400.079 321.672 399.897 321.238 399.897 320.804C399.897 320.371 400.079 319.937 400.261 319.937C400.443 319.503 400.625 319.937 400.625 320.804Z" fill="white"/>
<path opacity="0.7" d="M375.329 427.985C375.329 428.853 374.965 429.72 374.601 429.72C374.237 429.72 373.873 428.853 373.873 427.985C373.873 427.117 374.237 426.249 374.601 426.249C374.965 426.249 375.329 427.117 375.329 427.985Z" fill="white"/>
<path opacity="0.7" d="M382.79 404.553C382.79 405.421 382.426 406.289 382.062 406.289C381.698 406.289 381.334 405.421 381.334 404.553C381.334 403.685 381.698 402.818 382.062 402.818C382.608 402.818 382.79 403.685 382.79 404.553Z" fill="white"/>
<path opacity="0.7" d="M412.09 393.705C412.09 394.573 411.726 395.44 411.362 395.44C410.998 395.44 410.634 394.573 410.634 393.705C410.634 392.837 410.998 391.969 411.362 391.969C411.908 391.969 412.09 392.837 412.09 393.705Z" fill="white"/>
<path opacity="0.7" d="M397.35 372.008C397.35 372.876 397.168 373.31 396.804 373.31C396.44 373.31 396.258 372.876 396.258 372.008C396.258 371.141 396.44 370.707 396.804 370.707C397.168 370.707 397.35 371.141 397.35 372.008Z" fill="white"/>
<path opacity="0.7" d="M387.341 1.0381C387.341 1.47203 387.159 1.90596 386.977 1.90596C386.795 1.90596 386.613 1.47203 386.613 1.0381C386.613 0.604168 386.795 0.170233 386.977 0.170233C387.159 -0.263699 387.341 0.170236 387.341 1.0381Z" fill="white"/>
<path opacity="0.7" d="M413 35.3184C413 35.7523 412.818 36.1862 412.636 36.1862C412.454 36.1862 412.272 35.7523 412.272 35.3184C412.272 34.8844 412.454 34.4505 412.636 34.4505C412.818 34.0166 413 34.4505 413 35.3184Z" fill="white"/>
<path opacity="0.7" d="M403.355 14.0553C403.355 14.4893 403.173 14.9232 402.991 14.9232C402.809 14.9232 402.627 14.4893 402.627 14.0553C402.627 13.6214 402.809 13.1875 402.991 13.1875C403.173 13.1875 403.355 13.6214 403.355 14.0553Z" fill="white"/>
<path opacity="0.7" d="M179.511 267.038C179.511 268.34 178.965 269.642 178.419 269.642C177.873 269.642 177.327 268.34 177.327 267.038C177.327 265.736 177.873 264.434 178.419 264.434C179.147 264.868 179.511 265.736 179.511 267.038Z" fill="white"/>
<g opacity="0.7">
<path opacity="0.7" d="M200.075 73.0699L200.257 82.1825L204.261 83.0504L200.439 83.4843L200.075 93.0308L199.711 83.4843L195.89 83.0504L199.711 82.1825L200.075 73.0699Z" fill="white"/>
<path opacity="0.7" d="M201.713 78.7112L200.439 82.6166L201.713 86.9559L200.075 83.4844L198.255 87.3898L199.711 83.0505L198.255 78.7112L200.075 82.1826L201.713 78.7112Z" fill="white"/>
</g>
<g opacity="0.7">
<path opacity="0.7" d="M158.764 54.4111L159.128 63.5237L162.95 64.3915L159.128 64.8255L158.764 74.372L158.4 64.8255L154.579 64.3915L158.4 63.5237L158.764 54.4111Z" fill="white"/>
<path opacity="0.7" d="M160.402 60.0522L159.128 64.3916L160.402 68.2969L158.764 65.2594L156.944 68.7309L158.582 64.3916L156.944 60.4862L158.764 63.5237L160.402 60.0522Z" fill="white"/>
</g>
<g opacity="0.7">
<path opacity="0.7" d="M185.153 293.942L185.335 300.017L188.064 300.885H185.335L185.153 307.828L184.971 300.885H182.241L184.971 300.017L185.153 293.942Z" fill="white"/>
<path opacity="0.7" d="M186.245 297.847L185.335 300.451L186.245 303.488L185.153 300.885L183.879 303.488L184.971 300.451L183.879 297.847L185.153 300.017L186.245 297.847Z" fill="white"/>
</g>
<g opacity="0.7">
<path opacity="0.7" d="M94.3403 41.8274L94.5223 47.9024L97.2521 48.7703H94.7042L94.3403 55.7132L94.1583 48.7703H91.4285L94.1583 47.9024L94.3403 41.8274Z" fill="white"/>
<path opacity="0.7" d="M95.6147 45.7324L94.7048 48.336L95.6147 51.3735L94.3408 49.2039L93.0669 51.3735L94.1588 48.7699L93.0669 45.7324L94.3408 47.9021L95.6147 45.7324Z" fill="white"/>
</g>
<g opacity="0.7">
<path opacity="0.7" d="M263.589 34.884L263.771 40.9591L266.5 41.8269H263.771L263.589 48.7698L263.407 41.8269H260.677L263.407 40.9591L263.589 34.884Z" fill="white"/>
<path opacity="0.7" d="M264.863 38.7893L263.771 41.3929L264.863 44.4304L263.589 42.2608L262.315 44.4304L263.407 41.8268L262.315 38.7893L263.589 40.959L264.863 38.7893Z" fill="white"/>
</g>
<g opacity="0.7">
<path opacity="0.7" d="M341.662 268.774L342.026 277.452L345.847 278.754H342.026L341.662 288.734L341.298 278.754H337.476L341.298 277.452L341.662 268.774Z" fill="white"/>
<path opacity="0.7" d="M343.299 273.981L342.025 278.32L343.299 282.659L341.661 279.188L339.842 282.659L341.479 278.32L339.842 274.415L341.661 277.452L343.299 273.981Z" fill="white"/>
</g>
<g opacity="0.7">
<path opacity="0.7" d="M368.05 41.8274L368.232 47.9024L370.962 48.7703H368.232L368.05 55.7132L367.868 48.7703H365.138L367.868 47.9024L368.05 41.8274Z" fill="white"/>
<path opacity="0.7" d="M369.143 45.7324L368.233 48.336L369.143 51.3735L368.051 49.2039L366.777 51.3735L367.869 48.7699L366.777 45.7324L368.051 47.9021L369.143 45.7324Z" fill="white"/>
</g>
<g opacity="0.7">
<path opacity="0.7" d="M309.996 186.327L310.178 192.836L312.908 193.27L310.178 193.703L309.996 200.212L309.814 193.703L307.084 193.27L309.814 192.836L309.996 186.327Z" fill="white"/>
<path opacity="0.7" d="M311.088 190.232L310.178 193.269L311.088 196.307L309.996 193.703L308.722 196.307L309.814 193.269L308.722 190.666L309.996 192.835L311.088 190.232Z" fill="white"/>
</g>
<g opacity="0.7">
<path opacity="0.7" d="M271.414 226.682L271.596 233.191L274.326 233.625L271.596 234.059L271.414 240.568L271.232 234.059L268.502 233.625L271.232 233.191L271.414 226.682Z" fill="white"/>
<path opacity="0.7" d="M272.506 230.587L271.596 233.625L272.506 236.662L271.414 234.059L270.14 236.662L271.232 233.625L270.14 231.021L271.414 233.191L272.506 230.587Z" fill="white"/>
</g>
<g opacity="0.7">
<path opacity="0.7" d="M287.976 54.8455L288.34 60.9205L290.888 61.7884H288.34L287.976 68.7313L287.794 61.7884H285.064L287.794 60.9205L287.976 54.8455Z" fill="white"/>
<path opacity="0.7" d="M289.25 58.7505L288.34 61.3541L289.25 64.3916L288.158 62.2219L286.702 64.3916L287.794 61.788L286.702 58.7505L287.976 60.9201L289.25 58.7505Z" fill="white"/>
</g>
<path opacity="0.7" d="M349.257 534.159C349.257 533.291 349.439 532.857 349.803 532.857C350.167 532.857 350.349 533.291 350.349 534.159C350.349 535.027 350.167 535.461 349.803 535.461C349.621 535.461 349.257 535.027 349.257 534.159Z" fill="white"/>
<path opacity="0.7" d="M326.903 531.273C326.903 530.84 327.085 530.406 327.267 530.406C327.449 530.406 327.631 530.84 327.631 531.273C327.631 531.707 327.449 532.141 327.267 532.141C327.085 532.575 326.903 532.141 326.903 531.273Z" fill="white"/>
<path opacity="0.7" d="M372.632 467.165C372.632 466.731 372.814 466.297 372.996 466.297C373.178 466.297 373.36 466.731 373.36 467.165C373.36 467.599 373.178 468.032 372.996 468.032C372.814 468.032 372.632 467.599 372.632 467.165Z" fill="white"/>
<path opacity="0.7" d="M119.571 487.782C119.571 487.348 119.753 486.915 119.935 486.915C120.117 486.915 120.299 487.348 120.299 487.782C120.299 488.216 120.117 488.65 119.935 488.65C119.753 488.65 119.571 488.216 119.571 487.782Z" fill="white"/>
<path opacity="0.7" d="M321.021 582.232C321.021 581.799 321.203 581.365 321.385 581.365C321.567 581.365 321.749 581.799 321.749 582.232C321.749 582.666 321.567 583.1 321.385 583.1C321.203 583.1 321.021 582.666 321.021 582.232Z" fill="white"/>
<path opacity="0.7" d="M322.401 553.294C322.401 552.86 322.583 552.426 322.765 552.426C322.947 552.426 323.129 552.86 323.129 553.294C323.129 553.728 322.947 554.162 322.765 554.162C322.583 554.162 322.401 553.728 322.401 553.294Z" fill="white"/>
<path opacity="0.7" d="M302.465 702.425C302.465 701.557 302.647 701.123 303.011 701.123C303.375 701.123 303.557 701.557 303.557 702.425C303.557 703.293 303.375 703.727 303.011 703.727C302.647 703.727 302.465 702.859 302.465 702.425Z" fill="white"/>
<path opacity="0.7" d="M305.052 498.104C305.052 497.236 305.416 496.368 305.78 496.368C306.144 496.368 306.508 497.236 306.508 498.104C306.508 498.972 306.144 499.84 305.78 499.84C305.234 499.84 305.052 498.972 305.052 498.104Z" fill="white"/>
<path opacity="0.7" d="M332.339 719.309C332.339 718.441 332.703 717.573 333.067 717.573C333.431 717.573 333.795 718.441 333.795 719.309C333.795 720.177 333.431 721.044 333.067 721.044C332.703 721.044 332.339 720.611 332.339 719.309Z" fill="white"/>
<path opacity="0.7" d="M395.905 583.175C395.905 582.307 396.269 581.439 396.633 581.439C396.997 581.439 397.361 582.307 397.361 583.175C397.361 584.043 396.997 584.91 396.633 584.91C396.269 584.91 395.905 584.043 395.905 583.175Z" fill="white"/>
<path opacity="0.7" d="M409.33 448.008C409.33 447.141 409.694 446.273 410.058 446.273C410.422 446.273 410.786 447.141 410.786 448.008C410.786 448.876 410.422 449.744 410.058 449.744C409.512 449.744 409.33 448.876 409.33 448.008Z" fill="white"/>
<path opacity="0.7" d="M371.041 570.431C371.041 569.564 371.405 568.696 371.769 568.696C372.133 568.696 372.497 569.564 372.497 570.431C372.497 571.299 372.133 572.167 371.769 572.167C371.405 572.167 371.041 571.299 371.041 570.431Z" fill="white"/>
<path opacity="0.7" d="M389.651 455.896C389.651 455.028 389.833 454.594 390.197 454.594C390.561 454.594 390.743 455.028 390.743 455.896C390.743 456.763 390.561 457.197 390.197 457.197C389.833 457.197 389.651 456.763 389.651 455.896Z" fill="white"/>
<path opacity="0.7" d="M376.126 627.986C376.126 627.118 376.308 626.684 376.672 626.684C377.036 626.684 377.218 627.118 377.218 627.986C377.218 628.854 377.036 629.288 376.672 629.288C376.308 629.288 376.126 628.42 376.126 627.986Z" fill="white"/>
<path opacity="0.7" d="M181.092 637.324C181.092 636.89 181.274 636.456 181.456 636.456C181.638 636.456 181.82 636.89 181.82 637.324C181.82 637.757 181.638 638.191 181.456 638.191C181.274 638.191 181.092 638.191 181.092 637.324Z" fill="white"/>
<path opacity="0.7" d="M346.839 674.187C346.839 673.753 347.021 673.319 347.203 673.319C347.385 673.319 347.567 673.753 347.567 674.187C347.567 674.621 347.385 675.054 347.203 675.054C347.021 675.054 346.839 674.621 346.839 674.187Z" fill="white"/>
<path opacity="0.7" d="M332.015 620.142C332.015 619.708 332.197 619.275 332.379 619.275C332.561 619.275 332.743 619.708 332.743 620.142C332.743 620.576 332.561 621.01 332.379 621.01C332.197 621.01 332.015 620.576 332.015 620.142Z" fill="white"/>
<path opacity="0.7" d="M365.607 431.066C365.607 430.632 365.789 430.198 365.97 430.198C366.152 430.198 366.334 430.632 366.334 431.066C366.334 431.5 366.152 431.934 365.97 431.934C365.789 431.934 365.607 431.5 365.607 431.066Z" fill="white"/>
<path opacity="0.7" d="M355.481 711.408C355.481 710.54 355.845 709.672 356.209 709.672C356.573 709.672 356.937 710.54 356.937 711.408C356.937 712.276 356.573 713.144 356.209 713.144C355.845 713.144 355.481 712.276 355.481 711.408Z" fill="white"/>
<path opacity="0.7" d="M200.466 651.149C200.466 650.281 200.829 649.413 201.193 649.413C201.557 649.413 201.921 650.281 201.921 651.149C201.921 652.017 201.557 652.885 201.193 652.885C200.647 652.885 200.466 652.451 200.466 651.149Z" fill="white"/>
<path opacity="0.7" d="M408.23 472.614C408.23 471.747 408.412 471.313 408.776 471.313C409.14 471.313 409.322 471.747 409.322 472.614C409.322 473.482 409.14 473.916 408.776 473.916C408.412 473.916 408.23 473.482 408.23 472.614Z" fill="white"/>
<path opacity="0.7" d="M324.061 463.212C324.061 461.91 324.607 460.608 325.153 460.608C325.699 460.608 326.245 461.91 326.245 463.212C326.245 464.514 325.699 465.816 325.153 465.816C324.607 465.382 324.061 464.514 324.061 463.212Z" fill="white"/>
<path opacity="0.7" d="M355.587 511.915C355.587 511.481 355.769 511.047 355.951 511.047C356.133 511.047 356.315 511.481 356.315 511.915C356.315 512.349 356.133 512.783 355.951 512.783C355.769 513.217 355.587 512.783 355.587 511.915Z" fill="white"/>
<path opacity="0.7" d="M334.861 436.691C334.861 436.257 335.043 435.823 335.225 435.823C335.407 435.823 335.589 436.257 335.589 436.691C335.589 437.125 335.407 437.559 335.225 437.559C335.043 437.559 334.861 437.125 334.861 436.691Z" fill="white"/>
<path opacity="0.7" d="M157.104 512.577C157.104 512.143 157.286 511.709 157.468 511.709C157.65 511.709 157.832 512.143 157.832 512.577C157.832 513.011 157.65 513.445 157.468 513.445C157.286 513.445 157.104 513.011 157.104 512.577Z" fill="white"/>
<path opacity="0.7" d="M148.313 417.154C148.313 416.72 148.495 416.286 148.677 416.286C148.859 416.286 149.041 416.72 149.041 417.154C149.041 417.588 148.859 418.021 148.677 418.021C148.495 418.021 148.313 417.588 148.313 417.154Z" fill="white"/>
<path opacity="0.7" d="M203.068 429.812C203.068 429.378 203.25 428.944 203.432 428.944C203.614 428.944 203.796 429.378 203.796 429.812C203.796 430.246 203.614 430.68 203.432 430.68C203.25 430.68 203.068 430.246 203.068 429.812Z" fill="white"/>
<path opacity="0.7" d="M125.712 457.715C125.712 457.281 125.894 456.847 126.076 456.847C126.258 456.847 126.44 457.281 126.44 457.715C126.44 458.149 126.258 458.583 126.076 458.583C125.894 459.017 125.712 458.583 125.712 457.715Z" fill="white"/>
<path opacity="0.7" d="M156.954 454.375C156.954 453.507 157.317 452.639 157.681 452.639C158.045 452.639 158.409 453.507 158.409 454.375C158.409 455.242 158.045 456.11 157.681 456.11C157.317 456.11 156.954 455.242 156.954 454.375Z" fill="white"/>
<path opacity="0.7" d="M167.326 544.351C167.326 543.483 167.69 542.615 168.054 542.615C168.418 542.615 168.782 543.483 168.782 544.351C168.782 545.219 168.418 546.087 168.054 546.087C167.69 546.087 167.326 545.219 167.326 544.351Z" fill="white"/>
<path opacity="0.7" d="M158.158 408.853C158.158 408.419 158.34 407.985 158.522 407.985C158.704 407.985 158.886 408.419 158.886 408.853C158.886 409.287 158.704 409.721 158.522 409.721C158.34 409.721 158.158 409.287 158.158 408.853Z" fill="white"/>
<path opacity="0.7" d="M143.124 648.106C143.124 647.672 143.306 647.238 143.488 647.238C143.67 647.238 143.852 647.672 143.852 648.106C143.852 648.54 143.67 648.974 143.488 648.974C143.306 648.974 143.124 648.54 143.124 648.106Z" fill="white"/>
<path opacity="0.7" d="M146.59 591.189C146.59 590.755 146.772 590.321 146.954 590.321C147.136 590.321 147.318 590.755 147.318 591.189C147.318 591.623 147.136 592.057 146.954 592.057C146.772 592.057 146.59 591.623 146.59 591.189Z" fill="white"/>
<path opacity="0.7" d="M163.735 671.604C163.735 671.171 163.917 670.737 164.099 670.737C164.281 670.737 164.463 671.171 164.463 671.604C164.463 672.038 164.281 672.472 164.099 672.472C163.917 672.906 163.735 672.472 163.735 671.604Z" fill="white"/>
<path opacity="0.7" d="M151.765 685.327C151.765 684.459 152.129 683.592 152.492 683.592C152.856 683.592 153.22 684.459 153.22 685.327C153.22 686.195 152.856 687.063 152.492 687.063C152.129 687.063 151.765 686.195 151.765 685.327Z" fill="white"/>
<path opacity="0.7" d="M185.226 558.811C185.226 557.943 185.59 557.075 185.954 557.075C186.318 557.075 186.682 557.943 186.682 558.811C186.682 559.679 186.318 560.546 185.954 560.546C185.59 560.546 185.226 559.679 185.226 558.811Z" fill="white"/>
<path opacity="0.7" d="M196.195 492.378C196.195 491.944 196.377 491.51 196.559 491.51C196.741 491.51 196.923 491.944 196.923 492.378C196.923 492.812 196.741 493.246 196.559 493.246C196.377 493.246 196.195 492.812 196.195 492.378Z" fill="white"/>
<path opacity="0.7" d="M397.177 437.304C397.177 436.436 397.359 436.002 397.723 436.002C398.087 436.002 398.269 436.436 398.269 437.304C398.269 438.172 398.087 438.606 397.723 438.606C397.359 438.606 397.177 438.172 397.177 437.304Z" fill="white"/>
<path opacity="0.7" d="M251.688 520.869C251.688 519.567 252.234 518.265 252.78 518.265C253.326 518.265 253.872 519.567 253.872 520.869C253.872 522.17 253.326 523.472 252.78 523.472C252.234 523.038 251.688 522.17 251.688 520.869Z" fill="white"/>
<path opacity="0.7" d="M264.323 526.304C264.323 525.87 264.505 525.436 264.687 525.436C264.869 525.436 265.051 525.87 265.051 526.304C265.051 526.737 264.869 527.171 264.687 527.171C264.505 527.171 264.323 526.737 264.323 526.304Z" fill="white"/>
<path opacity="0.7" d="M284.356 632.292C284.356 631.858 284.538 631.424 284.72 631.424C284.902 631.424 285.084 631.858 285.084 632.292C285.084 632.726 284.902 633.16 284.72 633.16C284.538 633.594 284.356 633.16 284.356 632.292Z" fill="white"/>
<path opacity="0.7" d="M255.35 430.857C255.35 430.423 255.532 429.989 255.714 429.989C255.896 429.989 256.078 430.423 256.078 430.857C256.078 431.291 255.896 431.725 255.714 431.725C255.532 431.725 255.35 431.291 255.35 430.857Z" fill="white"/>
<path opacity="0.7" d="M275.953 454.788C275.953 454.354 276.135 453.92 276.317 453.92C276.499 453.92 276.681 454.354 276.681 454.788C276.681 455.221 276.499 455.655 276.317 455.655C276.135 455.655 275.953 455.221 275.953 454.788Z" fill="white"/>
<path opacity="0.7" d="M228.594 413.091C228.594 412.657 228.776 412.223 228.958 412.223C229.14 412.223 229.322 412.657 229.322 413.091C229.322 413.525 229.14 413.959 228.958 413.959C228.776 413.959 228.594 413.525 228.594 413.091Z" fill="white"/>
<path opacity="0.7" d="M285.297 476.843C285.297 476.409 285.479 475.975 285.661 475.975C285.843 475.975 286.025 476.409 286.025 476.843C286.025 477.277 285.843 477.711 285.661 477.711C285.479 478.145 285.297 477.711 285.297 476.843Z" fill="white"/>
<path opacity="0.7" d="M225.722 540.917C225.722 540.483 225.904 540.049 226.086 540.049C226.268 540.049 226.45 540.483 226.45 540.917C226.45 541.351 226.268 541.785 226.086 541.785C225.904 541.785 225.722 541.351 225.722 540.917Z" fill="white"/>
<path opacity="0.7" d="M266.095 569.117C266.095 568.683 266.277 568.249 266.459 568.249C266.641 568.249 266.823 568.683 266.823 569.117C266.823 569.551 266.641 569.985 266.459 569.985C266.277 569.985 266.095 569.551 266.095 569.117Z" fill="white"/>
<path opacity="0.7" d="M312.021 528.546C312.021 527.679 312.385 526.811 312.749 526.811C313.113 526.811 313.477 527.679 313.477 528.546C313.477 529.414 313.113 530.282 312.749 530.282C312.385 530.282 312.021 529.414 312.021 528.546Z" fill="white"/>
<path opacity="0.7" d="M304.046 550.991C304.046 550.123 304.41 549.255 304.774 549.255C305.137 549.255 305.501 550.123 305.501 550.991C305.501 551.859 305.137 552.727 304.774 552.727C304.41 552.727 304.046 551.859 304.046 550.991Z" fill="white"/>
<path opacity="0.7" d="M312.651 435.631C312.651 434.764 313.015 433.896 313.379 433.896C313.743 433.896 314.107 434.764 314.107 435.631C314.107 436.499 313.743 437.367 313.379 437.367C313.015 437.367 312.651 436.499 312.651 435.631Z" fill="white"/>
<path opacity="0.7" d="M274.545 558.078C274.545 557.21 274.909 556.342 275.273 556.342C275.637 556.342 276.001 557.21 276.001 558.078C276.001 558.945 275.637 559.813 275.273 559.813C274.909 559.813 274.545 558.945 274.545 558.078Z" fill="white"/>
<path opacity="0.7" d="M292.974 443.519C292.974 442.651 293.156 442.217 293.52 442.217C293.884 442.217 294.066 442.651 294.066 443.519C294.066 444.387 293.884 444.821 293.52 444.821C293.156 444.821 292.974 444.387 292.974 443.519Z" fill="white"/>
<path opacity="0.7" d="M238.971 486.649C238.971 485.347 239.517 484.046 240.063 484.046C240.609 484.046 241.155 485.347 241.155 486.649C241.155 487.951 240.609 489.253 240.063 489.253C239.335 489.253 238.971 488.385 238.971 486.649Z" fill="white"/>
<path opacity="0.7" d="M288.777 581.604C288.777 580.736 288.959 580.302 289.323 580.302C289.687 580.302 289.869 580.736 289.869 581.604C289.869 582.472 289.687 582.906 289.323 582.906C289.141 582.906 288.777 582.472 288.777 581.604Z" fill="white"/>
<path opacity="0.7" d="M295.626 722.819C295.626 722.385 295.808 721.951 295.99 721.951C296.172 721.951 296.354 722.385 296.354 722.819C296.354 723.253 296.172 723.687 295.99 723.687C295.808 724.121 295.626 723.687 295.626 722.819Z" fill="white"/>
<path opacity="0.7" d="M297.281 633.078C297.281 632.644 297.463 632.21 297.645 632.21C297.827 632.21 298.009 632.644 298.009 633.078C298.009 633.512 297.827 633.946 297.645 633.946C297.463 633.946 297.281 633.512 297.281 633.078Z" fill="white"/>
<path opacity="0.7" d="M250.162 661.81C250.162 661.376 250.344 660.942 250.526 660.942C250.708 660.942 250.89 661.376 250.89 661.81C250.89 662.244 250.708 662.677 250.526 662.677C250.344 662.677 250.162 662.244 250.162 661.81Z" fill="white"/>
<path opacity="0.7" d="M253.626 604.892C253.626 604.458 253.808 604.024 253.99 604.024C254.172 604.024 254.354 604.458 254.354 604.892C254.354 605.326 254.172 605.76 253.99 605.76C253.808 605.76 253.626 605.326 253.626 604.892Z" fill="white"/>
<path opacity="0.7" d="M270.772 685.308C270.772 684.874 270.954 684.44 271.136 684.44C271.318 684.44 271.5 684.874 271.5 685.308C271.5 685.742 271.318 686.175 271.136 686.175C270.954 686.609 270.772 686.175 270.772 685.308Z" fill="white"/>
<path opacity="0.7" d="M235.701 606.897C235.5 606.897 235.337 607.286 235.337 607.765C235.337 608.244 235.5 608.633 235.701 608.633C235.902 608.633 236.065 608.244 236.065 607.765C236.065 607.286 235.902 606.897 235.701 606.897Z" fill="white"/>
<path opacity="0.7" d="M279.928 707.773C279.928 707.339 280.11 706.905 280.292 706.905C280.474 706.905 280.656 707.339 280.656 707.773C280.656 708.207 280.474 708.641 280.292 708.641C280.11 708.641 279.928 708.207 279.928 707.773Z" fill="white"/>
<path opacity="0.7" d="M401.278 733.396C401.278 732.095 401.824 730.793 402.37 730.793C402.916 730.793 403.462 732.095 403.462 733.396C403.462 734.698 402.916 736 402.37 736C401.642 736 401.278 734.698 401.278 733.396Z" fill="white"/>
<path opacity="0.7" d="M258.984 699.054C258.984 698.186 259.348 697.318 259.711 697.318C260.075 697.318 260.439 698.186 260.439 699.054C260.439 699.922 260.075 700.79 259.711 700.79C259.348 700.79 258.984 699.922 258.984 699.054Z" fill="white"/>
<path opacity="0.7" d="M267.217 608.417C267.217 607.549 267.581 606.682 267.945 606.682C268.309 606.682 268.673 607.549 268.673 608.417C268.673 609.285 268.309 610.153 267.945 610.153C267.399 610.153 267.217 609.285 267.217 608.417Z" fill="white"/>
<path opacity="0.7" d="M278.877 632.942C278.877 632.074 279.241 631.206 279.605 631.206C279.969 631.206 280.333 632.074 280.333 632.942C280.333 633.809 279.969 634.677 279.605 634.677C279.059 634.677 278.877 634.243 278.877 632.942Z" fill="white"/>
<path opacity="0.7" d="M307.472 666.152C307.472 665.284 307.836 664.416 308.2 664.416C308.564 664.416 308.928 665.284 308.928 666.152C308.928 667.02 308.564 667.887 308.2 667.887C307.836 667.887 307.472 667.454 307.472 666.152Z" fill="white"/>
<path opacity="0.7" d="M287.785 674.472C287.785 673.605 287.967 673.171 288.331 673.171C288.695 673.171 288.877 673.605 288.877 674.472C288.877 675.34 288.695 675.774 288.331 675.774C287.967 675.774 287.785 674.906 287.785 674.472Z" fill="white"/>
<path opacity="0.7" d="M298.445 613.695C298.445 612.827 298.627 612.393 298.991 612.393C299.355 612.393 299.537 612.827 299.537 613.695C299.537 614.563 299.355 614.997 298.991 614.997C298.809 614.997 298.445 614.563 298.445 613.695Z" fill="white"/>
<path opacity="0.7" d="M265.254 638.996C265.254 638.128 265.436 637.694 265.799 637.694C266.163 637.694 266.345 638.128 266.345 638.996C266.345 639.864 266.163 640.298 265.799 640.298C265.618 640.298 265.254 639.864 265.254 638.996Z" fill="white"/>
<path opacity="0.7" d="M310.676 620.98C310.676 619.679 311.221 618.377 311.767 618.377C312.313 618.377 312.859 619.679 312.859 620.98C312.859 622.282 312.313 623.584 311.767 623.584C311.04 623.584 310.676 622.282 310.676 620.98Z" fill="white"/>
<path opacity="0.7" d="M260.578 465.856C260.578 465.422 260.76 464.988 260.942 464.988C261.124 464.988 261.306 465.422 261.306 465.856C261.306 466.29 261.124 466.724 260.942 466.724C260.76 466.724 260.578 466.29 260.578 465.856Z" fill="white"/>
<path opacity="0.7" d="M300.681 424.95C300.681 424.082 300.863 423.648 301.227 423.648C301.591 423.648 301.773 424.082 301.773 424.95C301.773 425.818 301.591 426.252 301.227 426.252C300.863 426.252 300.681 425.818 300.681 424.95Z" fill="white"/>
<path opacity="0.7" d="M239.787 677.429C239.787 676.996 239.969 676.562 240.151 676.562C240.333 676.562 240.515 676.996 240.515 677.429C240.515 677.863 240.333 678.297 240.151 678.297C239.969 678.297 239.787 677.863 239.787 677.429Z" fill="white"/>
<path opacity="0.7" d="M246.551 571.054C246.551 569.752 247.097 568.45 247.643 568.45C248.189 568.45 248.735 569.752 248.735 571.054C248.735 572.355 248.189 573.657 247.643 573.657C247.097 573.657 246.551 572.355 246.551 571.054Z" fill="white"/>
<path opacity="0.7" d="M235.479 609.569C235.479 608.701 235.843 607.833 236.207 607.833C236.571 607.833 236.935 608.701 236.935 609.569C236.935 610.437 236.571 611.305 236.207 611.305C235.661 611.305 235.479 610.437 235.479 609.569Z" fill="white"/>
<path opacity="0.7" d="M221.432 675.126C221.432 674.258 221.796 673.391 222.16 673.391C222.524 673.391 222.888 674.258 222.888 675.126C222.888 675.994 222.524 676.862 222.16 676.862C221.614 676.862 221.432 675.994 221.432 675.126Z" fill="white"/>
<path opacity="0.7" d="M230.048 559.334C230.048 558.466 230.411 557.599 230.775 557.599C231.139 557.599 231.503 558.466 231.503 559.334C231.503 560.202 231.139 561.07 230.775 561.07C230.411 561.07 230.048 560.202 230.048 559.334Z" fill="white"/>
<path opacity="0.7" d="M217.885 549.063C217.885 548.195 218.067 547.761 218.431 547.761C218.795 547.761 218.977 548.195 218.977 549.063C218.977 549.93 218.795 550.364 218.431 550.364C218.249 550.364 217.885 549.497 217.885 549.063Z" fill="white"/>
<path opacity="0.7" d="M163.876 592.44C163.876 592.874 163.694 593.308 163.512 593.308C163.33 593.308 163.148 592.874 163.148 592.44C163.148 592.006 163.33 591.572 163.512 591.572C163.694 591.138 163.876 591.572 163.876 592.44Z" fill="white"/>
<path opacity="0.7" d="M172.665 687.863C172.665 688.297 172.483 688.731 172.301 688.731C172.119 688.731 171.937 688.297 171.937 687.863C171.937 687.429 172.119 686.995 172.301 686.995C172.483 686.995 172.665 686.995 172.665 687.863Z" fill="white"/>
<path opacity="0.7" d="M202.484 577.393C202.484 577.827 202.302 578.261 202.12 578.261C201.938 578.261 201.756 577.827 201.756 577.393C201.756 576.959 201.938 576.525 202.12 576.525C202.302 576.525 202.484 576.959 202.484 577.393Z" fill="white"/>
<path opacity="0.7" d="M195.538 683.746C195.538 685.047 194.992 686.349 194.446 686.349C193.9 686.349 193.354 685.047 193.354 683.746C193.354 682.444 193.9 681.142 194.446 681.142C194.992 681.142 195.538 682.444 195.538 683.746Z" fill="white"/>
<path opacity="0.7" d="M164.033 650.209C164.033 651.077 163.669 651.945 163.305 651.945C162.941 651.945 162.577 651.077 162.577 650.209C162.577 649.341 162.941 648.473 163.305 648.473C163.669 648.473 164.033 649.341 164.033 650.209Z" fill="white"/>
<path opacity="0.7" d="M174.398 513.395C174.398 513.829 174.216 514.262 174.034 514.262C173.852 514.262 173.67 513.829 173.67 513.395C173.67 512.961 173.852 512.527 174.034 512.527C174.216 512.527 174.398 512.961 174.398 513.395Z" fill="white"/>
<path opacity="0.7" d="M169.212 419.689C169.212 420.557 168.848 421.425 168.484 421.425C168.12 421.425 167.756 420.557 167.756 419.689C167.756 418.821 168.12 417.954 168.484 417.954C168.848 417.954 169.212 418.388 169.212 419.689Z" fill="white"/>
<path opacity="0.7" d="M331.848 684.342C331.848 684.776 331.666 685.21 331.484 685.21C331.302 685.21 331.12 684.776 331.12 684.342C331.12 683.908 331.302 683.474 331.484 683.474C331.666 683.474 331.848 683.908 331.848 684.342Z" fill="white"/>
<path opacity="0.7" d="M195.709 635.579C195.709 636.447 195.345 637.314 194.981 637.314C194.617 637.314 194.253 636.447 194.253 635.579C194.253 634.711 194.617 633.843 194.981 633.843C195.345 633.843 195.709 634.711 195.709 635.579Z" fill="white"/>
<path opacity="0.7" d="M212.042 695.466C212.042 696.334 211.678 697.201 211.314 697.201C210.95 697.201 210.586 696.334 210.586 695.466C210.586 694.598 210.95 693.73 211.314 693.73C211.678 693.73 212.042 694.598 212.042 695.466Z" fill="white"/>
<path opacity="0.7" d="M217.231 464.512C217.231 465.38 216.867 466.248 216.503 466.248C216.139 466.248 215.775 465.38 215.775 464.512C215.775 463.644 216.139 462.776 216.503 462.776C217.049 462.776 217.231 463.644 217.231 464.512Z" fill="white"/>
<path opacity="0.7" d="M214.028 509.683C214.028 510.985 213.482 512.287 212.936 512.287C212.39 512.287 211.844 510.985 211.844 509.683C211.844 508.382 212.39 507.08 212.936 507.08C213.664 507.514 214.028 508.382 214.028 509.683Z" fill="white"/>
<path opacity="0.7" d="M78.4853 499.494C78.4853 498.626 78.6672 498.192 79.0312 498.192C79.3952 498.192 79.5771 498.626 79.5771 499.494C79.5771 500.361 79.3952 500.795 79.0312 500.795C78.8492 500.795 78.4853 500.361 78.4853 499.494Z" fill="white"/>
<path opacity="0.7" d="M90.0465 503.992C90.0465 503.558 90.2284 503.124 90.4104 503.124C90.5924 503.124 90.7744 503.558 90.7744 503.992C90.7744 504.426 90.5924 504.86 90.4104 504.86C90.2284 504.86 90.0465 504.426 90.0465 503.992Z" fill="white"/>
<path opacity="0.7" d="M56.1309 496.608C56.1309 496.174 56.3129 495.741 56.4949 495.741C56.6769 495.741 56.8589 496.174 56.8589 496.608C56.8589 497.042 56.6769 497.476 56.4949 497.476C56.3129 497.91 56.1309 497.476 56.1309 496.608Z" fill="white"/>
<path opacity="0.7" d="M81.2554 408.569C81.2554 408.135 81.4374 407.701 81.6194 407.701C81.8014 407.701 81.9834 408.135 81.9834 408.569C81.9834 409.003 81.8014 409.437 81.6194 409.437C81.4374 409.437 81.2554 409.003 81.2554 408.569Z" fill="white"/>
<path opacity="0.7" d="M362.087 668.752C362.087 668.318 362.269 667.884 362.451 667.884C362.633 667.884 362.815 668.318 362.815 668.752C362.815 669.186 362.633 669.62 362.451 669.62C362.269 670.054 362.087 669.62 362.087 668.752Z" fill="white"/>
<path opacity="0.7" d="M12.1752 457.52C12.1752 457.086 12.3572 456.652 12.5391 456.652C12.7211 456.652 12.9031 457.086 12.9031 457.52C12.9031 457.954 12.7211 458.388 12.5391 458.388C12.3572 458.822 12.1752 458.388 12.1752 457.52Z" fill="white"/>
<path opacity="0.7" d="M51.6288 518.629C51.6288 518.195 51.8107 517.761 51.9927 517.761C52.1747 517.761 52.3567 518.195 52.3567 518.629C52.3567 519.063 52.1747 519.497 51.9927 519.497C51.8107 519.497 51.6288 519.063 51.6288 518.629Z" fill="white"/>
<path opacity="0.7" d="M91.8184 546.806C91.8184 546.372 92.0004 545.938 92.1824 545.938C92.3644 545.938 92.5464 546.372 92.5464 546.806C92.5464 547.24 92.3644 547.674 92.1824 547.674C92.0004 547.674 91.8184 547.24 91.8184 546.806Z" fill="white"/>
<path opacity="0.7" d="M99.8473 489.626C99.8473 488.758 100.029 488.324 100.393 488.324C100.757 488.324 100.939 488.758 100.939 489.626C100.939 490.494 100.757 490.928 100.393 490.928C100.211 490.928 99.8473 490.494 99.8473 489.626Z" fill="white"/>
<path opacity="0.7" d="M410.132 696.289C410.132 694.987 410.678 693.685 411.224 693.685C411.77 693.685 412.316 694.987 412.316 696.289C412.316 697.591 411.77 698.892 411.224 698.892C410.496 698.458 410.132 697.591 410.132 696.289Z" fill="white"/>
<path opacity="0.7" d="M129.769 528.679C129.769 527.811 130.133 526.943 130.497 526.943C130.861 526.943 131.225 527.811 131.225 528.679C131.225 529.547 130.861 530.415 130.497 530.415C130.133 530.415 129.769 529.547 129.769 528.679Z" fill="white"/>
<path opacity="0.7" d="M100.269 535.766C100.269 534.898 100.633 534.031 100.997 534.031C101.361 534.031 101.725 534.898 101.725 535.766C101.725 536.634 101.361 537.502 100.997 537.502C100.633 537.502 100.269 536.634 100.269 535.766Z" fill="white"/>
<path opacity="0.7" d="M121.533 700.531C121.533 700.097 121.715 699.663 121.897 699.663C122.079 699.663 122.26 700.097 122.26 700.531C122.26 700.965 122.079 701.399 121.897 701.399C121.715 701.833 121.533 701.399 121.533 700.531Z" fill="white"/>
<path opacity="0.7" d="M46.8209 651.422C46.8209 650.988 47.0029 650.554 47.1849 650.554C47.3668 650.554 47.5488 650.988 47.5488 651.422C47.5488 651.856 47.3668 652.29 47.1849 652.29C47.0029 652.724 46.8209 652.29 46.8209 651.422Z" fill="white"/>
<path opacity="0.7" d="M76.0667 639.522C76.0667 639.088 76.2487 638.654 76.4307 638.654C76.6127 638.654 76.7947 639.088 76.7947 639.522C76.7947 639.955 76.6127 640.389 76.4307 640.389C76.2487 640.389 76.0667 639.955 76.0667 639.522Z" fill="white"/>
<path opacity="0.7" d="M79.5325 582.604C79.5325 582.17 79.7145 581.736 79.8965 581.736C80.0785 581.736 80.2605 582.17 80.2605 582.604C80.2605 583.038 80.0785 583.472 79.8965 583.472C79.7145 583.472 79.5325 583.038 79.5325 582.604Z" fill="white"/>
<path opacity="0.7" d="M96.6785 663.02C96.6785 662.586 96.8605 662.152 97.0425 662.152C97.2245 662.152 97.4065 662.586 97.4065 663.02C97.4065 663.454 97.2245 663.888 97.0425 663.888C96.8605 664.322 96.6785 663.888 96.6785 663.02Z" fill="white"/>
<path opacity="0.7" d="M61.2432 585.477C61.2432 585.043 61.4252 584.609 61.6072 584.609C61.7892 584.609 61.9712 585.043 61.9712 585.477C61.9712 585.911 61.7892 586.345 61.6072 586.345C61.4252 586.345 61.2432 585.911 61.2432 585.477Z" fill="white"/>
<path opacity="0.7" d="M105.835 685.485C105.835 685.051 106.017 684.617 106.199 684.617C106.381 684.617 106.563 685.051 106.563 685.485C106.563 685.919 106.381 686.353 106.199 686.353C106.017 686.353 105.835 685.919 105.835 685.485Z" fill="white"/>
<path opacity="0.7" d="M84.7089 676.742C84.7089 675.874 85.0729 675.007 85.4369 675.007C85.8008 675.007 86.1648 675.874 86.1648 676.742C86.1648 677.61 85.8008 678.478 85.4369 678.478C85.0729 678.478 84.7089 677.61 84.7089 676.742Z" fill="white"/>
<path opacity="0.7" d="M92.9406 586.106C92.9406 585.238 93.3046 584.37 93.6685 584.37C94.0325 584.37 94.3965 585.238 94.3965 586.106C94.3965 586.974 94.0325 587.842 93.6685 587.842C93.3046 587.842 92.9406 586.974 92.9406 586.106Z" fill="white"/>
<path opacity="0.7" d="M104.601 610.63C104.601 609.762 104.965 608.894 105.329 608.894C105.693 608.894 106.057 609.762 106.057 610.63C106.057 611.498 105.693 612.366 105.329 612.366C104.965 612.366 104.601 611.932 104.601 610.63Z" fill="white"/>
<path opacity="0.7" d="M133.197 643.84C133.197 642.973 133.561 642.105 133.925 642.105C134.289 642.105 134.653 642.973 134.653 643.84C134.653 644.708 134.289 645.576 133.925 645.576C133.561 645.576 133.197 645.142 133.197 643.84Z" fill="white"/>
<path opacity="0.7" d="M113.69 652.184C113.69 651.316 113.872 650.882 114.236 650.882C114.6 650.882 114.782 651.316 114.782 652.184C114.782 653.052 114.6 653.486 114.236 653.486C113.872 653.486 113.69 652.618 113.69 652.184Z" fill="white"/>
<path opacity="0.7" d="M84.8146 477.25C84.8146 476.816 84.9965 476.382 85.1785 476.382C85.3605 476.382 85.5425 476.816 85.5425 477.25C85.5425 477.684 85.3605 478.118 85.1785 478.118C84.9965 478.552 84.8146 478.118 84.8146 477.25Z" fill="white"/>
<path opacity="0.7" d="M193.108 459.437C193.108 458.569 193.472 457.701 193.836 457.701C194.2 457.701 194.564 458.569 194.564 459.437C194.564 460.305 194.2 461.173 193.836 461.173C193.472 461.173 193.108 460.739 193.108 459.437Z" fill="white"/>
<path opacity="0.7" d="M52.4205 402.27C52.4205 401.836 52.6025 401.402 52.7845 401.402C52.9665 401.402 53.1484 401.836 53.1484 402.27C53.1484 402.704 52.9665 403.137 52.7845 403.137C52.6025 403.137 52.4205 402.704 52.4205 402.27Z" fill="white"/>
<path opacity="0.7" d="M126.405 402.639C126.405 401.771 126.587 401.337 126.951 401.337C127.315 401.337 127.497 401.771 127.497 402.639C127.497 403.507 127.315 403.941 126.951 403.941C126.587 403.941 126.405 403.507 126.405 402.639Z" fill="white"/>
<path opacity="0.7" d="M13.5838 597.627C13.5838 597.193 13.7658 596.759 13.9478 596.759C14.1298 596.759 14.3118 597.193 14.3118 597.627C14.3118 598.061 14.1298 598.495 13.9478 598.495C13.7658 598.929 13.5838 598.495 13.5838 597.627Z" fill="white"/>
<path opacity="0.7" d="M5.18126 420.122C5.18126 419.688 5.36324 419.254 5.54522 419.254C5.7272 419.254 5.90918 419.688 5.90918 420.122C5.90918 420.556 5.7272 420.99 5.54522 420.99C5.36324 420.99 5.18126 420.556 5.18126 420.122Z" fill="white"/>
<path opacity="0.7" d="M41.2494 493.881C41.2494 493.013 41.6134 492.145 41.9774 492.145C42.3413 492.145 42.7053 493.013 42.7053 493.881C42.7053 494.749 42.3413 495.617 41.9774 495.617C41.6134 495.617 41.2494 494.749 41.2494 493.881Z" fill="white"/>
<path opacity="0.7" d="M33.2733 516.325C33.2733 515.458 33.6373 514.59 34.0013 514.59C34.3653 514.59 34.7292 515.458 34.7292 516.325C34.7292 517.193 34.3653 518.061 34.0013 518.061C33.4553 518.061 33.2733 517.193 33.2733 516.325Z" fill="white"/>
<path opacity="0.7" d="M41.879 400.967C41.879 400.099 42.243 399.231 42.607 399.231C42.971 399.231 43.335 400.099 43.335 400.967C43.335 401.834 42.971 402.702 42.607 402.702C42.243 402.702 41.879 401.834 41.879 400.967Z" fill="white"/>
<path opacity="0.7" d="M3.77268 523.412C3.77268 522.545 4.13663 521.677 4.5006 521.677C4.86456 521.677 5.22852 522.545 5.22852 523.412C5.22852 524.28 4.86456 525.148 4.5006 525.148C3.95465 525.148 3.77268 524.28 3.77268 523.412Z" fill="white"/>
<path opacity="0.7" d="M22.2018 408.854C22.2018 407.986 22.3838 407.552 22.7478 407.552C23.1117 407.552 23.2937 407.986 23.2937 408.854C23.2937 409.722 23.1117 410.156 22.7478 410.156C22.3838 410.156 22.2018 409.722 22.2018 408.854Z" fill="white"/>
<path opacity="0.7" d="M18.005 546.939C18.005 546.071 18.187 545.637 18.551 545.637C18.9149 545.637 19.0969 546.071 19.0969 546.939C19.0969 547.807 18.9149 548.241 18.551 548.241C18.187 548.241 18.005 547.807 18.005 546.939Z" fill="white"/>
<path opacity="0.7" d="M24.8536 688.154C24.8536 687.72 25.0356 687.286 25.2176 687.286C25.3995 687.286 25.5815 687.72 25.5815 688.154C25.5815 688.588 25.3995 689.022 25.2176 689.022C25.0356 689.456 24.8536 689.022 24.8536 688.154Z" fill="white"/>
<path opacity="0.7" d="M-0.000134051 650.643C-0.000134051 650.209 0.181843 649.775 0.363825 649.775C0.545807 649.775 0.727783 650.209 0.727783 650.643C0.727783 651.077 0.545807 651.51 0.363825 651.51C0.181843 651.944 -0.000134051 651.51 -0.000134051 650.643Z" fill="white"/>
<path opacity="0.7" d="M9.15583 673.108C9.15583 672.674 9.33784 672.24 9.51982 672.24C9.70181 672.24 9.88379 672.674 9.88379 673.108C9.88379 673.542 9.70181 673.976 9.51982 673.976C9.33784 673.976 9.15583 673.542 9.15583 673.108Z" fill="white"/>
<path opacity="0.7" d="M238.354 449.198C238.354 447.896 238.9 446.594 239.446 446.594C239.992 446.594 240.538 447.896 240.538 449.198C240.538 450.499 239.992 451.801 239.446 451.801C238.718 451.367 238.354 450.499 238.354 449.198Z" fill="white"/>
<g opacity="0.7">
<path opacity="0.7" d="M213.692 640.133L213.51 631.02L209.507 630.152L213.328 629.718L213.692 620.172L214.056 629.718L217.878 630.152L214.056 631.02L213.692 640.133Z" fill="white"/>
<path opacity="0.7" d="M212.054 634.492L213.328 630.586L212.054 626.247L213.692 629.718L215.512 625.813L214.056 630.152L215.512 634.492L213.692 631.02L212.054 634.492Z" fill="white"/>
</g>
<g opacity="0.7">
<path opacity="0.7" d="M254.525 664.046L254.161 654.934L250.34 654.066L254.161 653.632L254.525 644.086L254.889 653.632L258.711 654.066L254.889 654.934L254.525 664.046Z" fill="white"/>
<path opacity="0.7" d="M252.888 658.405L254.162 654.066L252.888 650.16L254.526 653.198L256.346 649.726L254.708 654.066L256.346 657.971L254.526 654.934L252.888 658.405Z" fill="white"/>
</g>
<g opacity="0.7">
<path opacity="0.7" d="M233.481 421.481L233.299 415.406L230.569 414.538H233.299L233.481 407.596L233.663 414.538H236.393L233.663 415.406L233.481 421.481Z" fill="white"/>
<path opacity="0.7" d="M232.388 417.576L233.298 414.973L232.388 411.935L233.48 414.539L234.754 411.935L233.662 414.973L234.754 417.576L233.48 415.407L232.388 417.576Z" fill="white"/>
</g>
<g opacity="0.7">
<path opacity="0.7" d="M318.507 684.844L318.325 678.769L315.595 677.901H318.143L318.507 670.958L318.689 677.901H321.418L318.689 678.769L318.507 684.844Z" fill="white"/>
<path opacity="0.7" d="M317.232 680.939L318.142 678.335L317.232 675.298L318.506 677.467L319.78 675.298L318.688 677.901L319.78 680.939L318.506 678.769L317.232 680.939Z" fill="white"/>
</g>
<g opacity="0.7">
<path opacity="0.7" d="M149.346 670.14L149.164 664.065L146.434 663.197H149.164L149.346 656.255L149.528 663.197H152.257L149.528 664.065L149.346 670.14Z" fill="white"/>
<path opacity="0.7" d="M148.071 666.236L149.163 663.632L148.071 660.594L149.345 662.764L150.619 660.594L149.527 663.198L150.619 666.236L149.345 664.066L148.071 666.236Z" fill="white"/>
</g>
<g opacity="0.7">
<path opacity="0.7" d="M76.6998 426.61L76.3358 417.931L72.5141 416.63H76.3358L76.6998 406.649L77.0638 416.63H80.8855L77.0638 417.931L76.6998 426.61Z" fill="white"/>
<path opacity="0.7" d="M75.0622 421.403L76.3362 417.064L75.0622 412.724L76.7001 416.196L78.52 412.724L76.8821 417.064L78.52 420.969L76.7001 417.931L75.0622 421.403Z" fill="white"/>
</g>
<g opacity="0.7">
<path opacity="0.7" d="M45.1895 649.853L45.0075 643.778L42.2777 642.91H45.0075L45.1895 635.967L45.3715 642.91H48.1013L45.3715 643.778L45.1895 649.853Z" fill="white"/>
<path opacity="0.7" d="M44.0968 645.948L45.0067 643.344L44.0968 640.307L45.1887 642.476L46.4626 640.307L45.3707 642.91L46.4626 645.948L45.1887 643.778L44.0968 645.948Z" fill="white"/>
</g>
<g opacity="0.7">
<path opacity="0.7" d="M106.403 512.983L106.221 506.474L103.491 506.04L106.221 505.606L106.403 499.097L106.585 505.606L109.314 506.04L106.585 506.474L106.403 512.983Z" fill="white"/>
<path opacity="0.7" d="M105.31 509.077L106.22 506.04L105.31 503.002L106.402 505.606L107.676 503.002L106.584 506.04L107.676 508.643L106.402 506.474L105.31 509.077Z" fill="white"/>
</g>
<g opacity="0.7">
<path opacity="0.7" d="M145.835 477.617L145.653 471.108L142.923 470.674L145.653 470.24L145.835 463.731L146.017 470.24L148.746 470.674L146.017 471.108L145.835 477.617Z" fill="white"/>
<path opacity="0.7" d="M144.742 473.712L145.652 470.674L144.742 467.637L145.834 470.24L147.108 467.637L146.016 470.674L147.108 473.278L145.834 471.108L144.742 473.712Z" fill="white"/>
</g>
<path opacity="0.7" d="M349.257 368.264C349.257 367.396 349.439 366.962 349.803 366.962C350.167 366.962 350.349 367.396 350.349 368.264C350.349 369.132 350.167 369.565 349.803 369.565C349.621 369.565 349.257 369.132 349.257 368.264Z" fill="white"/>
<path opacity="0.7" d="M326.903 365.378C326.903 364.944 327.085 364.511 327.267 364.511C327.449 364.511 327.631 364.944 327.631 365.378C327.631 365.812 327.449 366.246 327.267 366.246C327.085 366.68 326.903 366.246 326.903 365.378Z" fill="white"/>
<path opacity="0.7" d="M119.571 321.887C119.571 321.453 119.753 321.019 119.935 321.019C120.117 321.019 120.299 321.453 120.299 321.887C120.299 322.321 120.117 322.755 119.935 322.755C119.753 322.755 119.571 322.321 119.571 321.887Z" fill="white"/>
<path opacity="0.7" d="M322.401 387.399C322.401 386.966 322.583 386.532 322.765 386.532C322.947 386.532 323.129 386.966 323.129 387.399C323.129 387.833 322.947 388.267 322.765 388.267C322.583 388.267 322.401 387.833 322.401 387.399Z" fill="white"/>
<path opacity="0.7" d="M305.052 332.209C305.052 331.341 305.416 330.473 305.78 330.473C306.144 330.473 306.508 331.341 306.508 332.209C306.508 333.077 306.144 333.945 305.78 333.945C305.234 333.945 305.052 333.077 305.052 332.209Z" fill="white"/>
<path opacity="0.7" d="M371.041 404.536C371.041 403.669 371.405 402.801 371.769 402.801C372.133 402.801 372.497 403.669 372.497 404.536C372.497 405.404 372.133 406.272 371.769 406.272C371.405 406.272 371.041 405.404 371.041 404.536Z" fill="white"/>
<path opacity="0.7" d="M355.587 346.02C355.587 345.586 355.769 345.152 355.951 345.152C356.133 345.152 356.315 345.586 356.315 346.02C356.315 346.454 356.133 346.888 355.951 346.888C355.769 347.322 355.587 346.888 355.587 346.02Z" fill="white"/>
<path opacity="0.7" d="M157.104 346.682C157.104 346.248 157.286 345.814 157.468 345.814C157.65 345.814 157.832 346.248 157.832 346.682C157.832 347.116 157.65 347.55 157.468 347.55C157.286 347.55 157.104 347.116 157.104 346.682Z" fill="white"/>
<path opacity="0.7" d="M167.326 378.456C167.326 377.589 167.69 376.721 168.054 376.721C168.418 376.721 168.782 377.589 168.782 378.456C168.782 379.324 168.418 380.192 168.054 380.192C167.69 380.192 167.326 379.324 167.326 378.456Z" fill="white"/>
<path opacity="0.7" d="M185.226 392.916C185.226 392.048 185.59 391.18 185.954 391.18C186.318 391.18 186.682 392.048 186.682 392.916C186.682 393.784 186.318 394.651 185.954 394.651C185.59 394.651 185.226 393.784 185.226 392.916Z" fill="white"/>
<path opacity="0.7" d="M196.195 326.483C196.195 326.049 196.377 325.615 196.559 325.615C196.741 325.615 196.923 326.049 196.923 326.483C196.923 326.917 196.741 327.351 196.559 327.351C196.377 327.351 196.195 326.917 196.195 326.483Z" fill="white"/>
<path opacity="0.7" d="M251.688 354.974C251.688 353.672 252.234 352.37 252.78 352.37C253.326 352.37 253.872 353.672 253.872 354.974C253.872 356.275 253.326 357.577 252.78 357.577C252.234 357.143 251.688 356.275 251.688 354.974Z" fill="white"/>
<path opacity="0.7" d="M264.323 360.409C264.323 359.975 264.505 359.541 264.687 359.541C264.869 359.541 265.051 359.975 265.051 360.409C265.051 360.843 264.869 361.277 264.687 361.277C264.505 361.277 264.323 360.843 264.323 360.409Z" fill="white"/>
<path opacity="0.7" d="M285.297 310.948C285.297 310.514 285.479 310.08 285.661 310.08C285.843 310.08 286.025 310.514 286.025 310.948C286.025 311.382 285.843 311.816 285.661 311.816C285.479 312.25 285.297 311.816 285.297 310.948Z" fill="white"/>
<path opacity="0.7" d="M225.722 375.022C225.722 374.588 225.904 374.154 226.086 374.154C226.268 374.154 226.45 374.588 226.45 375.022C226.45 375.456 226.268 375.89 226.086 375.89C225.904 375.89 225.722 375.456 225.722 375.022Z" fill="white"/>
<path opacity="0.7" d="M266.095 403.222C266.095 402.788 266.277 402.354 266.459 402.354C266.641 402.354 266.823 402.788 266.823 403.222C266.823 403.656 266.641 404.09 266.459 404.09C266.277 404.09 266.095 403.656 266.095 403.222Z" fill="white"/>
<path opacity="0.7" d="M312.021 362.651C312.021 361.783 312.385 360.916 312.749 360.916C313.113 360.916 313.477 361.783 313.477 362.651C313.477 363.519 313.113 364.387 312.749 364.387C312.385 364.387 312.021 363.519 312.021 362.651Z" fill="white"/>
<path opacity="0.7" d="M304.046 385.096C304.046 384.228 304.41 383.36 304.774 383.36C305.137 383.36 305.501 384.228 305.501 385.096C305.501 385.964 305.137 386.831 304.774 386.831C304.41 386.831 304.046 385.964 304.046 385.096Z" fill="white"/>
<path opacity="0.7" d="M274.545 392.183C274.545 391.315 274.909 390.447 275.273 390.447C275.637 390.447 276.001 391.315 276.001 392.183C276.001 393.051 275.637 393.918 275.273 393.918C274.909 393.918 274.545 393.051 274.545 392.183Z" fill="white"/>
<path opacity="0.7" d="M238.971 320.754C238.971 319.452 239.517 318.15 240.063 318.15C240.609 318.15 241.155 319.452 241.155 320.754C241.155 322.056 240.609 323.358 240.063 323.358C239.335 323.358 238.971 322.49 238.971 320.754Z" fill="white"/>
<path opacity="0.7" d="M246.551 405.159C246.551 403.857 247.097 402.555 247.643 402.555C248.189 402.555 248.735 403.857 248.735 405.159C248.735 406.46 248.189 407.762 247.643 407.762C247.097 407.762 246.551 406.46 246.551 405.159Z" fill="white"/>
<path opacity="0.7" d="M230.048 393.439C230.048 392.571 230.411 391.704 230.775 391.704C231.139 391.704 231.503 392.571 231.503 393.439C231.503 394.307 231.139 395.175 230.775 395.175C230.411 395.175 230.048 394.307 230.048 393.439Z" fill="white"/>
<path opacity="0.7" d="M217.885 383.167C217.885 382.3 218.067 381.866 218.431 381.866C218.795 381.866 218.977 382.3 218.977 383.167C218.977 384.035 218.795 384.469 218.431 384.469C218.249 384.469 217.885 383.601 217.885 383.167Z" fill="white"/>
<path opacity="0.7" d="M202.484 411.498C202.484 411.932 202.302 412.366 202.12 412.366C201.938 412.366 201.756 411.932 201.756 411.498C201.756 411.064 201.938 410.63 202.12 410.63C202.302 410.63 202.484 411.064 202.484 411.498Z" fill="white"/>
<path opacity="0.7" d="M174.398 347.5C174.398 347.934 174.216 348.367 174.034 348.367C173.852 348.367 173.67 347.934 173.67 347.5C173.67 347.066 173.852 346.632 174.034 346.632C174.216 346.632 174.398 347.066 174.398 347.5Z" fill="white"/>
<path opacity="0.7" d="M214.028 343.788C214.028 345.09 213.482 346.392 212.936 346.392C212.39 346.392 211.844 345.09 211.844 343.788C211.844 342.487 212.39 341.185 212.936 341.185C213.664 341.619 214.028 342.487 214.028 343.788Z" fill="white"/>
<path opacity="0.7" d="M78.4853 333.599C78.4853 332.731 78.6672 332.297 79.0312 332.297C79.3952 332.297 79.5771 332.731 79.5771 333.599C79.5771 334.466 79.3952 334.9 79.0312 334.9C78.8492 334.9 78.4853 334.466 78.4853 333.599Z" fill="white"/>
<path opacity="0.7" d="M90.0465 338.097C90.0465 337.663 90.2284 337.229 90.4104 337.229C90.5924 337.229 90.7744 337.663 90.7744 338.097C90.7744 338.531 90.5924 338.965 90.4104 338.965C90.2284 338.965 90.0465 338.531 90.0465 338.097Z" fill="white"/>
<path opacity="0.7" d="M56.1309 330.713C56.1309 330.279 56.3129 329.846 56.4949 329.846C56.6769 329.846 56.8589 330.279 56.8589 330.713C56.8589 331.147 56.6769 331.581 56.4949 331.581C56.3129 332.015 56.1309 331.581 56.1309 330.713Z" fill="white"/>
<path opacity="0.7" d="M51.6288 352.734C51.6288 352.3 51.8107 351.866 51.9927 351.866C52.1747 351.866 52.3567 352.3 52.3567 352.734C52.3567 353.168 52.1747 353.602 51.9927 353.602C51.8107 353.602 51.6288 353.168 51.6288 352.734Z" fill="white"/>
<path opacity="0.7" d="M91.8184 380.911C91.8184 380.477 92.0004 380.043 92.1824 380.043C92.3644 380.043 92.5464 380.477 92.5464 380.911C92.5464 381.345 92.3644 381.779 92.1824 381.779C92.0004 381.779 91.8184 381.345 91.8184 380.911Z" fill="white"/>
<path opacity="0.7" d="M99.8473 323.731C99.8473 322.863 100.029 322.429 100.393 322.429C100.757 322.429 100.939 322.863 100.939 323.731C100.939 324.599 100.757 325.033 100.393 325.033C100.211 325.033 99.8473 324.599 99.8473 323.731Z" fill="white"/>
<path opacity="0.7" d="M129.769 362.784C129.769 361.917 130.133 361.049 130.497 361.049C130.861 361.049 131.225 361.917 131.225 362.784C131.225 363.652 130.861 364.52 130.497 364.52C130.133 364.52 129.769 363.652 129.769 362.784Z" fill="white"/>
<path opacity="0.7" d="M100.269 369.871C100.269 369.003 100.633 368.135 100.997 368.135C101.361 368.135 101.725 369.003 101.725 369.871C101.725 370.739 101.361 371.607 100.997 371.607C100.633 371.607 100.269 370.739 100.269 369.871Z" fill="white"/>
<path opacity="0.7" d="M84.8146 311.355C84.8146 310.921 84.9965 310.487 85.1785 310.487C85.3605 310.487 85.5425 310.921 85.5425 311.355C85.5425 311.789 85.3605 312.223 85.1785 312.223C84.9965 312.657 84.8146 312.223 84.8146 311.355Z" fill="white"/>
<path opacity="0.7" d="M41.2494 327.986C41.2494 327.118 41.6134 326.25 41.9774 326.25C42.3413 326.25 42.7053 327.118 42.7053 327.986C42.7053 328.854 42.3413 329.722 41.9774 329.722C41.6134 329.722 41.2494 328.854 41.2494 327.986Z" fill="white"/>
<path opacity="0.7" d="M33.2733 350.43C33.2733 349.563 33.6373 348.695 34.0013 348.695C34.3653 348.695 34.7292 349.563 34.7292 350.43C34.7292 351.298 34.3653 352.166 34.0013 352.166C33.4553 352.166 33.2733 351.298 33.2733 350.43Z" fill="white"/>
<path opacity="0.7" d="M3.77268 357.517C3.77268 356.65 4.13663 355.782 4.5006 355.782C4.86456 355.782 5.22852 356.65 5.22852 357.517C5.22852 358.385 4.86456 359.253 4.5006 359.253C3.95465 359.253 3.77268 358.385 3.77268 357.517Z" fill="white"/>
<path opacity="0.7" d="M18.005 381.044C18.005 380.176 18.187 379.742 18.551 379.742C18.9149 379.742 19.0969 380.176 19.0969 381.044C19.0969 381.912 18.9149 382.346 18.551 382.346C18.187 382.346 18.005 381.912 18.005 381.044Z" fill="white"/>
<g opacity="0.7">
<path opacity="0.7" d="M106.403 347.087L106.221 340.578L103.491 340.145L106.221 339.711L106.403 333.202L106.585 339.711L109.314 340.145L106.585 340.578L106.403 347.087Z" fill="white"/>
<path opacity="0.7" d="M105.31 343.182L106.22 340.145L105.31 337.107L106.402 339.711L107.676 337.107L106.584 340.145L107.676 342.748L106.402 340.579L105.31 343.182Z" fill="white"/>
</g>
<g opacity="0.7">
<path opacity="0.7" d="M145.835 311.722L145.653 305.213L142.923 304.779L145.653 304.345L145.835 297.836L146.017 304.345L148.746 304.779L146.017 305.213L145.835 311.722Z" fill="white"/>
<path opacity="0.7" d="M144.742 307.817L145.652 304.779L144.742 301.742L145.834 304.345L147.108 301.742L146.016 304.779L147.108 307.383L145.834 305.213L144.742 307.817Z" fill="white"/>
</g>
<g opacity="0.7">
<path opacity="0.7" d="M125.441 647.09L125.077 641.015L122.529 640.147H125.077L125.441 633.204L125.623 640.147H128.353L125.623 641.015L125.441 647.09Z" fill="white"/>
<path opacity="0.7" d="M124.167 643.185L125.077 640.581L124.167 637.544L125.259 639.713L126.715 637.544L125.623 640.147L126.715 643.185L125.441 641.015L124.167 643.185Z" fill="white"/>
</g>
</svg>
