<svg width="214" height="304" viewBox="0 0 214 304" fill="none" xmlns="http://www.w3.org/2000/svg">
<path d="M41.2857 89.6875H46.8304C56.975 112.31 80.0571 128.125 107 128.125C133.943 128.125 157.025 112.31 167.17 89.6875H172.714C176.329 89.6875 179.286 86.8047 179.286 83.2812V44.8438C179.286 41.3203 176.329 38.4375 172.714 38.4375H167.17C157.025 15.8154 133.943 0 107 0C80.0571 0 56.975 15.8154 46.8304 38.4375H41.2857C37.6714 38.4375 34.7143 41.3203 34.7143 44.8438V83.2812C34.7143 86.8047 37.6714 89.6875 41.2857 89.6875ZM57.7143 54.4531C57.7143 45.6045 66.5446 38.4375 77.4286 38.4375H136.571C147.455 38.4375 156.286 45.6045 156.286 54.4531V64.0625C156.286 85.2832 138.625 102.5 116.857 102.5H97.1429C75.375 102.5 57.7143 85.2832 57.7143 64.0625V54.4531ZM87.2857 83.2812L92.2143 68.8672L107 64.0625L92.2143 59.2578L87.2857 44.8438L82.3571 59.2578L67.5714 64.0625L82.3571 68.8672L87.2857 83.2812ZM149.55 128.686C137.27 136.413 122.689 140.938 107 140.938C91.3107 140.938 76.7304 136.413 64.45 128.686C36.7268 131.528 15 154.15 15 181.938V185.781C15 196.392 23.8304 205 34.7143 205H67.5714V179.375C67.5714 172.288 73.4446 166.562 80.7143 166.562H133.286C140.555 166.562 146.429 172.288 146.429 179.375V205H179.286C190.17 205 199 196.392 199 185.781V181.938C199 154.15 177.273 131.528 149.55 128.686ZM126.714 179.375C123.1 179.375 120.143 182.258 120.143 185.781C120.143 189.305 123.1 192.188 126.714 192.188C130.329 192.188 133.286 189.305 133.286 185.781C133.286 182.258 130.329 179.375 126.714 179.375ZM87.2857 179.375C83.6714 179.375 80.7143 182.258 80.7143 185.781V205H93.8571V185.781C93.8571 182.258 90.9 179.375 87.2857 179.375Z" fill="black"/>
</svg>
