<svg width="110" height="92" viewBox="0 0 110 92" fill="none" xmlns="http://www.w3.org/2000/svg">
<path d="M50.049 85.1401C72.2177 85.1401 90.189 67.1688 90.189 45.0001C90.189 22.8314 72.2177 4.86011 50.049 4.86011C27.8803 4.86011 9.909 22.8314 9.909 45.0001C9.909 67.1688 27.8803 85.1401 50.049 85.1401Z" fill="#0B3D91"/>
<path d="M47.679 13.0201C47.9275 13.0201 48.129 12.8186 48.129 12.5701C48.129 12.3216 47.9275 12.1201 47.679 12.1201C47.4305 12.1201 47.229 12.3216 47.229 12.5701C47.229 12.8186 47.4305 13.0201 47.679 13.0201Z" fill="white"/>
<path d="M52.299 13.62C52.5475 13.62 52.749 13.4185 52.749 13.17C52.749 12.9214 52.5475 12.72 52.299 12.72C52.0505 12.72 51.849 12.9214 51.849 13.17C51.849 13.4185 52.0505 13.62 52.299 13.62Z" fill="white"/>
<path d="M58.359 21.7799C58.6075 21.7799 58.809 21.5784 58.809 21.3299C58.809 21.0814 58.6075 20.8799 58.359 20.8799C58.1105 20.8799 57.909 21.0814 57.909 21.3299C57.909 21.5784 58.1105 21.7799 58.359 21.7799Z" fill="white"/>
<path d="M25.119 63.7799C25.3675 63.7799 25.569 63.5784 25.569 63.3299C25.569 63.0814 25.3675 62.8799 25.119 62.8799C24.8705 62.8799 24.669 63.0814 24.669 63.3299C24.669 63.5784 24.8705 63.7799 25.119 63.7799Z" fill="white"/>
<path d="M26.289 67.38C26.5375 67.38 26.739 67.1785 26.739 66.93C26.739 66.6814 26.5375 66.48 26.289 66.48C26.0405 66.48 25.839 66.6814 25.839 66.93C25.839 67.1785 26.0405 67.38 26.289 67.38Z" fill="white"/>
<path d="M20.709 64.207C20.8951 64.207 21.046 64.0561 21.046 63.87C21.046 63.6838 20.8951 63.533 20.709 63.533C20.5229 63.533 20.372 63.6838 20.372 63.87C20.372 64.0561 20.5229 64.207 20.709 64.207Z" fill="white"/>
<path d="M39.009 71.28C39.1957 71.28 39.347 71.1287 39.347 70.942C39.347 70.7553 39.1957 70.604 39.009 70.604C38.8223 70.604 38.671 70.7553 38.671 70.942C38.671 71.1287 38.8223 71.28 39.009 71.28Z" fill="white"/>
<path d="M67.711 65.3171C67.8971 65.3171 68.048 65.1662 68.048 64.9801C68.048 64.794 67.8971 64.6431 67.711 64.6431C67.5249 64.6431 67.374 64.794 67.374 64.9801C67.374 65.1662 67.5249 65.3171 67.711 65.3171Z" fill="white"/>
<path d="M76.052 56.258C76.2387 56.258 76.39 56.1067 76.39 55.92C76.39 55.7334 76.2387 55.582 76.052 55.582C75.8653 55.582 75.714 55.7334 75.714 55.92C75.714 56.1067 75.8653 56.258 76.052 56.258Z" fill="white"/>
<path d="M35.169 24.299C35.3551 24.299 35.506 24.1481 35.506 23.962C35.506 23.7759 35.3551 23.625 35.169 23.625C34.9829 23.625 34.832 23.7759 34.832 23.962C34.832 24.1481 34.9829 24.299 35.169 24.299Z" fill="white"/>
<path d="M44.349 17.5571C44.5351 17.5571 44.686 17.4062 44.686 17.2201C44.686 17.0339 44.5351 16.8831 44.349 16.8831C44.1629 16.8831 44.012 17.0339 44.012 17.2201C44.012 17.4062 44.1629 17.5571 44.349 17.5571Z" fill="white"/>
<path d="M43.352 16.8969C43.5381 16.8969 43.689 16.746 43.689 16.5599C43.689 16.3738 43.5381 16.2229 43.352 16.2229C43.1659 16.2229 43.015 16.3738 43.015 16.5599C43.015 16.746 43.1659 16.8969 43.352 16.8969Z" fill="white"/>
<path d="M42.452 16.237C42.6381 16.237 42.789 16.0861 42.789 15.9C42.789 15.7139 42.6381 15.563 42.452 15.563C42.2659 15.563 42.115 15.7139 42.115 15.9C42.115 16.0861 42.2659 16.237 42.452 16.237Z" fill="white"/>
<path d="M36.609 26.04C36.7951 26.04 36.946 25.8891 36.946 25.703C36.946 25.5168 36.7951 25.366 36.609 25.366C36.4229 25.366 36.272 25.5168 36.272 25.703C36.272 25.8891 36.4229 26.04 36.609 26.04Z" fill="white"/>
<path d="M50.131 8.497C50.3171 8.497 50.468 8.34612 50.468 8.16C50.468 7.97388 50.3171 7.823 50.131 7.823C49.9449 7.823 49.794 7.97388 49.794 8.16C49.794 8.34612 49.9449 8.497 50.131 8.497Z" fill="white"/>
<path d="M52.352 18.217C52.5381 18.217 52.689 18.0661 52.689 17.88C52.689 17.6938 52.5381 17.543 52.352 17.543C52.1659 17.543 52.015 17.6938 52.015 17.88C52.015 18.0661 52.1659 18.217 52.352 18.217Z" fill="white"/>
<path d="M48.849 16.319C49.0351 16.319 49.186 16.1681 49.186 15.982C49.186 15.7959 49.0351 15.645 48.849 15.645C48.6629 15.645 48.512 15.7959 48.512 15.982C48.512 16.1681 48.6629 16.319 48.849 16.319Z" fill="white"/>
<path d="M42.849 18.9001C43.0351 18.9001 43.186 18.7492 43.186 18.5631C43.186 18.377 43.0351 18.2261 42.849 18.2261C42.6629 18.2261 42.512 18.377 42.512 18.5631C42.512 18.7492 42.6629 18.9001 42.849 18.9001Z" fill="white"/>
<path d="M69.309 74.2199C69.4951 74.2199 69.646 74.069 69.646 73.8829C69.646 73.6968 69.4951 73.5459 69.309 73.5459C69.1229 73.5459 68.972 73.6968 68.972 73.8829C68.972 74.069 69.1229 74.2199 69.309 74.2199Z" fill="white"/>
<path d="M24.549 65.948C24.7357 65.948 24.887 65.7966 24.887 65.61C24.887 65.4233 24.7357 65.272 24.549 65.272C24.3623 65.272 24.211 65.4233 24.211 65.61C24.211 65.7966 24.3623 65.948 24.549 65.948Z" fill="white"/>
<path d="M48.009 70.2981C48.1957 70.2981 48.347 70.1467 48.347 69.9601C48.347 69.7734 48.1957 69.6221 48.009 69.6221C47.8223 69.6221 47.671 69.7734 47.671 69.9601C47.671 70.1467 47.8223 70.2981 48.009 70.2981Z" fill="white"/>
<path d="M31.531 65.678C31.7177 65.678 31.869 65.5266 31.869 65.34C31.869 65.1533 31.7177 65.002 31.531 65.002C31.3443 65.002 31.193 65.1533 31.193 65.34C31.193 65.5266 31.3443 65.678 31.531 65.678Z" fill="white"/>
<path d="M34.449 70.4409C34.6357 70.4409 34.787 70.2896 34.787 70.1029C34.787 69.9162 34.6357 69.7649 34.449 69.7649C34.2623 69.7649 34.111 69.9162 34.111 70.1029C34.111 70.2896 34.2623 70.4409 34.449 70.4409Z" fill="white"/>
<path d="M55.929 67.4401C56.1151 67.4401 56.266 67.2892 56.266 67.1031C56.266 66.917 56.1151 66.7661 55.929 66.7661C55.7429 66.7661 55.592 66.917 55.592 67.1031C55.592 67.2892 55.7429 67.4401 55.929 67.4401Z" fill="white"/>
<path d="M67.771 60.757C67.9571 60.757 68.108 60.6061 68.108 60.42C68.108 60.2339 67.9571 60.083 67.771 60.083C67.5849 60.083 67.434 60.2339 67.434 60.42C67.434 60.6061 67.5849 60.757 67.771 60.757Z" fill="white"/>
<path d="M76.749 64.8591C76.9351 64.8591 77.086 64.7082 77.086 64.5221C77.086 64.3359 76.9351 64.1851 76.749 64.1851C76.5629 64.1851 76.412 64.3359 76.412 64.5221C76.412 64.7082 76.5629 64.8591 76.749 64.8591Z" fill="white"/>
<path d="M79.809 66.8171C79.9951 66.8171 80.146 66.6662 80.146 66.4801C80.146 66.294 79.9951 66.1431 79.809 66.1431C79.6229 66.1431 79.472 66.294 79.472 66.4801C79.472 66.6662 79.6229 66.8171 79.809 66.8171Z" fill="white"/>
<path d="M80.312 61.477C80.4981 61.477 80.649 61.3261 80.649 61.14C80.649 60.9539 80.4981 60.803 80.312 60.803C80.1259 60.803 79.975 60.9539 79.975 61.14C79.975 61.3261 80.1259 61.477 80.312 61.477Z" fill="white"/>
<path d="M35.671 53.9169C35.8571 53.9169 36.008 53.766 36.008 53.5799C36.008 53.3938 35.8571 53.2429 35.671 53.2429C35.4849 53.2429 35.334 53.3938 35.334 53.5799C35.334 53.766 35.4849 53.9169 35.671 53.9169Z" fill="white"/>
<path d="M35.799 61.7701C36.0475 61.7701 36.249 61.5686 36.249 61.3201C36.249 61.0716 36.0475 60.8701 35.799 60.8701C35.5505 60.8701 35.349 61.0716 35.349 61.3201C35.349 61.5686 35.5505 61.7701 35.799 61.7701Z" fill="white"/>
<path d="M38.499 67.4701C38.7475 67.4701 38.949 67.2686 38.949 67.0201C38.949 66.7715 38.7475 66.5701 38.499 66.5701C38.2505 66.5701 38.049 66.7715 38.049 67.0201C38.049 67.2686 38.2505 67.4701 38.499 67.4701Z" fill="white"/>
<path d="M70.839 61.5299C71.0875 61.5299 71.289 61.3284 71.289 61.0799C71.289 60.8314 71.0875 60.6299 70.839 60.6299C70.5905 60.6299 70.389 60.8314 70.389 61.0799C70.389 61.3284 70.5905 61.5299 70.839 61.5299Z" fill="white"/>
<path d="M82.479 60.87C82.7275 60.87 82.929 60.6685 82.929 60.42C82.929 60.1714 82.7275 59.97 82.479 59.97C82.2305 59.97 82.029 60.1714 82.029 60.42C82.029 60.6685 82.2305 60.87 82.479 60.87Z" fill="white"/>
<path d="M76.719 58.41C76.9675 58.41 77.169 58.2085 77.169 57.96C77.169 57.7115 76.9675 57.51 76.719 57.51C76.4705 57.51 76.269 57.7115 76.269 57.96C76.269 58.2085 76.4705 58.41 76.719 58.41Z" fill="white"/>
<path d="M70.839 58.65C71.0875 58.65 71.289 58.4485 71.289 58.2C71.289 57.9515 71.0875 57.75 70.839 57.75C70.5905 57.75 70.389 57.9515 70.389 58.2C70.389 58.4485 70.5905 58.65 70.839 58.65Z" fill="white"/>
<path d="M58.71 12.2881L59.829 12.1811L58.712 12.1181C58.677 11.9021 58.504 11.7331 58.286 11.7051L58.179 10.5911L58.115 11.7141C57.913 11.7591 57.758 11.9281 57.733 12.1381L56.589 12.2421L57.741 12.3041C57.783 12.4971 57.939 12.6481 58.135 12.6841L58.239 13.8321L58.3 12.6861C58.507 12.6511 58.671 12.4921 58.71 12.2881Z" fill="white"/>
<path d="M39.824 24.7461L40.943 24.6391L39.826 24.5761C39.792 24.3601 39.618 24.1911 39.4 24.1631L39.293 23.0491L39.23 24.1721C39.027 24.2171 38.872 24.3861 38.847 24.5961L37.703 24.7001L38.855 24.7621C38.897 24.9551 39.053 25.1061 39.249 25.1421L39.353 26.2901L39.415 25.1441C39.622 25.1101 39.786 24.9501 39.824 24.7461Z" fill="white"/>
<path d="M81.659 57.6841L82.778 57.5771L81.661 57.5141C81.627 57.2981 81.453 57.1291 81.235 57.1011L81.128 55.9871L81.065 57.1101C80.863 57.1551 80.708 57.3241 80.683 57.5341L79.539 57.6381L80.691 57.7001C80.733 57.8931 80.889 58.0441 81.085 58.0801L81.189 59.2281L81.251 58.0821C81.456 58.0481 81.62 57.8891 81.659 57.6841Z" fill="white"/>
<path d="M36.044 74.906L37.163 74.799L36.046 74.736C36.011 74.52 35.838 74.351 35.62 74.323L35.513 73.21L35.45 74.332C35.247 74.377 35.092 74.546 35.067 74.756L33.923 74.86L35.075 74.922C35.117 75.115 35.273 75.267 35.469 75.302L35.573 76.45L35.635 75.304C35.841 75.27 36.006 75.11 36.044 74.906Z" fill="white"/>
<path d="M78.104 66.5061L79.223 66.3991L78.106 66.3361C78.072 66.1201 77.898 65.9511 77.68 65.9231L77.573 64.8091L77.51 65.9311C77.308 65.9761 77.153 66.1451 77.128 66.3551L75.984 66.4591L77.136 66.5211C77.178 66.7141 77.334 66.8651 77.53 66.9011L77.634 68.0491L77.696 66.9031C77.901 66.8701 78.066 66.7101 78.104 66.5061Z" fill="white"/>
<path d="M59.568 35.385C54.901 37.199 50.349 38.818 46.508 40.02C38.703 42.464 17.348 49.08 4.448 57.42L5.528 57.84C13.388 53.4 18.497 52.005 23.408 50.46C28.748 48.78 46.011 44.74 53.828 42.54C56.469 41.797 59.562 40.824 62.838 39.64C62.076 38.577 61.272 37.511 60.426 36.447C60.143 36.088 59.856 35.734 59.568 35.385ZM65.27 43.244C64.14 44.007 63.193 44.616 62.53 45C58.69 47.22 39.969 60 35.71 62.94C31.451 65.88 19.63 77.04 16.15 80.28L16.03 81.599C27.25 71.519 30.77 69.033 35.23 65.64C40.75 61.44 52.169 53.67 56.05 51.18C59.76 48.8 63.106 46.611 66.109 44.608C66.06 44.526 66.011 44.444 65.962 44.361C65.736 43.99 65.505 43.618 65.27 43.244ZM82.809 24.72C77.343 27.924 68.728 31.791 60.37 35.072C60.57 35.317 60.769 35.564 60.967 35.813C61.901 36.989 62.782 38.173 63.611 39.358C70.181 36.938 77.39 33.69 83.11 29.759C80.385 32.341 71.376 39.074 65.883 42.827C66.166 43.288 66.44 43.749 66.705 44.208C75.027 38.639 80.627 34.54 83.89 31.799C88.39 28.019 98.65 19.559 102.55 8.21899C95.709 16.92 87.621 21.899 82.809 24.72Z" fill="#FC3D21"/>
<path d="M44.884 54.939C43.999 53.825 42.775 52.333 41.856 51.176C40.627 49.629 39.49 48.066 38.448 46.505C38.108 46.59 37.769 46.675 37.43 46.76C38.688 48.723 40.085 50.683 41.607 52.599C42.719 53.999 43.73 55.126 44.248 55.827C44.353 55.969 44.561 56.283 44.842 56.701C45.166 56.481 45.493 56.259 45.823 56.035C45.504 55.688 45.189 55.323 44.884 54.939ZM51.344 60.803C50.617 60.115 48.854 58.966 47.019 57.242C46.614 57.52 46.205 57.802 45.795 58.086C46.98 59.756 48.594 61.807 49.858 62.405C51.762 63.307 52.275 61.685 51.344 60.803ZM60.967 35.813C50.475 22.607 37.658 15.352 32.132 19.743C27.84 23.153 29.602 33.119 35.518 43.588C35.824 43.483 36.127 43.38 36.427 43.278C30.456 33.078 28.822 23.599 32.87 20.382C37.957 16.34 50.24 23.623 60.428 36.446C62.537 39.1 64.391 41.764 65.961 44.361C71.973 54.311 73.818 63.309 69.664 66.982C68.393 68.106 64.509 68.547 59.421 66.257C59.35 66.346 59.464 66.587 59.553 66.646C63.945 68.412 68.152 69.085 70.276 67.398C75.38 63.342 71.459 49.019 60.967 35.813Z" fill="white"/>
<path d="M15.969 37.3799H22.689L28.329 46.9499C28.329 46.9499 28.329 40.0199 28.329 39.4799C28.329 38.6399 27.264 37.5449 26.889 37.3799C27.339 37.3799 31.269 37.3799 31.539 37.3799C31.254 37.4549 30.339 38.5649 30.339 39.4799C30.339 39.9299 30.339 49.9799 30.339 50.4599C30.339 51.1349 31.314 52.0649 31.779 52.4249H25.299L19.569 42.8099C19.569 42.8099 19.569 49.9799 19.569 50.3699C19.569 51.1199 20.304 51.8399 21.069 52.4549H16.119C16.824 52.1549 17.499 51.2099 17.559 50.4599C17.619 49.7099 17.559 40.0349 17.559 39.6149C17.559 38.6999 16.674 37.9499 15.969 37.3799Z" fill="white"/>
<path d="M77.439 52.4249H86.379C85.884 52.3049 85.329 51.7199 85.029 50.9399C84.729 50.1599 79.989 37.3799 79.989 37.3799H76.59C75.626 38.0739 74.593 38.8059 73.49 39.5769C73.487 39.6049 73.484 39.6329 73.479 39.6599C73.331 40.5599 70.671 50.1939 70.509 50.6699C70.284 51.3299 69.129 52.0649 68.664 52.4549H73.479C72.999 51.9149 72.609 51.3899 72.699 50.7899C72.789 50.1899 73.059 48.9899 73.059 48.9899H78.039C78.264 49.5899 78.432 50.1289 78.519 50.6399C78.624 51.2549 77.994 51.9449 77.439 52.4249ZM73.509 47.0699L75.189 41.5799L77.409 47.0699H73.509ZM72.752 37.9279C72.999 37.7459 73.247 37.5629 73.494 37.3799H72.189C72.319 37.4999 72.534 37.6889 72.752 37.9279Z" fill="white"/>
<path d="M38.559 50.7899C38.649 50.1899 38.919 48.9899 38.919 48.9899H43.899C44.124 49.5899 44.292 50.1289 44.379 50.6399C44.484 51.2549 43.854 51.9449 43.299 52.4249H51.17C51.334 52.3149 51.497 52.2049 51.66 52.0959C51.355 51.8259 51.074 51.4209 50.889 50.9399C50.589 50.1599 45.849 37.3799 45.849 37.3799H38.049C38.424 37.7249 39.504 38.6549 39.339 39.6599C39.192 40.5599 36.531 50.1939 36.369 50.6699C36.144 51.3299 34.989 52.0649 34.524 52.4549H39.339C38.859 51.9149 38.469 51.3899 38.559 50.7899ZM41.049 41.5799L43.269 47.0699H39.369L41.049 41.5799Z" fill="white"/>
<path d="M65.748 44.8479C64.28 45.8259 62.731 46.8469 61.099 47.9129C61.831 48.2679 62.414 48.7139 62.47 49.2899C62.574 50.3719 60.4 50.8949 58.435 50.6699C58.042 50.6249 57.656 50.5219 57.288 50.3839C56.88 50.6469 56.468 50.9119 56.05 51.1799C55.625 51.4529 55.109 51.7889 54.52 52.1769V53.7299C54.91 52.9649 55.763 52.2799 56.425 52.2449C56.71 52.2299 57.7 53.1449 61.78 52.9199C63.76 52.8109 67.585 50.6999 67.525 48.2699C67.489 46.8339 66.739 45.7139 65.748 44.8479ZM54.519 48.5999V50.1819C54.88 49.9409 55.236 49.7039 55.585 49.4729C55.036 49.0909 54.647 48.7339 54.519 48.5999ZM64.353 43.8549C63.973 43.6299 63.588 43.4329 63.219 43.2589C61.299 42.3589 59.289 42.1939 58.869 40.9789C58.573 40.1219 59.409 39.3289 61.449 39.3589C63.489 39.3889 65.379 40.6039 65.889 41.0389V37.1689C65.739 37.3189 65.081 38.0739 64.479 37.9489C63.324 37.7089 61.359 37.3959 59.109 37.4089C56.529 37.4239 54.309 39.4179 54.234 41.9389C54.129 45.4639 56.949 46.4239 58.539 46.9789C58.703 47.0359 58.89 47.0969 59.093 47.1619C60.618 46.1699 61.824 45.4059 62.53 44.9989C63.004 44.7259 63.625 44.3339 64.353 43.8549Z" fill="white"/>
</svg>
