<svg width="142" height="137" viewBox="0 0 142 137" fill="none" xmlns="http://www.w3.org/2000/svg">
<path d="M79.6201 137L68.1554 111.01C79.1981 107.075 89.5375 101.782 99.1032 95.6065L79.6201 137ZM26.9386 71.2455L0 60.1846L42.9048 41.3879C36.5043 50.6166 31.0181 60.5917 26.9386 71.2455ZM139.265 2.64089C139.265 2.64089 104.449 -11.7518 64.6386 26.6627C49.2351 41.5236 40.0211 57.8774 34.0425 72.1955C32.0731 77.2848 33.4095 82.8492 37.278 86.6493L52.2595 101.035C56.128 104.835 61.8955 106.057 67.1707 104.157C82.2226 98.5923 98.9625 89.4993 114.366 74.6384C154.176 36.2307 139.265 2.64089 139.265 2.64089ZM89.5375 50.6166C84.0513 45.3237 84.0513 36.7057 89.5375 31.4127C95.0237 26.1198 103.956 26.1198 109.443 31.4127C114.858 36.7057 114.929 45.3237 109.443 50.6166C103.956 55.9095 95.0237 55.9095 89.5375 50.6166ZM31.1588 135.711L56.761 111.01C54.3696 110.4 52.0485 109.382 49.9384 107.957L21.2414 135.711H31.1588ZM1.33638 135.711H11.2537L44.8039 103.41L34.8162 93.8422L1.33638 126.143V135.711ZM1.33638 116.507L30.1037 88.8207C28.6267 86.785 27.5716 84.6135 26.9386 82.2385L1.33638 106.939V116.507Z" fill="black"/>
</svg>
