<svg width="208" height="107" viewBox="0 0 208 107" fill="none" xmlns="http://www.w3.org/2000/svg">
<path d="M104 12.5882C79.8653 12.5882 56.7191 21.872 39.6533 38.3973C22.5875 54.9226 13 77.3356 13 100.706C13 102.375 12.3152 103.976 11.0962 105.157C9.87721 106.337 8.22391 107 6.5 107C4.77609 107 3.12279 106.337 1.90381 105.157C0.68482 103.976 0 102.375 0 100.706C0 73.997 10.9571 48.3821 30.4609 29.4961C49.9647 10.6101 76.4175 0 104 0C131.583 0 158.035 10.6101 177.539 29.4961C197.043 48.3821 208 73.997 208 100.706C208 102.375 207.315 103.976 206.096 105.157C204.877 106.337 203.224 107 201.5 107C199.776 107 198.123 106.337 196.904 105.157C195.685 103.976 195 102.375 195 100.706C195 77.3356 185.413 54.9226 168.347 38.3973C151.281 21.872 128.135 12.5882 104 12.5882ZM104 37.7647C86.7609 37.7647 70.2279 44.396 58.0381 56.1998C45.8482 68.0035 39 84.0128 39 100.706C39 102.375 38.3152 103.976 37.0962 105.157C35.8772 106.337 34.2239 107 32.5 107C30.7761 107 29.1228 106.337 27.9038 105.157C26.6848 103.976 26 102.375 26 100.706C26 90.7872 28.0175 80.9657 31.9374 71.802C35.8573 62.6384 41.6027 54.3121 48.8457 47.2985C56.0886 40.285 64.6873 34.7215 74.1507 30.9258C83.6141 27.1301 93.7569 25.1765 104 25.1765C114.243 25.1765 124.386 27.1301 133.849 30.9258C143.313 34.7215 151.911 40.285 159.154 47.2985C166.397 54.3121 172.143 62.6384 176.063 71.802C179.982 80.9657 182 90.7872 182 100.706C182 102.375 181.315 103.976 180.096 105.157C178.877 106.337 177.224 107 175.5 107C173.776 107 172.123 106.337 170.904 105.157C169.685 103.976 169 102.375 169 100.706C169 84.0128 162.152 68.0035 149.962 56.1998C137.772 44.396 121.239 37.7647 104 37.7647ZM104 62.9412C93.6566 62.9412 83.7368 66.92 76.4228 74.0022C69.1089 81.0845 65 90.6901 65 100.706C65 102.375 64.3152 103.976 63.0962 105.157C61.8772 106.337 60.2239 107 58.5 107C56.7761 107 55.1228 106.337 53.9038 105.157C52.6848 103.976 52 102.375 52 100.706C52 87.3515 57.4786 74.544 67.2304 65.101C76.9823 55.658 90.2087 50.3529 104 50.3529C117.791 50.3529 131.018 55.658 140.77 65.101C150.521 74.544 156 87.3515 156 100.706C156 102.375 155.315 103.976 154.096 105.157C152.877 106.337 151.224 107 149.5 107C147.776 107 146.123 106.337 144.904 105.157C143.685 103.976 143 102.375 143 100.706C143 90.6901 138.891 81.0845 131.577 74.0022C124.263 66.92 114.343 62.9412 104 62.9412ZM104 88.1177C100.552 88.1177 97.2456 89.4439 94.8076 91.8047C92.3696 94.1654 91 97.3673 91 100.706C91 102.375 90.3152 103.976 89.0962 105.157C87.8772 106.337 86.2239 107 84.5 107C82.7761 107 81.1228 106.337 79.9038 105.157C78.6848 103.976 78 102.375 78 100.706C78 94.0287 80.7393 87.6249 85.6152 82.9034C90.4912 78.1819 97.1044 75.5294 104 75.5294C110.896 75.5294 117.509 78.1819 122.385 82.9034C127.261 87.6249 130 94.0287 130 100.706C130 102.375 129.315 103.976 128.096 105.157C126.877 106.337 125.224 107 123.5 107C121.776 107 120.123 106.337 118.904 105.157C117.685 103.976 117 102.375 117 100.706C117 97.3673 115.63 94.1654 113.192 91.8047C110.754 89.4439 107.448 88.1177 104 88.1177Z" fill="black"/>
</svg>
