<svg width="166" height="161" viewBox="0 0 166 161" fill="none" xmlns="http://www.w3.org/2000/svg">
<path d="M112.05 135.579V152.526H97.359C94.537 157.611 89.142 161 83 161C76.858 161 71.463 157.611 68.641 152.526H53.95V135.579H68.641C70.052 133.037 72.21 130.834 74.7 129.393V118.632H66.4C61.835 118.632 58.1 114.818 58.1 110.158V84.7368H33.2V118.632C33.2 123.292 29.465 127.105 24.9 127.105H8.3C3.735 127.105 0 123.292 0 118.632V42.3684C0 37.7079 3.735 33.8947 8.3 33.8947H24.9C29.465 33.8947 33.2 37.7079 33.2 42.3684V67.7895H58.1V42.3684C58.1 37.7079 61.835 33.8947 66.4 33.8947H74.7V25.4211H66.4C61.835 25.4211 58.1 21.6079 58.1 16.9474V8.47368C58.1 3.81316 61.835 0 66.4 0H99.6C104.165 0 107.9 3.81316 107.9 8.47368V16.9474C107.9 21.6079 104.165 25.4211 99.6 25.4211H91.3V33.8947H99.6C104.165 33.8947 107.9 37.7079 107.9 42.3684V67.7895H132.8V42.3684C132.8 37.7079 136.535 33.8947 141.1 33.8947H157.7C162.265 33.8947 166 37.7079 166 42.3684V118.632C166 123.292 162.265 127.105 157.7 127.105H141.1C136.535 127.105 132.8 123.292 132.8 118.632V84.7368H107.9V110.158C107.9 114.818 104.165 118.632 99.6 118.632H91.3V129.393C93.79 130.834 95.948 133.037 97.359 135.579H112.05ZM8.3 110.158V118.632H24.9V110.158H8.3ZM8.3 93.2105V101.684H24.9V93.2105H8.3ZM8.3 76.2632V84.7368H24.9V76.2632H8.3ZM8.3 59.3158V67.7895H24.9V59.3158H8.3ZM8.3 42.3684V50.8421H24.9V42.3684H8.3ZM141.1 110.158V118.632H157.7V110.158H141.1ZM141.1 93.2105V101.684H157.7V93.2105H141.1ZM141.1 76.2632V84.7368H157.7V76.2632H141.1ZM141.1 59.3158V67.7895H157.7V59.3158H141.1ZM141.1 42.3684V50.8421H157.7V42.3684H141.1Z" fill="black"/>
</svg>
