<svg width="184" height="184" viewBox="0 0 184 184" fill="currentColor" xmlns="http://www.w3.org/2000/svg">
<path d="M44.9244 0C43.2485 3.41266 39.5508 6.12151 35.8514 6.12151C40.854 6.12151 45.8565 11.0722 45.8565 16.0229C45.8565 11.0722 50.859 6.12151 55.8615 6.12151C52.1622 6.12151 48.4649 3.41266 46.7886 0H44.9244ZM165.917 5.77578C165.917 9.07623 162.582 12.3767 159.247 12.3767C162.582 12.3767 165.917 15.6771 165.917 18.9776C165.917 15.6771 169.252 12.3767 172.587 12.3767C169.252 12.3767 165.917 9.07623 165.917 5.77578ZM135.902 22.278C135.902 27.2287 130.899 32.1794 125.897 32.1794C130.899 32.1794 135.902 37.13 135.902 42.0807C135.902 37.13 140.904 32.1794 145.907 32.1794C140.904 32.1794 135.902 27.2287 135.902 22.278ZM0 36.333V101.564V166.796C39.1906 165.145 83.4517 164.463 126.061 152.841C143.935 148.338 157.998 143.044 167.889 137.027C177.781 131.011 184 123.94 184 115.722C183.962 112.164 182.495 108.427 180.66 105.614C179.269 103.578 177.475 101.628 175.332 99.766C175.97 98.2171 176.296 96.5603 176.294 94.8879C176.294 87.7804 170.553 82.0987 163.371 82.0987C156.189 82.0987 150.448 87.7804 150.448 94.8879C150.448 101.995 156.189 107.677 163.371 107.677C166.045 107.677 168.518 106.889 170.57 105.533C173.615 108.342 176.359 111.851 176.496 115.722C176.496 120.077 172.803 125.322 163.96 130.7C155.117 136.079 141.624 141.258 124.209 145.645C85.8767 155.117 39.2052 158.574 4.7524 159.304C14.8337 157.342 24.0438 153.003 31.7673 146.9C42.9805 146.168 52.9988 145.286 63.6363 143.98C62.5232 141.408 61.9867 139.133 62.166 136.674C54.5892 137.547 46.7603 138.341 40.2066 138.861C49.7055 127.953 55.4447 113.744 55.4447 98.1883C55.4447 66.2524 31.2616 39.9957 0 36.333ZM55.6881 67.3737C56.9494 69.8975 58.0539 72.4951 58.9956 75.152C83.2954 77.497 105.586 81.1069 124.209 85.7989C131.21 87.5621 137.564 89.4554 143.251 91.4365C143.683 88.971 144.577 86.6073 145.887 84.4671C139.917 82.3858 133.309 80.4282 126.062 78.6018C105.91 73.5249 81.8388 69.7244 55.6881 67.3737ZM61.0767 82.1915C61.6775 84.7186 62.134 87.2772 62.444 89.8551C73.5655 91.2298 83.749 92.9093 92.6776 94.8487C105.458 97.6252 115.727 100.946 122.488 104.418C125.869 106.154 128.351 107.935 129.827 109.502C131.303 111.069 131.733 112.24 131.733 113.247C131.733 114.255 131.304 115.425 129.827 116.992C128.351 118.559 125.868 120.34 122.488 122.076C115.727 125.548 105.458 128.869 92.6776 131.645C91.3004 131.944 89.9205 132.231 88.538 132.506C89.4906 135.089 89.8495 137.413 89.4618 139.897C91.0501 139.585 92.7564 139.231 94.2868 138.899C107.458 136.038 118.191 132.649 125.943 128.668C129.82 126.677 132.972 124.545 135.316 122.056C137.66 119.569 139.237 116.54 139.237 113.247C139.237 109.954 137.66 106.926 135.316 104.437C132.972 101.95 129.82 99.8175 125.944 97.8269C118.191 93.8458 107.458 90.4558 94.2876 87.5956C84.4647 85.4618 73.2908 83.6387 61.0767 82.1915ZM75.8717 131.605C72.3741 131.605 69.6185 134.332 69.6185 137.794C69.6185 141.255 72.3741 143.982 75.8717 143.982C79.3693 143.982 82.1248 141.255 82.1248 137.794C82.1248 134.332 79.3693 131.605 75.8717 131.605ZM99.2168 170.798C99.2168 174.099 95.8818 177.399 92.5467 177.399C95.8818 177.399 99.2168 180.7 99.2168 184C99.2168 180.7 102.552 177.399 105.887 177.399C102.552 177.399 99.2168 174.099 99.2168 170.798Z" fill="#F5F5F5"/>
</svg>
